<?xml version="1.0" encoding="UTF-8"?>
<svg id="Layer_2" data-name="Layer 2" xmlns="http://www.w3.org/2000/svg" xmlns:xlink="http://www.w3.org/1999/xlink" viewBox="0 0 886.79 247.7">
  <defs>
    <style>
      .cls-1 {
        fill: url(#linear-gradient);
      }

      .cls-2 {
        fill: #fff;
      }

      .cls-3 {
        fill: #273c75;
      }

      .cls-4 {
        fill: url(#linear-gradient-3);
      }

      .cls-5 {
        fill: url(#linear-gradient-2);
      }
    </style>
    <linearGradient id="linear-gradient" x1="101.19" y1="138.9" x2="161.19" y2="138.9" gradientUnits="userSpaceOnUse">
      <stop offset="0" stop-color="#ba0e7f"/>
      <stop offset=".15" stop-color="#c80e7f"/>
      <stop offset=".37" stop-color="#d80e7f"/>
      <stop offset=".63" stop-color="#e10e7f"/>
      <stop offset="1" stop-color="#e40e7f"/>
    </linearGradient>
    <linearGradient id="linear-gradient-2" x1="146.69" y1="182.15" x2="146.69" y2="107.43" gradientUnits="userSpaceOnUse">
      <stop offset="0" stop-color="#e40e7f"/>
      <stop offset="1" stop-color="#fff"/>
    </linearGradient>
    <linearGradient id="linear-gradient-3" x1="86.69" y1="182.15" x2="86.69" y2="149.03" gradientUnits="userSpaceOnUse">
      <stop offset="0" stop-color="#ba0e7f"/>
      <stop offset=".31" stop-color="#c20e7f"/>
      <stop offset=".81" stop-color="#d90e7f"/>
      <stop offset="1" stop-color="#e40e7f"/>
    </linearGradient>
  </defs>
  <g id="Layer_2-2" data-name="Layer 2">
    <rect class="cls-3" width="886.79" height="247.7" rx="26.26" ry="26.26"/>
    <g>
      <path class="cls-2" d="m219.87,44.37c2.39,0,4.32,1.93,4.32,4.32v150.32c0,2.39-1.93,4.32-4.32,4.32H54.51c-2.39,0-4.32-1.93-4.32-4.32V48.69c0-2.39,1.93-4.32,4.32-4.32h165.36m0-10H54.51c-7.9,0-14.32,6.42-14.32,14.32v150.32c0,7.9,6.42,14.32,14.32,14.32h165.36c7.9,0,14.32-6.42,14.32-14.32V48.69c0-7.9-6.42-14.32-14.32-14.32h0Z"/>
      <path class="cls-1" d="m146.57,107.43c-7.93-7.31-18.45-11.8-29.96-11.78-.31,0-.63,0-.94.01-4.96.11-9.86,1.08-14.48,2.83v41.7c0-8.77,7.26-15.97,16.02-15.53h.05c8.23.3,14.93,7.49,14.93,16.03v41.46h29v-41.58c0-13.02-5.65-24.88-14.62-33.14Zm-30.35-6.77c.16-.01.32-.01.47-.01.2,0,.39.01.59.02-.35-.01-.7-.01-1.06-.01Z"/>
      <rect class="cls-2" x="278.19" y="52.15" width="91" height="69" rx="16.15" ry="16.15"/>
      <g>
        <path class="cls-3" d="m322.27,89.25c0,8.36-5.53,12.46-16.76,12.46s-16.53-4.1-16.53-12.46v-16h10.37v15.45c0,4.14,2.11,6.16,6.44,6.16s6.44-2.03,6.44-6.16v-15.45h10.03v16Z"/>
        <path class="cls-3" d="m336.12,101.28h-10.37v-28.03h10.37v10.85h.11l11.23-10.85h12.94l-15.05,13.76,15.62,14.27h-13.51l-11.23-10.85h-.11v10.85Z"/>
      </g>
      <path class="cls-2" d="m209.52,109.7l-3.26,3.79-12.41,14.39-3.26,3.79-3.49-3.01c-2.49-2.15-5.54-3.59-8.8-3.93-2.25-.23-4.45.03-6.54.72-6.4,2.13-10.54,8.37-10.57,15.12,0-13.02-5.65-24.88-14.62-33.14,8.46-7.8,19.95-12.37,32.48-11.72,10.07.52,19.62,4.64,27.26,11.22l3.21,2.77Z"/>
      <path class="cls-5" d="m161.19,140.57v41.58h-29v-42c0-12.93,5.54-24.59,14.38-32.72,8.97,8.26,14.62,20.12,14.62,33.14Z"/>
      <polygon class="cls-4" points="101.19 70.15 101.19 177.15 101.15 182.15 72.19 182.15 72.19 70.15 101.19 70.15"/>
      <g>
        <path class="cls-2" d="m282.68,161.93c0-12.33,7.38-18.33,18.07-18.33s17.98,5.99,17.98,18.41v.52h-5.73v-.61c0-8.95-4.95-12.94-12.25-12.94s-12.25,4-12.25,12.94v25.71h-5.82v-25.71Z"/>
        <path class="cls-2" d="m322.72,166.19c0-13.03,9.55-22.58,23.1-22.58s22.93,9.55,22.93,22.58v1.91h-40.04c.78,8.95,7.47,15.29,17.11,15.29,6.77,0,11.99-2.78,14.76-7.73h6.34c-3.3,7.9-11.12,13.11-21.11,13.11-13.55,0-23.1-9.55-23.1-22.58Zm39.95-3.3c-1.39-8.69-8.16-13.9-16.85-13.9s-15.63,5.47-16.94,13.9h33.79Z"/>
        <path class="cls-2" d="m375.52,166.45c0-13.81,9.64-22.84,22.93-22.84s23.19,9.55,23.19,22.76-9.64,22.41-22.23,22.41c-8.16,0-14.85-3.82-18.07-10.34v27.53h-5.82v-39.52Zm40.21-.26c0-9.9-6.95-17.2-17.2-17.2s-17.2,7.3-17.2,17.2,6.86,17.2,17.2,17.2,17.2-7.3,17.2-17.2Z"/>
        <path class="cls-2" d="m426.68,166.19c0-13.03,9.55-22.58,23.1-22.58s23.1,9.55,23.1,22.58-9.55,22.58-23.1,22.58-23.1-9.55-23.1-22.58Zm40.3,0c0-9.9-6.95-17.2-17.2-17.2s-17.2,7.3-17.2,17.2,6.95,17.2,17.2,17.2,17.2-7.3,17.2-17.2Z"/>
        <path class="cls-2" d="m478.18,175.57h5.91c.26,4.6,4.43,7.9,11.64,7.9s11.64-3.47,11.64-8.08c0-5.21-5.47-5.82-11.64-6.6-7.73-.96-16.5-2.17-16.5-11.64,0-8.08,6.34-13.55,16.42-13.55s16.24,5.56,16.42,12.85h-5.73c-.26-4.26-4.17-7.56-10.77-7.56s-10.51,3.3-10.51,7.73c0,5.3,5.56,5.91,11.64,6.69,6.69.87,16.59,1.91,16.59,11.64,0,8.16-6.86,13.81-17.54,13.81s-17.28-5.65-17.54-13.2Z"/>
        <path class="cls-2" d="m518.83,175.57h5.91c.26,4.6,4.43,7.9,11.64,7.9s11.64-3.47,11.64-8.08c0-5.21-5.47-5.82-11.64-6.6-7.73-.96-16.5-2.17-16.5-11.64,0-8.08,6.34-13.55,16.42-13.55s16.24,5.56,16.42,12.85h-5.73c-.26-4.26-4.17-7.56-10.77-7.56s-10.51,3.3-10.51,7.73c0,5.3,5.56,5.91,11.64,6.69,6.69.87,16.59,1.91,16.59,11.64,0,8.16-6.86,13.81-17.54,13.81s-17.28-5.65-17.54-13.2Z"/>
        <path class="cls-2" d="m559.21,166.19c0-13.03,9.55-22.58,23.1-22.58s22.93,9.55,22.93,22.58v1.91h-40.04c.78,8.95,7.47,15.29,17.11,15.29,6.77,0,11.99-2.78,14.76-7.73h6.34c-3.3,7.9-11.12,13.11-21.1,13.11-13.55,0-23.1-9.55-23.1-22.58Zm39.95-3.3c-1.39-8.69-8.16-13.9-16.85-13.9s-15.63,5.47-16.94,13.9h33.79Z"/>
        <path class="cls-2" d="m610.54,175.57h5.91c.26,4.6,4.43,7.9,11.64,7.9s11.64-3.47,11.64-8.08c0-5.21-5.47-5.82-11.64-6.6-7.73-.96-16.5-2.17-16.5-11.64,0-8.08,6.34-13.55,16.42-13.55s16.24,5.56,16.42,12.85h-5.73c-.26-4.26-4.17-7.56-10.77-7.56s-10.51,3.3-10.51,7.73c0,5.3,5.56,5.91,11.64,6.69,6.69.87,16.59,1.91,16.59,11.64,0,8.16-6.86,13.81-17.54,13.81s-17.28-5.65-17.54-13.2Z"/>
        <path class="cls-2" d="m651.19,175.57h5.91c.26,4.6,4.43,7.9,11.64,7.9s11.64-3.47,11.64-8.08c0-5.21-5.47-5.82-11.64-6.6-7.73-.96-16.5-2.17-16.5-11.64,0-8.08,6.34-13.55,16.42-13.55s16.24,5.56,16.42,12.85h-5.73c-.26-4.26-4.17-7.56-10.77-7.56s-10.51,3.3-10.51,7.73c0,5.3,5.56,5.91,11.64,6.69,6.69.87,16.59,1.91,16.59,11.64,0,8.16-6.86,13.81-17.54,13.81s-17.28-5.65-17.54-13.2Z"/>
        <path class="cls-2" d="m693.4,131.97c0-2.52,1.91-4.43,4.43-4.43s4.43,1.91,4.43,4.43-1.91,4.43-4.43,4.43-4.43-1.91-4.43-4.43Zm1.56,12.77h5.82v42.91h-5.82v-42.91Z"/>
        <path class="cls-2" d="m709.12,166.19c0-13.03,9.55-22.58,23.1-22.58s23.1,9.55,23.1,22.58-9.55,22.58-23.1,22.58-23.1-9.55-23.1-22.58Zm40.3,0c0-9.9-6.95-17.2-17.2-17.2s-17.2,7.3-17.2,17.2,6.95,17.2,17.2,17.2,17.2-7.3,17.2-17.2Z"/>
        <path class="cls-2" d="m762.09,165.23c0-14.24,8.51-21.63,21.19-21.63s21.19,7.38,21.19,21.63v22.41h-5.82v-22.41c0-10.6-6.08-16.24-15.37-16.24s-15.37,5.65-15.37,16.24v22.41h-5.82v-22.41Z"/>
        <path class="cls-2" d="m811.51,175.57h5.91c.26,4.6,4.43,7.9,11.64,7.9s11.64-3.47,11.64-8.08c0-5.21-5.47-5.82-11.64-6.6-7.73-.96-16.5-2.17-16.5-11.64,0-8.08,6.34-13.55,16.42-13.55s16.24,5.56,16.42,12.85h-5.73c-.26-4.26-4.17-7.56-10.77-7.56s-10.51,3.3-10.51,7.73c0,5.3,5.56,5.91,11.64,6.69,6.69.87,16.59,1.91,16.59,11.64,0,8.16-6.86,13.81-17.54,13.81s-17.28-5.65-17.54-13.2Z"/>
      </g>
      <g>
        <path class="cls-2" d="m387.24,56.08h13.14v23.56c2.63-3.77,6.31-5.78,10.77-5.78,9.11,0,18.83,6.13,18.83,21.98v22.42h-13.14v-22.42c0-6.83-3.33-9.72-8.23-9.72s-8.23,3.07-8.23,9.72v22.42h-13.14v-62.19Z"/>
        <path class="cls-2" d="m436.82,96.63c0-13.14,9.63-22.77,23.3-22.77s23.3,9.63,23.3,22.77-9.63,22.77-23.3,22.77-23.3-9.63-23.3-22.77Zm33.28,0c0-6.22-4.03-10.51-9.98-10.51s-9.99,4.29-9.99,10.51,4.03,10.51,9.99,10.51,9.98-4.29,9.98-10.51Z"/>
        <path class="cls-2" d="m490.24,97.42v-22.42h13.14v22.42c0,6.83,3.33,9.72,8.23,9.72s8.23-2.89,8.23-9.72v-22.42h13.14v22.42c0,14.54-8.58,21.98-21.37,21.98s-21.37-7.36-21.37-21.98Z"/>
        <path class="cls-2" d="m539.81,105.12h12.96c.09,2.28,1.75,3.42,5.34,3.42,4.03,0,5.34-1.4,5.34-3.24,0-2.89-3.15-3.15-7.18-3.77-5.96-.88-15.77-2.36-15.77-12.79,0-8.76,6.92-14.89,17.69-14.89s17.43,6.22,17.69,14.01h-12.79c-.35-2.01-2.1-3.15-4.73-3.15-3.24,0-4.55,1.66-4.55,3.42,0,2.63,3.15,2.98,7.18,3.59,6.22.88,15.77,2.54,15.77,12.79,0,8.93-7.36,14.89-18.48,14.89s-18.31-5.96-18.48-14.28Z"/>
        <path class="cls-2" d="m581.85,96.63c0-13.14,9.63-22.77,23.3-22.77s23.04,9.63,23.04,22.77v3.68h-32.67c1.05,5.08,4.91,7.36,9.63,7.36,3.77,0,6.57-.79,8.23-3.15h13.58c-2.8,8.93-11.04,14.89-21.81,14.89-13.66,0-23.3-9.63-23.3-22.77Zm32.84-4.64c-1.49-4.47-4.99-6.39-9.55-6.39s-8.06,2.01-9.37,6.39h18.92Z"/>
      </g>
    </g>
  </g>
</svg>