<svg xmlns="http://www.w3.org/2000/svg" viewBox="0 0 520.21 82"><defs><style>.cls-1{fill:#6fa558;}</style></defs><title>5-stars</title><g id="Layer_2" data-name="Layer 2"><g id="Layer_1-2" data-name="Layer 1"><path class="cls-1" d="M16.47,81.93c3.38-10.4,6.75-20.79,10.14-31.24L0,31.34a.18.18,0,0,0,0-.06s0,0,0,0H32.92L43.06,0h.1L53.29,31.23h32.9a.41.41,0,0,1,0,.07s0,0,0,0Q72.92,41,59.61,50.69L69.75,82l-.07,0L43.11,62.68,16.53,82Z"/><path class="cls-1" d="M120.47,81.93c3.38-10.4,6.75-20.79,10.14-31.24L104,31.34a.18.18,0,0,0,0-.06s0,0,0,0h32.88L147.06,0h.1l10.13,31.23h32.9a.41.41,0,0,1,0,.07s0,0,0,0Q176.93,41,163.61,50.69L173.75,82l-.07,0L147.11,62.68,120.53,82Z"/><path class="cls-1" d="M230.47,81.93c3.38-10.4,6.75-20.79,10.14-31.24L214,31.34a.18.18,0,0,0,0-.06l0,0h32.88L257.06,0h.1l10.13,31.23h32.9a.41.41,0,0,1,0,.07s0,0,0,0Q286.93,41,273.61,50.69L283.75,82l-.07,0L257.11,62.68,230.53,82Z"/><path class="cls-1" d="M340.47,81.93c3.38-10.4,6.75-20.79,10.14-31.24L324,31.34a.18.18,0,0,0,0-.06s0,0,0,0h32.88L367.06,0h.1l10.13,31.23h32.9a.41.41,0,0,1,0,.07s0,0,0,0Q396.93,41,383.61,50.69L393.75,82l-.07,0L367.11,62.68,340.53,82Z"/><path class="cls-1" d="M450.47,81.93c3.38-10.4,6.75-20.79,10.14-31.24L434,31.34a.18.18,0,0,0,0-.06s0,0,0,0h32.88L477.06,0h.1l10.13,31.23h32.9a.41.41,0,0,1,0,.07s0,0,0,0Q506.93,41,493.61,50.69L503.75,82l-.07,0L477.11,62.68,450.53,82Z"/></g></g></svg>