<svg xmlns="http://www.w3.org/2000/svg" viewBox="0 0 46.06 29.86"><defs><style>.cls-1{fill:#d39735;}</style></defs><title>arrows</title><g id="Layer_2" data-name="Layer 2"><g id="Layer_1-2" data-name="Layer 1"><path class="cls-1" d="M13.86,29.85c1.13-2,2.16-3.9,3.2-5.75,1.55-2.76,3.07-5.53,4.67-8.26a1.59,1.59,0,0,0,0-1.85c-2.42-4.22-4.79-8.48-7.17-12.73C14.34.9,14.16.52,13.9,0c3.31,0,6.47,0,9.62,0,.32,0,.73.39.91.71q3.86,6.74,7.63,13.51a1.63,1.63,0,0,1,0,1.35q-3.75,6.8-7.63,13.51a1.64,1.64,0,0,1-1.17.7C20.2,29.88,17.16,29.85,13.86,29.85Z"/><path class="cls-1" d="M0,0C3.31,0,6.39,0,9.47,0a1.41,1.41,0,0,1,1,.63q3.9,6.8,7.7,13.64a1.5,1.5,0,0,1,0,1.26q-3.81,6.85-7.71,13.65a1.34,1.34,0,0,1-1,.61c-3.07.05-6.15,0-9.38,0,.25-.5.42-.88.62-1.24,2.39-4.25,4.76-8.52,7.19-12.76a1.62,1.62,0,0,0,0-1.86C5.26,9.42,2.7,4.82,0,0Z"/><path class="cls-1" d="M27.79,0c3.31,0,6.39,0,9.47,0a1.37,1.37,0,0,1,1,.63q3.9,6.8,7.71,13.64a1.54,1.54,0,0,1,0,1.26q-3.81,6.85-7.71,13.65a1.37,1.37,0,0,1-1,.61c-3.07.05-6.15,0-9.38,0,.25-.5.42-.88.62-1.24,2.39-4.25,4.76-8.52,7.18-12.76a1.61,1.61,0,0,0,0-1.86C33.05,9.42,30.49,4.82,27.79,0Z"/></g></g></svg>