<svg xmlns="http://www.w3.org/2000/svg" viewBox="0 0 723 278.36"><defs><style>.cls-1{fill:#fff;}</style></defs><title>cancer-research</title><g id="Layer_2" data-name="Layer 2"><g id="Layer_1-2" data-name="Layer 1"><path class="cls-1" d="M258.48,84.34c.16,1.58.64,3.21.42,4.74A7.13,7.13,0,0,1,252.53,95a6.91,6.91,0,0,1-7.27-4.68c-.67-2-1.69-2.53-3.76-3a49.71,49.71,0,0,1-11.38-3.84c-3.6-1.74-4.11-7.09-1.37-10.19a35.42,35.42,0,0,1,2.59-2.47c-.72-3.14-1.38-6-2-8.79a21.69,21.69,0,0,1-3.3,2.18c-3.46,1.59-4.2,4.09-2,7.36a4.22,4.22,0,0,1-1.09,6.07c-2.1,1.3-4.46.45-5.88-1.79a11,11,0,0,0-2.83-2.43c-2-1.51-4.08-3-6.21-4.51-2.68.67-5.88,1.63-9.15,2.22-1.3.24-2.74-.43-4.13-.51a14.09,14.09,0,0,0-4.31.15c-2.87.77-5.24.17-6.93-2.22a5.91,5.91,0,0,1,.16-7.29c.4-.57,1-1,1.35-1.61,1.26-2.14.34-3.76-2-4.16a52.53,52.53,0,0,1-6-1.73c-.9.81-1.7,1.65.11,3.2,4.75,4.07,5.71,9.76,2.62,14.13-3.58,5-8.83,6-14.83,2.66a7.84,7.84,0,0,0-.88-.33c-1.23,1.67-2.11,4.09-3.75,4.84-4.56,2.06-8.78,4.41-12.05,8.27-.91,1.08-2.12,2-2.62,3.28-1.26,3.17-3.14,5.75-6.41,6.74-2.45.73-2.89,2-2.82,4.35.33,10.87-8.13,19.43-18.83,19a17.8,17.8,0,0,1-15.12-9c-.51-.85-1-1.73-1.78-3.13-2.85,2.88-6.12,4.68-10,3.11a10.7,10.7,0,0,1-4.46-3.32,8.61,8.61,0,0,1,1-11.28c3.25-3.21,7.77-3,13,.56a13.79,13.79,0,0,0,.67-1.24c3.74-9.23,11.59-13.59,21.39-12a10.68,10.68,0,0,0,2.93-.33,11.59,11.59,0,0,0-1.49-2.6c-2.17-2.22-3.2-4.7-1.84-7.64,1.25-2.73,3.37-4.46,6.58-4.42A7.19,7.19,0,0,1,135,73.53c1.34,3.38,2.28,3.71,4.84,1.45a19.36,19.36,0,0,0-1.61-1.15c-4.07-2.41-5.24-6.28-3.32-10.56.38-.86.71-2.38.26-2.88-2.79-3.09-2.47-6.36-.87-9.9-1-.43-1.93-.78-2.8-1.23A10.39,10.39,0,0,1,126,39.63a10,10,0,0,1,7.45-8.89c2.2-.51,4-1.14,5.55-3.07,1.9-2.38,5.27-2.27,7.55-.28a5.89,5.89,0,0,1,.91,7.65,17.89,17.89,0,0,0-1.49,4.5c-.83,3-1.62,6-2.52,9.35,3.34,2.23,4.63,5.57,2.61,10.2-.36.82,1.14,2.72,2.16,3.75.48.48,1.85.08,3.37.08-.7-1.09-1-1.56-1.3-2-2.61-3.85-1.69-7.84,2.17-10.38a5.25,5.25,0,0,0,2.27-3,11.34,11.34,0,0,1,6.66-9,3.78,3.78,0,0,0,2.57-3.57,6.65,6.65,0,0,1,5.32-6.18,6.43,6.43,0,0,1,7,2.41,6.93,6.93,0,0,1,.66,7.92c-.69,1.41-2.4,2.78-.74,4l9-3.06,1.17-6.42c-5.58-3.87-6.07-5.34-4-12a3.74,3.74,0,0,0-.22-2.25c-3.44-9,.05-16.13,9.27-18.91A8.75,8.75,0,0,0,192.2,0h3.61c4.81,1.48,8.76,4,10.51,9,2,5.66.07,12.44-5.36,15.15-3.84,1.9-5.61,4.92-7.55,8.16C199,37.44,196.75,43,189.69,44l1.11,2.63c12.6-4.94,18.55-1.57,22.67,13.35,1.13-1.17,2.36-1.87,2.64-2.84,1.25-4.33,3.2-6.41,6.7-6.62,3.74-.21,6,1.49,7.75,5.77.1.26.31.47,1.16.72,0-1,.41-2.27-.06-2.89-5.32-7-4.68-11.29,2.72-16.08l-1.48-3.74c-2.52,1.81-4.91,2.86-5.36,6.62s-4.31,5.6-7.47,7.17c-2,1-4.66-1.33-4.75-3.75s.29-5-.12-7.41c-.23-1.36-1.65-2.51-2.53-3.75l0,0-.53-1.08-.22-.35-.4-.88-.14-.25a14.73,14.73,0,0,1,.15-10.3,2.46,2.46,0,0,0-.54-2.23,8.87,8.87,0,0,1-.29-13.52c3.91-3.53,9-2.94,13.22,1.52a4.14,4.14,0,0,0,.46.37c5.13-2.25,7.59-2.08,9.19.64s.85,4.82-3.23,8.31c4.85-1.23,8.78-1,10.48,3.92,1.12,3.25-.32,5.7-4.35,8.38l6.91,1.21v0a25.89,25.89,0,0,1-1.26-4.61,8.64,8.64,0,0,1,17.05-2.57c.23,1,.34,2,.5,3l0,0c5.21-3.25,7.95-2.65,11.89,2.38a4.71,4.71,0,0,0,2.5,1.33c5.58,1.43,8,4.38,7.94,10A4.89,4.89,0,0,0,286.46,43c6.73.13,11.18,3.61,12.29,9.59,1,5.57-2.17,10.47-8.38,12.89a3.91,3.91,0,0,0-2,1.21c-2.54,4.46-6.45,5.68-11.38,4.86-.11.86-.25,1.53-.27,2.2-.28,9.34-7.88,14.48-16.57,11.21-.56-.21-1.14-.38-1.71-.57Zm-4.24-15.07.6-1.21.9-1.56-.46-.19c-.14.59-.28,1.18-.41,1.77-.21.4-.41.81-.61,1.21l-.59,1.22L252.43,72l.73.39.48-1.85Zm-92.75-8.4L158.94,63l1.05.9,1.47-3.06.1-.24ZM248.78,40a14.48,14.48,0,0,0-2.65-1,12.41,12.41,0,0,0-2.65.05,7.52,7.52,0,0,0,.51,2.38c1.46,2.4,2.31,4.84,1.58,7.71a2.41,2.41,0,0,0,.79,2c2.9,2.27,5.9,4.42,9.08,6.76.24-.33.9-1.24,1.62-2.21C249.76,52.35,247,48.63,248.78,40ZM270.6,64l1.06-.43c-.17-1.68.23-3.81-.64-5-1.52-2-3.84-3.37-6.11-5.26l-.71.46ZM257.72,29.7l-1.1-.22c-.62,1.46-1.25,2.91-1.88,4.37l.85.53,3.24-.66C258.39,32.13,258.06,30.92,257.72,29.7Z"/><path class="cls-1" d="M723,165.09c-1.6,2.65-4.28,2.47-6.37,1.53-1.12-.5-1.89-2.89-2-4.47-.24-5.41-.15-10.83-.07-16.25,0-2.17-.72-3.06-3-3-7.53.08-15,.07-22.58,0-2,0-2.66.75-2.64,2.67.07,5.82,0,11.65.05,17.47,0,2.73-.88,4.13-3.81,4-3.31-.1-4.28-.78-4.29-4,0-16,0-31.92,0-47.88,0-2.85,1.39-3.89,4.12-3.88s4.06,1,4,3.91c-.11,5.72.06,11.45-.07,17.17,0,2.35.78,3.18,3.13,3.15,7.23-.1,14.46-.13,21.68,0,2.71,0,3.48-1,3.42-3.56-.14-5.21-.06-10.44,0-15.65,0-1.9-.21-4.11,2.21-4.73,2.25-.57,4.63-.8,6.2,1.63Z"/><path class="cls-1" d="M0,91.58c1.31-1.41,2.38-3.3,4-4.13,2.39-1.24,5.36.29,6.49,2.71a5.38,5.38,0,0,1-9.15,5.56A19.76,19.76,0,0,1,0,93.39Z"/><path class="cls-1" d="M191,269.33a18.11,18.11,0,0,1,4.17.08c3.76,1,4.6,5.19,1.88,8.95h-7.23c-1.85-2.93-2-5.74.55-8.38l.12-.13.56-.56Z"/><path class="cls-1" d="M135.56,226.55c-1.79,0-3.66.35-5.37,0-6-1.32-8.46-9.2-4.23-13.65,1.69-1.78,2.83-3.09,1.3-5.49a3.43,3.43,0,0,1-.25-2.63c1.29-3.7-1-5.24-3.61-6.53-1.66,1-3.15,2.36-4.88,2.89a6.63,6.63,0,0,1-7.53-2.44,6.81,6.81,0,0,1-.72-7.65c1.39-2.76,3.85-4.38,6.9-3.77,2.72.55,3.55-.45,4.49-2.75a12.37,12.37,0,0,1,23.7,5.18c0,1.27,0,2.55.49,3.15,2.63,1.36,6,2.13,7.71,4.24a10,10,0,0,0,6.05,4c2.56.64,4.55,3.54,6.91,5.55,2.24-.29,5.79-1.89,7.93-.78,4.61,2.38,9.75,2.16,14.31,4.17a2.59,2.59,0,0,0,2.11-.14c7.55-5,9.68-5.18,18.16-1.49,1.73-3.25,4.89-4.05,8.28-5.26,2.69-.95,6.56-1.16,8.19-4.61a2.3,2.3,0,0,1,1.68-1.15c3.29.05,4.34-2.07,5.59-4.66,1.94-4,5.95-4.77,11.85-2.88l.61.61,1.91,2.15.62-.81-2.55-1.31-.61-.61c-.57-2.09-1.69-4.2-1.6-6.26.14-3.49,3.25-6,6.72-6.11a6.76,6.76,0,0,1,7.25,5.51c.49,2.43,1.43,3.2,3.9,3.33,5.53.28,10.4,4.53,12,9.93.31,1,.59,2.08.92,3.25l2.22-.52c4.67-1,8.52,1.62,9.05,6.34.2,1.75.9,2.15,2.51,2.61a53.82,53.82,0,0,1,10,3.85,6.43,6.43,0,0,1,3,7.57c-1.94,6.65-4.51,12.79-12.48,14.24a2.44,2.44,0,0,0-1.41,1.82c-.76,11.12-8.22,16-17.89,12.07-.77,2.21-.91,5.49-2.46,6.41a84.62,84.62,0,0,0-10.59,7.65,3.68,3.68,0,0,1-2.28.65c-2,0-3.22.52-3.91,2.71a3.5,3.5,0,0,1-5.2,1.87c-2-1.2-3.19-3.46-1.6-5,2.46-2.41,1.64-4.49.73-6.91a2.8,2.8,0,0,0-1-1.6c0,.8,0,1.6,0,2.4a6.32,6.32,0,0,1-3.76,6.33,6.45,6.45,0,0,1-8.86-7.82,4,4,0,0,0-.61-4.4c-1-1.27-1.54-2.88-2.85-4.07.36.85.76,1.69,1.08,2.55a6.41,6.41,0,0,1-2.35,7.73c-2.48,1.69-6,1.88-7.7-.48-2.23-3.14-5.3-3.09-8.38-3.59h0l1.18,9.66,0,0-.53,1.08-.2.27c-4,6.22-8.41,7.73-15.39,5.53-.88-.27-2.12.63-3.2,1l.05,0-.56.56-.12.13a15.6,15.6,0,0,1-4.14.41,4.83,4.83,0,0,1-4.2-4.5,5.07,5.07,0,0,1,3.45-5.71c1.84-.67,2.31-1.7,2.47-3.52.14-1.63,1-3.19,1.53-4.79.31-1,.56-1.93.79-2.75-3,.43-5.58.75-8.18,1.19-1.62.28-3.42,5.15-2.67,7,2.63,6.49-.24,13.13-6.67,15.45a11.41,11.41,0,0,1-14-5.76,11.26,11.26,0,0,1,4.36-14.69c1.94-1.12,3.24-2.16,3.46-4.66a5.36,5.36,0,0,1,4.55-5c3.68-.44,4.48-2.66,4.73-6-4.39-1.38-6.6-4.43-6.16-9.22a1.75,1.75,0,0,0-.63-1.26c-1.71-1.37-3.46-2.7-5.26-3.95-.38-.26-1.06-.1-2.15-.18,3.15,5.51,3.29,10.63-.78,16a15.6,15.6,0,0,1,2.46,1.75,7.22,7.22,0,0,1,.85,8.4,6.91,6.91,0,0,1-7.16,3.33c-2.83-.57-5.85-3.2-5.59-5.89.32-3.45-1.3-4.56-4.09-5.16a12.2,12.2,0,0,1-1.86-.76c-.28,1.25-.5,2.3-.74,3.35a11.25,11.25,0,0,1-11.56,9,11.39,11.39,0,0,1-10.91-9.83c-.78-5.35,2.34-10.26,7.52-12.36a43.71,43.71,0,0,0,5.76-3.4l1.22-.6c1.58-.37,4-.21,4.61-1.19a14.57,14.57,0,0,1,9.41-6.81v-7.84l-9.37-1.65-2.77,3.47c3.59,6.4,3.2,9.24-1.87,14Zm98.81-21.71.38-.65-.37.66Zm-16.26,18.07,0,0c-.93-4.88-.93-4.88-3.84-4.4C213.82,222.41,213.9,222.5,218.11,222.91Zm46.38.63,0,0c3.69,4.25,2.52,3,7.8,1.08,1-.37,1.07-3.32,1.57-5.08l-.82-.34A8.37,8.37,0,0,1,264.49,223.54Zm-31.32-16.87a31.76,31.76,0,0,0-6,.7,7.73,7.73,0,0,0-3.34,2.7c-.25.3.44,2,1.06,2.27a58.29,58.29,0,0,0,5.85,2.25l2.47-7.94Zm28.92,15.64.22.12-.24-.09c-1-2-2-4.06-3-6.07-.36-.71-.82-1.37-1.24-2.05a7,7,0,0,0-1.15,1.84,13.81,13.81,0,0,1-8.13,9.81c-.75.34-1.26,1.64-1.47,2.6-.43,1.91,0,4.19-.94,5.77-1.49,2.62-.42,4,1.24,5.55L252,237c-.32-.86-.66-1.67-1-2.5-1.59-4.58.3-9.73,4.57-11.37C257.58,222.36,259.92,222.55,262.09,222.31Zm-68.5,18.76a8.15,8.15,0,0,1,2.31-.69c2.34,0,3.2-1.13,2.91-3.39-.08-.67.42-1.47.22-2.06-.29-.84-.82-2-1.51-2.23a16.61,16.61,0,0,1-8.26-5.7,3.25,3.25,0,0,0-2.66-1c-.76.15-2,1.47-1.88,1.87.58,1.67-1.94,4.12,1.29,5.11a7.22,7.22,0,0,1,3.37,1.82A65.06,65.06,0,0,1,193.59,241.07Zm38.72-21.81c-.78,4.55-3,7.23-7.06,7.66l4.23,9.78.91.18c-.73-5.47-2.35-11.2,3.79-14.4Zm31.88,24.15c-1.48-4.07-1.56-4.1-5.85-2.45.15.91.31,1.85.46,2.77Zm10.07-27.5,1.1-2.74-4.7-4.18-.35.35Z"/><path class="cls-1" d="M100.94,155.21l2.66-2.81c-5.11,0-8-1.67-9-5.11-1.1-3.64.19-6.33,4.52-9.39-6.26-3.24-8.88-7.19-8.09-12.17a10.65,10.65,0,0,1,8.62-8.92c5.57-.86,9,1.37,12.3,7.49,3-.92,5.82-2.39,8.69-2.5,5.21-.2,8.82,5,8,10.15a11.35,11.35,0,0,0,.54,5.35c1.28,3.76.07,6.63-2.81,9.22,4.76,4.09,6.57,8.9,4.64,14.89-.18.57.52,1.6,1.06,2.18,2.5,2.72,3.24,5.9,1.93,8.81a7.5,7.5,0,0,1-7.12,4.13c-3.08-.14-5.51-2.1-6.65-5.62-.59-1.82-1.19-2.95-3.36-1.78-7.4,4-11.38,3.11-16.42-3.67-.11-.15-.32-.22-.79-.54-2.4,2.52-5.5,4.06-9,2.94a11.47,11.47,0,0,1-5.09-3.43c-2.77-3.36-2-8.53,1.19-11.44C90.67,149.39,94.73,150,100.94,155.21Zm4.5-4,3.8-1.15-1-1.85-2.81,3Zm10.85-9.66,0,0c1.12-4.73-4.68-5.22-4.9-8.75l-7.1,5.11,4.09,4.5Z"/><path class="cls-1" d="M492.78,77.29c-.17-2.64-.41-4.7-.42-6.76,0-10.23-.08-20.47,0-30.7,0-3.72.87-4.47,4.1-4.49,3.4,0,4.25.76,4.27,4.27,0,9.74,0,19.47,0,29.2,0,5.72,0,11.44,0,17.16,0,1.9.23,4.1-2.19,4.73-2.59.66-5.23.79-7.06-1.82-3.56-5.1-7.14-10.19-10.66-15.32-5.51-8-11-16-16.6-24.27-.05.81-.14,1.61-.14,2.41,0,11.64,0,23.28,0,34.92,0,3.61-1.28,4.68-4.75,4.37-2.76-.25-3.38-1.94-3.37-4.36,0-14.15,0-28.3,0-42.45,0-1.3-.05-2.61,0-3.91.08-1.84-.48-4.25,2.07-4.71s5.46-1,7.37,1.86,3.77,5.44,5.64,8.17Z"/><path class="cls-1" d="M380.21,143.18l9,16.61a10.64,10.64,0,0,1,.87,1.58c.56,1.72,3,3.41.49,5.25-1.94,1.45-6.56.32-7.77-1.85-3-5.43-6-10.89-8.82-16.45a4.91,4.91,0,0,0-5.14-3.14c-9.23.27-7.73-1.21-7.87,7.77-.05,3.31.05,6.63,0,9.94s-1,4.14-4.15,4.15-4.16-.75-4.22-4.08c-.12-7.63-.07-15.26-.07-22.89,0-7.94,0-15.87,0-23.8,0-4.11.84-4.89,5-4.9,4.92,0,9.84,0,14.76,0,8.88.1,14.67,3.87,16.58,11.15,2,7.77-.35,16.2-7.83,19.92A4.39,4.39,0,0,0,380.21,143.18ZM361,128.07c0,2.21.1,4.42,0,6.62s.63,3.34,3.07,3.2,5,0,7.52,0c6.93-.15,11.18-5.83,9.43-12.56-1.21-4.65-4.32-6.49-11.06-6.54-8.93,0-8.93,0-8.93,8.73Z"/><path class="cls-1" d="M604.65,143.05c2.77,5.12,5.49,10.12,8.19,15.14,1,1.85,2,3.68,2.92,5.6s.07,2.86-1.86,3.2c-3.79.67-5.57-.14-7.39-3.54-2.76-5.12-5.56-10.23-8.19-15.42a4.61,4.61,0,0,0-4.71-2.85c-8.4,0-8.4-.06-8.4,8.4,0,3.41,0,6.82,0,10.23,0,2.3-1.16,3.24-3.37,3.24s-4.37,0-4.66-3a24,24,0,0,1-.07-2.4q0-22.59,0-45.17c0-4.61.56-5.21,5.22-5.15,6.22.07,12.47-.16,18.63.5,7.17.76,11.51,5.37,12.88,12.38,1.32,6.79-1.56,13.92-7,17.38Zm-19.43-15c0,2.51,0,5,0,7.52,0,1.67.71,2.34,2.35,2.31,3-.05,6,.06,9,0,5.69-.19,9-3.84,9-9.81s-3-9-9-9.23c-.6,0-1.2,0-1.8,0C585.22,118.66,585.22,118.66,585.22,128Z"/><path class="cls-1" d="M635.75,66.88l9.56,17.69c.52,1,1.08,1.93,1.52,2.94.76,1.77.15,2.89-1.72,3.37-3.26.83-5.65-.2-7.26-3.19-3-5.47-5.94-10.92-8.78-16.46a4,4,0,0,0-4-2.42c-8.62-.08-8.61-.13-8.62,8.43,0,3.31,0,6.62,0,9.93,0,2.92-1.6,3.83-4.2,3.85s-3.93-1-3.93-3.74q.06-24.23,0-48.46c0-2.63,1.27-3.53,3.73-3.5,6,.08,12,0,18.06.11,7.09.16,12.38,4.21,14.34,10.75,2.12,7-.39,15.07-5.89,18.86C637.75,65.6,636.9,66.13,635.75,66.88Zm-12-5.53a45,45,0,0,0,5.69,0c4.38-.54,7.2-4.25,7.27-9.25s-2.26-8.5-6.8-9.12c-3.55-.49-7.18-.37-10.76-.61-2.15-.15-2.82.82-2.76,2.84.1,3,0,6,0,9C616.57,62.52,615.27,61.41,623.79,61.35Z"/><path class="cls-1" d="M566.2,167c-2.23.3-3.66-.91-4.45-3.22-1.13-3.33-2.45-6.59-3.51-9.94-.62-2-1.73-2.66-3.75-2.61-4.92.1-9.84.11-14.76,0-2.15,0-3.3.69-3.94,2.78-1,3.35-2.27,6.65-3.52,9.93-1.07,2.83-4.7,4.32-7.09,2.63-.79-.56-1.13-2.7-.75-3.81,2.77-8.18,5.76-16.28,8.69-24.4,2.8-7.74,5.71-15.44,8.36-23.23,1-3,2.88-3.9,5.88-3.87s4.37,1.15,5.32,3.81c5.64,15.79,11.39,31.53,17.09,47.3C571,165.9,570.19,167,566.2,167Zm-11.33-22.9c-2.61-7.72-5.1-15-7.82-23.06-2.73,8-5.24,15.4-7.85,23.06Z"/><path class="cls-1" d="M425.72,74.77c-3.2.14-7.16-.82-9.38.73s-2.63,5.57-3.8,8.53c-.56,1.4-.75,3.06-1.64,4.18a7.06,7.06,0,0,1-3.84,2.68c-3.78.58-5-1.12-3.69-4.75,5.7-15.86,11.49-31.69,17.15-47.57,1-2.88,3-3.24,5.64-3.3,2.83-.05,4.42,1,5.39,3.68,5.56,15.59,11.25,31.14,16.86,46.71.66,1.82,1.89,3.92-1,5.07a4.88,4.88,0,0,1-6.55-2.52c-1.38-3.45-2.66-6.94-3.76-10.48-.68-2.21-1.91-3-4.18-2.87s-4.81,0-7.22,0Zm.22-29.88c-2.65,7.77-5.15,15.08-7.78,22.81h15.51C431.05,60,428.57,52.67,425.94,44.89Z"/><path class="cls-1" d="M485,139.13c0-7.73,0-15.46,0-23.19,0-3.79.84-4.56,4.65-4.57q11.6,0,23.19,0c3.79,0,4.85.85,4.82,3.72s-1.14,3.62-5,3.64c-5.32,0-10.64.1-16,0-2.5-.06-3.42.87-3.32,3.34.13,3.41.12,6.83,0,10.24-.08,2.3.74,3.25,3.13,3.18,4.21-.14,8.43,0,12.65-.06,2.4,0,3.88.8,4,3.37s-1.27,3.91-3.81,3.95c-4.32.05-8.64.1-13,0-2.21,0-3.06.88-3,3.05.09,3.41.14,6.83,0,10.24-.13,2.7.81,3.76,3.62,3.69,5.91-.14,11.84-.11,17.76,0,3.46.08,4.71,1.4,4,4.39-.26,1.11-1.8,2.71-2.79,2.73-9.33.21-18.66.18-28,.09-2.77,0-3-2.27-3-4.35C485,154.79,485,147,485,139.13Z"/><path class="cls-1" d="M417.17,167c-4.31,0-8.63-.06-12.94,0-2.69.06-3.78-1.1-3.77-3.79q.07-24.09,0-48.17c0-2.76,1.27-3.76,3.86-3.75q12.35.06,24.69,0c2.39,0,3.78.83,3.81,3.49s-1.2,3.88-3.81,3.88c-5.72,0-11.44.1-17.16,0-2.49-.06-3.41.81-3.29,3.31.15,3.4.16,6.83,0,10.23-.13,2.57.93,3.3,3.35,3.22,4.21-.14,8.43,0,12.64-.05,2.4,0,3.85.87,3.9,3.46s-1.34,3.86-3.89,3.87c-4.31,0-8.63.09-12.95,0-2.15-.05-3.1.71-3,3,.11,3.71.12,7.43,0,11.14-.08,2.36,1.1,2.88,3.14,2.86,6-.06,12.05-.15,18.07.09a5.73,5.73,0,0,1,4.13,2.1c1.51,2.53-.21,5.06-3.19,5.11C426.21,167.1,421.69,167,417.17,167Z"/><path class="cls-1" d="M357.85,62.58c0,8.21,2.85,15.1,10.28,19.11,7.77,4.19,15.51,3.06,22.82-1.59,3.75-2.38,5-2.33,6.74.44,1.07,1.72.94,3.26-.7,4.51-9.47,7.24-20,8.87-30.92,4.44-10.47-4.23-15.87-12.8-16.64-23.84-1.1-15.51,6.94-27,20.7-30.45A31.12,31.12,0,0,1,394.43,39c2.14,1.28,3.43,2.77,1.81,5.37s-2.71,2.91-5.7,1.25c-8.36-4.64-16.82-5.47-25,.17C359.86,49.74,357.81,55.77,357.85,62.58Z"/><path class="cls-1" d="M650.08,160.23c5,.21,9.66-1.61,13.9-4.73,2.13-1.56,3.74-1.35,5.32.83s1.27,3.69-.71,5.15c-9.69,7.09-20.22,8.81-31.24,3.9s-16.06-14.25-16.2-26S626,118.23,637,113.18c9.88-4.53,19.75-3.55,29.12,1.91,3,1.76,3.35,3.08,1.84,5.57s-2.68,2.84-5.7,1a23.7,23.7,0,0,0-16.78-3.22c-11.33,2.06-18,13.15-15.44,25.23C632.29,154.07,639.59,160.22,650.08,160.23Z"/><path class="cls-1" d="M518.11,62.73c0,8.24,3,15,10.38,19s14.92,2.94,22.06-1.24c.69-.41,1.35-.86,2-1.33,2.06-1.51,3.68-1,5.09,1s1.3,3.67-.74,5.16c-9.82,7.19-20.54,8.7-31.54,3.71-10.61-4.8-15.46-13.87-15.78-25.35-.32-11.12,3.84-20.13,13.71-25.64,10.43-5.82,21-4.94,31.25.86,2.11,1.19,3.62,2.63,2,5.31s-2.78,3.11-5.9,1.29a24.19,24.19,0,0,0-18-3C523.58,44.59,518.11,52.29,518.11,62.73Z"/><path class="cls-1" d="M566.81,63c0-7.82,0-15.65,0-23.47,0-3.68.52-4.18,4.2-4.2q12,0,24.07,0c3.25,0,4.38,1,4.29,3.61-.09,2.79-1.79,3.44-4.25,3.4-5.72-.08-11.44.07-17.15-.06-2.4-.06-3.19.8-3.1,3.14.15,3.5.15,7,0,10.53-.11,2.41.89,3.17,3.18,3.1,4-.11,8-.06,12,0,3.57,0,4.64.94,4.66,3.66s-1,3.65-4.55,3.68c-4.22,0-8.43.06-12.64,0-1.92,0-2.72.66-2.68,2.62q.14,6,0,12c0,2,.83,2.62,2.71,2.6,6.22-.06,12.44,0,18.66,0,2.55,0,4.37.62,4.43,3.58,0,2.69-1.17,3.8-4.54,3.82q-12.49.06-25,0c-3.6,0-4.35-.86-4.36-4.52C566.79,78.66,566.81,70.83,566.81,63Z"/><path class="cls-1" d="M475.56,151.71c0,9.8-7.31,16.53-17.66,16.37a27.17,27.17,0,0,1-15-4.66c-2.86-1.95-3.21-3.2-1.64-5.66,1.77-2.75,3-3,5.93-1.08a18.64,18.64,0,0,0,12.19,3.47c4-.35,6.81-2.34,7.73-5.62s-.39-6.43-4-8.57c-3.09-1.84-6.48-3.18-9.64-4.9a43.38,43.38,0,0,1-7.9-4.86,14.12,14.12,0,0,1,1.4-22.15c6.8-4.8,18.52-4.64,25.34.21,2.28,1.62,2.08,3.3.9,5.42-1.28,2.29-2.86,2.47-5,1.27-4-2.27-8.3-3.52-13-2.26-3,.82-5.24,2.53-5.89,5.75a6.49,6.49,0,0,0,3.36,7.15c3.25,1.95,6.81,3.39,10.19,5.12a56.6,56.6,0,0,1,6.81,3.82C473.58,143.29,475.81,147.07,475.56,151.71Z"/><path class="cls-1" d="M112.68,30.12c3.65,4.88,3.82,7,.95,14.08,5.8.72,10.62,2.9,12.48,9a11.16,11.16,0,0,1-.94,8.74,11.69,11.69,0,0,1-15.76,4.95c-6.7-3.46-8-10.19-3.37-19C101.53,47.82,97.91,46,96,42.08a11.06,11.06,0,0,1-1-6.07c.88-6.19,5.12-8.85,13.61-8.89-.11-.78-.25-1.53-.32-2.29a5.93,5.93,0,0,1,5.14-6.65,6.21,6.21,0,0,1,6.45,4.74,6,6,0,0,1-4.47,6.85,18.24,18.24,0,0,1-2.67.36Z"/><path class="cls-1" d="M358.58,207.39c0,5.32-.06,10.63,0,16,.13,8.89,5.77,14,15.22,14,9.28,0,15.15-5.33,15.25-14.11.11-10.64,0-21.27.05-31.9a6.28,6.28,0,0,1,.48-3.2,3.56,3.56,0,0,1,2.7-1.31,4.75,4.75,0,0,1,2.52,1.63,2.66,2.66,0,0,1,.35,1.73c-.1,11.83.12,23.67-.47,35.48-.49,9.71-8.39,16.8-18.13,17.21a33.52,33.52,0,0,1-8.08-.37c-9.91-2-15.85-9.15-16-19.37-.2-10.83,0-21.67-.06-32.5,0-2.1.39-3.89,3-3.92,2.83,0,3.16,1.89,3.15,4.09,0,5.51,0,11,0,16.55Z"/><path class="cls-1" d="M407.8,214.39q0-11.74,0-23.48c0-2.14.18-4.17,3-4.16s3,2.14,3,4.22c0,5.42.12,10.84,0,16.25-.06,2.56.74,3.4,3.4,3.57,3.87.26,6.24-.89,8.15-4.43,3-5.64,6.67-11,10.09-16.4.58-.92,1.18-2.21,2-2.49,1.4-.45,3-.21,4.55-.27-.16,1.24.06,2.71-.53,3.68q-6,9.88-12.38,19.59a4.19,4.19,0,0,0-.06,5.17c4.58,7.31,9,14.71,13.42,22.13.73,1.22,2.62,2.78.44,4a4,4,0,0,1-5.4-1.1,26.58,26.58,0,0,1-1.61-2.54q-6-9.93-11.93-19.86c-1.28-2.13-7.48-3.63-9.29-2.11a4,4,0,0,0-.81,2.71c-.07,5.82,0,11.64,0,17.46,0,.9,0,1.8-.06,2.7-.13,2-1,3.25-3.19,3.15-2-.08-2.81-1.29-2.83-3.16,0-1.71,0-3.41,0-5.12Q407.79,224.17,407.8,214.39Z"/><path class="cls-1" d="M117,217.3a14.49,14.49,0,0,1-11,14.23,21.21,21.21,0,0,0-5.16,2.16c-2.61,1.51-5.13,1.69-7.61,0A7,7,0,0,1,90,226.71a11.72,11.72,0,0,0-.42-4.37c-2.11-7.24.81-14.12,7.62-17.3,1.51-.71,2.27-1.37,2.34-3.24.1-2.41,1.84-3.79,4.3-3.63a3.74,3.74,0,0,1,3.79,4.19c-.13,1.8.64,2.42,1.94,3.19C114.2,208.28,116.77,212.34,117,217.3Z"/><path class="cls-1" d="M91,204.23a10,10,0,0,1-8.72,9.65c-1.77.25-2.53.79-3,2.59-1.24,5-5,7.62-9.66,7.16a9,9,0,0,1-8.06-8.08c-.42-4.43,2.44-8.35,7.4-9.52,2-.47,1.84-1.67,2-3.06a10.11,10.11,0,0,1,10.61-9A10.23,10.23,0,0,1,91,204.23Z"/><path class="cls-1" d="M91,170.91a12.41,12.41,0,0,1,12.62,12.56A12.92,12.92,0,0,1,91,195.85a12.53,12.53,0,0,1-12.34-12.58A12.19,12.19,0,0,1,91,170.91Z"/><path class="cls-1" d="M84.68,74.35c.53-6.59,3.63-10.3,9-11a9.93,9.93,0,0,1,6.49,18.1c-4.36,3-8.74,2.15-14.3-3-1,4.23-3.3,7.18-8,7.08a7.16,7.16,0,0,1-3.36-13.22C77.75,70.26,80.42,70.76,84.68,74.35Z"/><path class="cls-1" d="M78.32,45.18a25.69,25.69,0,0,1,3.22-.7,6.73,6.73,0,0,1,7.57,6.38,7.11,7.11,0,0,1-6.88,7,6.8,6.8,0,0,1-6.55-7.16c0-.78.13-1.57.23-2.66-.81.32-1.41.57-2,.8A9.35,9.35,0,0,1,63.66,33.63,9.34,9.34,0,0,1,79,43.53c-.2.57-.47,1.11-.71,1.66Z"/><path class="cls-1" d="M179.61,12.55a11.51,11.51,0,0,1-23,.33,11.51,11.51,0,1,1,23-.33Z"/><path class="cls-1" d="M55.37,136.52a9.17,9.17,0,0,1,9.45-9.44,9.72,9.72,0,0,1,9.8,9.66c0,5.07-4.83,9.72-10,9.61A9.68,9.68,0,0,1,55.37,136.52Z"/><path class="cls-1" d="M66.26,124a9.61,9.61,0,1,1,9.63-9.62A10,10,0,0,1,66.26,124Z"/><path class="cls-1" d="M210.26,261.5c3.83-4.14,7.12-5.19,11.11-3.55a8.82,8.82,0,1,1-12.12,6.93c.1-.69.21-1.38.31-2.08a2.56,2.56,0,0,0,.2-.26l.53-1.08Z"/><path class="cls-1" d="M50.18,177.84a8.78,8.78,0,0,1-.1-17.55,9.1,9.1,0,0,1,8.83,8.91A8.89,8.89,0,0,1,50.18,177.84Z"/><path class="cls-1" d="M50.33,78.27a7.19,7.19,0,0,1,7.57,7.57,7.59,7.59,0,1,1-15.18,0A7.18,7.18,0,0,1,50.33,78.27Z"/><path class="cls-1" d="M148.27,13.09a7.14,7.14,0,0,1-7.39,7.41,7.65,7.65,0,0,1-7.69-7.61,7.75,7.75,0,0,1,7.87-7.47A7.4,7.4,0,0,1,148.27,13.09Z"/><path class="cls-1" d="M212.67,33.13c0,5.68-2.27,9-6.54,9.6a7.48,7.48,0,0,1-6.27-12.82,7.18,7.18,0,0,1,8.84-1.18c1,.54,1.81,1.25,2.71,1.88l.14.25.4.88.22.35.53,1.08Z"/><path class="cls-1" d="M140.7,256.56a7.73,7.73,0,0,1,7.57,7.75,7.6,7.6,0,0,1-15.19-.07A7.68,7.68,0,0,1,140.7,256.56Z"/><path class="cls-1" d="M34.24,234.29a7.47,7.47,0,0,1,7.16-7.11,7.25,7.25,0,1,1,0,14.5A7.26,7.26,0,0,1,34.24,234.29Z"/><path class="cls-1" d="M124.71,260.72a7.55,7.55,0,0,1-7.3,7.28,7.43,7.43,0,0,1-7.21-7.36,7.31,7.31,0,0,1,7.11-7.08A7.47,7.47,0,0,1,124.71,260.72Z"/><path class="cls-1" d="M33.77,120a7.49,7.49,0,0,1-7.47,7.12,7.26,7.26,0,0,1,.27-14.52A7.5,7.5,0,0,1,33.77,120Z"/><path class="cls-1" d="M59.7,198.34a7.47,7.47,0,0,1-7.48,7.14A7.25,7.25,0,1,1,52.73,191,7.48,7.48,0,0,1,59.7,198.34Z"/><path class="cls-1" d="M82.41,135.08a7.15,7.15,0,0,1-7.22-7.28,7.2,7.2,0,1,1,7.22,7.28Z"/><path class="cls-1" d="M73.44,155.4a6.86,6.86,0,0,1,7,7,7.06,7.06,0,0,1-14.12,0A6.85,6.85,0,0,1,73.44,155.4Z"/><path class="cls-1" d="M40.73,50.46a6.86,6.86,0,0,1,6.93,6.82,7,7,0,1,1-14-.11A6.85,6.85,0,0,1,40.73,50.46Z"/><path class="cls-1" d="M75.44,240.65A5.24,5.24,0,0,1,65,241a5.24,5.24,0,1,1,10.48-.3Z"/><path class="cls-1" d="M8,186.76a5.14,5.14,0,1,1,0,10.28,5.14,5.14,0,0,1,0-10.28Z"/><path class="cls-1" d="M121.75,179.4a5.26,5.26,0,0,1-5,5,5.13,5.13,0,1,1,5-5Z"/><path class="cls-1" d="M33.43,153.75a4.94,4.94,0,0,1-9.88-.05,5,5,0,0,1,5-5A5,5,0,0,1,33.43,153.75Z"/><path class="cls-1" d="M104.69,10.86a4.16,4.16,0,0,1-8.32,0,4.16,4.16,0,0,1,8.32,0Z"/><path class="cls-1" d="M113.94,73.4A4.21,4.21,0,0,1,118,77.72a4.06,4.06,0,0,1-4.26,3.75,4,4,0,1,1,.2-8.07Z"/><path class="cls-1" d="M45.77,118.12a3.58,3.58,0,0,1,3.82-3.67,3.65,3.65,0,0,1,3.88,3.7c0,2-1.93,4-3.84,3.88A3.82,3.82,0,0,1,45.77,118.12Z"/><path class="cls-1" d="M35,27.33c-.11,2.47-1.45,3.82-3.73,3.88s-3.64-1.48-3.9-3.69c-.24-2,1.9-4.07,4-4C33.72,23.67,34.84,25.11,35,27.33Z"/></g></g></svg>