<svg xmlns="http://www.w3.org/2000/svg" viewBox="0 0 203.25 215.54"><defs><style>.cls-1{fill:red;}</style></defs><title>checkbox</title><g id="Layer_2" data-name="Layer 2"><g id="Layer_1-2" data-name="Layer 1"><path class="cls-1" d="M130.62,63.51A327.09,327.09,0,0,0,89.8,123.78c-1.54,2.87-3.06,5.75-4.66,8.75-3.39-5.33-6.46-10.59-10-15.56s-8.27-9-13.25-12.84c-.49.7-.88,1.23-1.24,1.77L44.52,130.1c-.36.53-.81,1-1.21,1.49V132h.17a13.15,13.15,0,0,1,7.14,2.56,34.74,34.74,0,0,1,10.51,10.91c5.69,9,11.11,18.25,16.6,27.42,2,3.37,3.92,6.8,5.87,10.2H84a6.14,6.14,0,0,1,.28-1.16c5.65-12.54,11.14-25.16,17-37.6a530.74,530.74,0,0,1,37.9-68.18c15.32-23,33.27-43.92,52.36-63.86Q197.36,6.11,203.25,0C193.53,7,184,14.23,174.61,21.69A329.5,329.5,0,0,0,130.62,63.51Z"/><path d="M147.46,81.64q-8.29,12.48-16.13,26.2v87.7H20V84.22h82.07q7.19-10.47,14.92-20H0V215.54H151.33V76Q149.35,78.79,147.46,81.64Z"/></g></g></svg>