<?xml version="1.0" encoding="UTF-8"?>
<svg id="Layer_2" data-name="Layer 2" xmlns="http://www.w3.org/2000/svg" viewBox="0 0 347.95 347.97">
  <defs>
    <style>
      .cls-1 {
        fill: #00c967;
      }

      .cls-2 {
        fill: #fffeff;
      }
    </style>
  </defs>
  <g id="Layer_2-2" data-name="Layer 2">
    <g id="KuqWYX">
      <g>
        <path class="cls-1" d="m163.48.02h17.25c.38.8,1.11.82,1.86.92,1.16.15,2.29-.19,3.42-.11,2.98.22,5.99.18,8.95.77,2.02.4,4.14.17,6.14.59,3.72.78,7.48,1.34,11.15,2.47,1.87.57,3.9.86,5.85,1.2,2.07.36,3.94,1.18,5.92,1.72,3.66.99,7.29,2.12,10.82,3.51,2.97,1.17,5.94,2.35,8.89,3.58,1.81.76,3.62,1.54,5.37,2.43,2.53,1.28,5.18,2.32,7.59,3.85,3.97,2.53,8.18,4.65,12.16,7.2,3.77,2.42,7.31,5.12,10.89,7.78,1.81,1.34,3.52,2.8,5.26,4.22,1.62,1.32,3.26,2.61,4.82,4,3.67,3.26,7,6.86,10.46,10.32,1.99,1.99,4.04,3.93,5.8,6.13,1.37,1.71,2.75,3.41,4.02,5.18,1.54,2.15,3.47,3.98,4.97,6.14,4.13,5.94,8.11,11.98,11.59,18.33,2.13,3.9,4.15,7.85,5.88,11.94,1.46,3.45,3.02,6.84,4.4,10.33,1.91,4.82,2.98,9.91,4.97,14.68-.31,1.99,1.19,3.57,1.24,5.5.02.62-.01,1.28.24,1.94.68,1.82,1.28,3.63,1.4,5.64.17,2.88,1.4,5.61,1.35,8.55-.03,1.74.85,3.34.85,5.11,0,1.66.14,3.32.25,4.98.03.46-.04,1.07.72,1.08v27.5c-.64.44-.64,1.12-.65,1.79-.02.96-.09,1.92-.04,2.87.03.6-.71.92-.5,1.47.43,1.1.07,2.11-.17,3.15-.22.92-.61,1.85-.6,2.77.03,4.02-1.31,7.82-1.79,11.75-.17,1.38-.83,2.57-1.1,3.91-.67,3.4-1.51,6.78-2.65,10.07-.23.66-.51,1.25-.64,1.97-.58,3.33-2.21,6.32-3.22,9.53-.62,1.97-1.9,3.7-2.52,5.71-.95,3.05-2.63,5.75-4.23,8.49-.06.11-.33.1-.17.32.48.67-.07,1.16-.31,1.69-.68,1.47-1.84,2.71-2.44,4.14-1.5,3.56-3.83,6.61-5.64,9.97-2.4,4.44-5.6,8.39-8.59,12.46-1.02,1.39-2.49,2.39-3.33,3.84-1.61,2.81-3.92,5.06-5.94,7.52-2.44,2.98-5.43,5.51-8.18,8.24-2.88,2.86-5.8,5.67-9,8.18-2.37,1.85-4.67,3.8-7.09,5.57-1.87,1.37-3.54,2.97-5.55,4.21-1.9,1.17-3.67,2.69-5.67,3.62-4.04,1.89-7.49,4.73-11.58,6.59-2.52,1.15-4.9,2.79-7.51,3.88-4.22,1.76-8.22,3.99-12.59,5.47-2.74.92-5.4,2.12-8.14,3.1-2.32.83-4.73,1.32-7.06,2.12-3.66,1.24-7.47,2.15-11.29,2.75-2.7.43-5.3,1.32-8.07,1.44-3.01.13-5.96,1.04-9.01.93-1.03-.04-2.05.04-3.07.24-.95.18-.08.5-.14.74h-30c.36-.65.06-.8-.56-.8-3.7,0-7.36-.33-11.02-.94-3.57-.6-7.19-.99-10.73-1.78-2.69-.6-5.39-1.13-8.01-2-.43-.14-.84-.45-1.26-.46-2.91-.05-5.38-1.6-8.07-2.37-3.52-1.01-7.03-2.12-10.38-3.65-1.28-.58-2.7-.81-3.89-1.62-2.05-1.39-4.57-1.76-6.65-3.25-1.04-.74-2.5-1.22-3.78-1.79-4.27-1.9-8.2-4.43-12.21-6.78-3.45-2.02-6.66-4.43-9.97-6.67-3.72-2.52-7.2-5.35-10.67-8.17-4.05-3.29-7.78-6.95-11.59-10.5-1.47-1.37-2.58-3.04-3.99-4.44-1.92-1.91-3.86-3.82-5.5-5.97-4.49-5.88-9.26-11.54-13.09-17.93-2.16-3.6-4.36-7.17-6.47-10.8-3.11-5.36-5.89-10.87-8.11-16.66-1.15-3.01-2.77-5.88-3.63-8.97-.85-3.08-1.92-6.08-2.78-9.16-1.36-4.9-2.66-9.82-3.73-14.78-.86-3.99-1.27-8.07-1.87-12.11-.2-1.39-.43-2.78-.51-4.18-.14-2.74-.19-5.49-.26-8.23-.01-.58-.12-1.06-.76-1.22v-18c.23-.09.7.71.73-.19,0-.33,0-.67,0-1,.09-3.23.11-6.47.55-9.68.18-1.35.7-2.69.65-4.01-.11-2.82.93-5.43,1.21-8.18.23-2.26.99-4.43,1.42-6.67.23-1.2.14-2.54.79-3.6.52-.84.66-1.66.65-2.59,0-.37,0-.8.17-1.09,1.02-1.69,1.15-3.66,1.81-5.47,1.32-3.58,2.38-7.26,3.75-10.82,1.36-3.51,2.79-7.01,4.57-10.35.25-.47.45-.98.62-1.49.66-1.93,1.57-3.77,2.67-5.46,1.61-2.48,2.78-5.2,4.26-7.75,1.77-3.05,3.64-6.06,5.62-8.94,2.51-3.66,5.01-7.35,7.93-10.75,1.87-2.17,3.53-4.56,5.43-6.71,3.7-4.16,7.59-8.14,11.64-11.97,2.35-2.23,4.56-4.61,7.2-6.53,1.69-1.23,3.29-2.6,4.92-3.9,1.6-1.28,3.16-2.64,4.81-3.85,2.88-2.1,5.9-4.01,8.87-5.96,2.17-1.43,4.48-2.66,6.68-4.03,3.21-2,6.46-3.91,9.85-5.54,5.01-2.4,10.16-4.52,15.25-6.76.23-.1.46-.19.7-.26,5.29-1.7,10.55-3.48,15.88-5.03.81-.23,1.62-.05,2.42-.36,3.33-1.29,6.85-1.93,10.35-2.51,3.26-.54,6.55-1.01,9.82-1.47,4.49-.62,8.96-1.01,13.47-1.06.37,0,.82.13,1.04-.38-.75-.43-1.6.07-2.29-.4ZM50.97,193.43c0,1.63.19,3.21.69,4.75,1.15,3.51,3.55,6.13,6.11,8.67,13.3,13.28,26.57,26.59,39.85,39.89,1.07,1.08,2.29,1.98,3.33,3.12,3.83,4.22,8.07,8.04,11.92,12.25,1.71,1.87,3.63,3.53,5.45,5.29,4.43,4.29,8.74,8.7,13.13,13.03,1.39,1.37,2.85,2.81,4.59,3.6,2.8,1.28,5.77,2.28,8.99,1.71,1.87-.33,3.6-1.07,5.22-1.99,2.05-1.16,3.66-2.91,5.32-4.57,10.48-10.46,20.95-20.94,31.43-31.41,11.86-11.85,23.71-23.71,35.56-35.57,11.5-11.5,23-23.01,34.5-34.51,9.74-9.73,19.5-19.44,29.21-29.2,1.03-1.04,2.05-2.22,2.64-3.54,1.46-3.21,2.1-6.55,1.11-10.12-.71-2.56-1.65-4.92-3.57-6.79-1.92-1.87-3.64-3.94-5.65-5.73-2.41-2.15-4.5-4.62-6.85-6.83-3.09-2.9-5.9-6.1-9-9-1.67-1.56-3.43-2.86-5.62-3.61-1.11-.38-2.25-.16-3.31-.42-2.69-.68-5.21.15-7.54,1.11-1.96.81-3.79,2.07-5.35,3.71-4.4,4.63-8.93,9.13-13.44,13.65-6.33,6.34-12.68,12.64-19.02,18.97-1.92,1.91-3.93,3.74-5.68,5.8-.92,1.08-1.95,2.17-2.92,3.06-.98.89-1.88,1.99-2.96,2.85-1.4,1.11-2.57,2.58-3.95,3.78-.5.44-.72,1.28-1.16,1.54-1.43.86-2.35,2.22-3.51,3.32-.97.92-1.98,1.83-2.89,2.85-1.39,1.57-3.17,2.81-4.48,4.45-2.84,3.53-6.34,6.41-9.38,9.75-2.04,2.24-4.29,4.28-6.43,6.44-2.5,2.52-4.95,5.1-7.46,7.61-2.83,2.83-5.72,5.59-8.55,8.41-2.67,2.66-5.29,5.36-7.94,8.02-.36.36-.74.55-1.2,0-.67-.79-1.43-1.51-2.17-2.24-1.68-1.67-3.09-3.62-4.78-5.22-2.22-2.11-4.16-4.5-6.55-6.43-.64-.52-.87-1.42-1.63-1.86-1.14-.66-1.96-1.67-2.8-2.64-1.07-1.24-2.27-2.35-3.45-3.48-.88-.85-2.07-1.54-2.67-2.45-1.45-2.21-3.71-3.58-5.28-5.64-1.09-1.44-2.73-2.4-3.92-3.84-1.65-2-3.53-3.84-5.46-5.58-3.41-3.06-6.09-6.95-10.51-8.88-2.95-1.29-5.92-1.81-9.03-1.08-2.95.69-5.53,2.06-7.67,4.33-3.43,3.63-7.11,7.01-10.53,10.64-3.23,3.44-6.53,6.79-9.99,9.99-2.99,2.76-4.48,6.09-4.73,10.06Z"/>
        <path class="cls-1" d="m161.98.02c-.92.73-1.83-.15-2.75,0h2.75Z"/>
        <path class="cls-1" d="m0,162.75c.29.42.43.83,0,1.25v-1.25Z"/>
        <path class="cls-1" d="m155.23,347.97c.25.02.5-.32.75,0h-.75Z"/>
        <path class="cls-1" d="m162.98.02c-.17.4-.33.31-.5,0h.5Z"/>
        <path class="cls-1" d="m0,159.75c.15.08.17.17,0,.25v-.25Z"/>
        <path class="cls-1" d="m0,160.75c.2.08.2.17,0,.25v-.25Z"/>
        <path class="cls-1" d="m0,161.75c.22.08.22.17,0,.25v-.25Z"/>
        <path class="cls-2" d="m50.97,193.43c.25-3.97,1.74-7.31,4.73-10.06,3.46-3.19,6.76-6.55,9.99-9.99,3.42-3.64,7.11-7.02,10.53-10.64,2.15-2.27,4.72-3.64,7.67-4.33,3.1-.72,6.08-.2,9.03,1.08,4.42,1.93,7.1,5.81,10.51,8.88,1.93,1.74,3.81,3.58,5.46,5.58,1.19,1.44,2.82,2.4,3.92,3.84,1.57,2.07,3.82,3.43,5.28,5.64.6.91,1.79,1.6,2.67,2.45,1.18,1.14,2.38,2.24,3.45,3.48.84.97,1.66,1.98,2.8,2.64.76.44.99,1.34,1.63,1.86,2.39,1.93,4.33,4.32,6.55,6.43,1.69,1.6,3.1,3.56,4.78,5.22.74.73,1.5,1.45,2.17,2.24.46.54.85.35,1.2,0,2.66-2.67,5.28-5.37,7.94-8.02,2.83-2.82,5.72-5.59,8.55-8.41,2.51-2.51,4.96-5.08,7.46-7.61,2.13-2.16,4.39-4.2,6.43-6.44,3.03-3.34,6.53-6.22,9.38-9.75,1.32-1.64,3.1-2.88,4.48-4.45.91-1.02,1.91-1.93,2.89-2.85,1.16-1.1,2.08-2.46,3.51-3.32.44-.26.66-1.11,1.16-1.54,1.38-1.2,2.55-2.67,3.95-3.78,1.08-.86,1.97-1.95,2.96-2.85.97-.89,2-1.98,2.92-3.06,1.75-2.05,3.76-3.89,5.68-5.8,6.34-6.32,12.7-12.63,19.02-18.97,4.51-4.52,9.04-9.02,13.44-13.65,1.56-1.64,3.39-2.9,5.35-3.71,2.33-.96,4.85-1.79,7.54-1.11,1.06.27,2.2.04,3.31.42,2.19.75,3.95,2.05,5.62,3.61,3.1,2.9,5.91,6.1,9,9,2.36,2.21,4.45,4.69,6.85,6.83,2.01,1.79,3.72,3.86,5.65,5.73,1.92,1.87,2.86,4.23,3.57,6.79.99,3.57.34,6.91-1.11,10.12-.59,1.31-1.61,2.5-2.64,3.54-9.71,9.76-19.47,19.47-29.21,29.2-11.5,11.5-23,23.01-34.5,34.51-11.85,11.86-23.71,23.71-35.56,35.57-10.47,10.47-20.94,20.95-31.43,31.41-1.66,1.65-3.27,3.41-5.32,4.57-1.62.92-3.34,1.65-5.22,1.99-3.22.57-6.19-.43-8.99-1.71-1.74-.79-3.2-2.23-4.59-3.6-4.39-4.33-8.7-8.74-13.13-13.03-1.82-1.76-3.74-3.42-5.45-5.29-3.85-4.21-8.09-8.03-11.92-12.25-1.04-1.15-2.25-2.05-3.33-3.12-13.28-13.3-26.55-26.61-39.85-39.89-2.55-2.55-4.95-5.16-6.11-8.67-.51-1.54-.7-3.12-.69-4.75Z"/>
      </g>
    </g>
  </g>
</svg>