<svg xmlns="http://www.w3.org/2000/svg" xmlns:xlink="http://www.w3.org/1999/xlink" viewBox="0 0 308.66 71.78"><defs><style>.cls-1{fill:#fff;}.cls-2{mask:url(#mask);}.cls-3{fill:url(#linear-gradient);}.cls-4{fill:#ffe;}.cls-5{fill:url(#linear-gradient-2);}.cls-6{fill:url(#linear-gradient-3);}</style><mask id="mask" x="187.82" y="52.25" width="119.8" height="19.53" maskUnits="userSpaceOnUse"><path class="cls-1" d="M192,64.4v7.11h-4.15v-19h13.7v3.61H192V60.9h8.19v3.5Z"/><path class="cls-1" d="M204.23,52.52h4.26v19h-4.26Z"/><path class="cls-1" d="M216.73,58.7V71.51h-4v-19H217L225.74,65V52.52h4v19h-4Z"/><path class="cls-1" d="M251.21,71.51h-4.56l-1.52-4h-7.6l-1.51,4h-4.34l7.7-19h4.12Zm-12.54-7.27H244l-2.63-7Z"/><path class="cls-1" d="M257.14,58.7V71.51h-4v-19h4.29L266.15,65V52.52h4v19h-4Z"/><path class="cls-1" d="M276.21,55.11a9.74,9.74,0,0,1,7.13-2.86,11.12,11.12,0,0,1,2.68.31,8.6,8.6,0,0,1,2.07.76,11.12,11.12,0,0,1,1.41.91,5.57,5.57,0,0,1,.87.79l.27.29-3,2.66a1.72,1.72,0,0,0-.16-.2,4.63,4.63,0,0,0-.52-.45,6.07,6.07,0,0,0-.85-.58,5,5,0,0,0-1.21-.46,5.83,5.83,0,0,0-1.57-.21,5.59,5.59,0,0,0-4.18,1.71,6.29,6.29,0,0,0,0,8.49A5.59,5.59,0,0,0,283.29,68a5.93,5.93,0,0,0,1.65-.23,5.39,5.39,0,0,0,1.31-.54,6.6,6.6,0,0,0,.89-.64q.38-.33.57-.54l.16-.25,2.93,2.61-.3.36a7.21,7.21,0,0,1-.86.82,9.17,9.17,0,0,1-1.49,1,9.94,9.94,0,0,1-2.15.81,10.21,10.21,0,0,1-2.79.37A9.71,9.71,0,0,1,276.14,69a9.3,9.3,0,0,1-2.83-6.91A9.42,9.42,0,0,1,276.21,55.11Z"/><path class="cls-1" d="M293.38,71.51v-19h14v3.61h-9.82v3.93H306v3.36h-8.46v4.51h10.09v3.58Z"/></mask><linearGradient id="linear-gradient" x1="212.89" y1="96.85" x2="282.55" y2="27.18" gradientUnits="userSpaceOnUse"><stop offset="0" stop-color="#8f6e3d"/><stop offset="0.17" stop-color="#d6b06d"/><stop offset="0.26" stop-color="#bb9551"/><stop offset="0.3" stop-color="#ad8743"/><stop offset="0.39" stop-color="#977747"/><stop offset="0.63" stop-color="#f7e1a4"/><stop offset="0.8" stop-color="#b28a53"/><stop offset="0.94" stop-color="#d6b06d"/></linearGradient><linearGradient id="linear-gradient-2" x1="138.46" y1="77.3" x2="174.65" y2="41.11" xlink:href="#linear-gradient"/><linearGradient id="linear-gradient-3" x1="108.23" y1="62.2" x2="165.24" y2="5.19" xlink:href="#linear-gradient"/></defs><title>direct-business-finance-logo</title><g id="Layer_2" data-name="Layer 2"><g id="Layer_1-2" data-name="Layer 1"><g class="cls-2"><rect class="cls-3" x="187.82" y="52.25" width="119.8" height="19.53"/></g><path class="cls-4" d="M196.24.34a13.31,13.31,0,0,1,9.32,3.33,10.88,10.88,0,0,1,3.66,8.39,11,11,0,0,1-3.74,8.46,13.45,13.45,0,0,1-9.4,3.4h-8.26V.34ZM193,19.47h3.37a7.69,7.69,0,0,0,5.55-2.09,7,7,0,0,0,2.2-5.25,6.91,6.91,0,0,0-2.2-5.24,7.76,7.76,0,0,0-5.55-2.07H193Z"/><path class="cls-4" d="M213.26.34h5.28V23.92h-5.28Z"/><path class="cls-4" d="M223.77.34h10.54a8.78,8.78,0,0,1,6.13,2.12A7.09,7.09,0,0,1,242.8,8a7.4,7.4,0,0,1-1.33,4.38,7.47,7.47,0,0,1-3.62,2.72l6,8.83h-6l-5.29-8.12h-3.64v8.12h-5.15Zm5.15,4.34v7.15h4.75a4.12,4.12,0,0,0,2.93-1,3.34,3.34,0,0,0,1.08-2.58,3.33,3.33,0,0,0-1.08-2.57,4.12,4.12,0,0,0-2.93-1Z"/><path class="cls-4" d="M247,23.92V.34h17.35V4.82h-12.2V9.7h10.51v4.18H252.16v5.59H264.7v4.45Z"/><path class="cls-4" d="M270.66,3.55A12.15,12.15,0,0,1,279.52,0a13.73,13.73,0,0,1,3.32.39,10.8,10.8,0,0,1,2.57.94,13.78,13.78,0,0,1,1.76,1.13,6.81,6.81,0,0,1,1.07,1l.34.37-3.77,3.3a3.1,3.1,0,0,0-.21-.25A4.42,4.42,0,0,0,284,6.3a7.6,7.6,0,0,0-1.06-.72A6.1,6.1,0,0,0,281.4,5a7.45,7.45,0,0,0-1.95-.25,6.93,6.93,0,0,0-5.19,2.12,7.27,7.27,0,0,0-2.05,5.26,7.31,7.31,0,0,0,2.05,5.29,6.93,6.93,0,0,0,5.19,2.12,7,7,0,0,0,2.06-.29,6.61,6.61,0,0,0,1.61-.67,8,8,0,0,0,1.11-.79,8.4,8.4,0,0,0,.71-.67l.2-.31,3.64,3.24-.37.45a10,10,0,0,1-1.08,1,10.13,10.13,0,0,1-1.85,1.28,12.29,12.29,0,0,1-2.66,1,12.75,12.75,0,0,1-3.47.46,12,12,0,0,1-8.78-3.46,11.55,11.55,0,0,1-3.52-8.57A11.72,11.72,0,0,1,270.66,3.55Z"/><path class="cls-4" d="M301.78,4.82v19.1h-5.12V4.82h-6.87V.34h18.87V4.82Z"/><path class="cls-4" d="M195.74,29.67a6.08,6.08,0,0,1,4,1.26,4,4,0,0,1,1.53,3.26,4.18,4.18,0,0,1-.65,2.28,4.44,4.44,0,0,1-1.8,1.62,4.74,4.74,0,0,1,2.37,1.67,4.54,4.54,0,0,1-.79,6.16,6.28,6.28,0,0,1-4.23,1.4h-8.37V29.67Zm-.83,7.19a2.64,2.64,0,0,0,1.84-.61,1.92,1.92,0,0,0,.68-1.48,2,2,0,0,0-.68-1.52,2.68,2.68,0,0,0-1.84-.6h-3.23v4.21Zm-3.23,7.51h3.81a2.81,2.81,0,0,0,2-.69,2.22,2.22,0,0,0,.75-1.7,2.15,2.15,0,0,0-.75-1.68,2.89,2.89,0,0,0-2-.67h-3.81Z"/><path class="cls-4" d="M219.85,29.67V40a7.35,7.35,0,0,1-2.12,5.47,8.3,8.3,0,0,1-11,.07,7.27,7.27,0,0,1-2.05-5.41V29.67h3.9V40a4.13,4.13,0,0,0,1,2.93,3.52,3.52,0,0,0,2.7,1.11A3.46,3.46,0,0,0,215,42.94a4.17,4.17,0,0,0,1-2.93V29.67Z"/><path class="cls-4" d="M235,42.28a4.8,4.8,0,0,1-1.76,3.78,6.86,6.86,0,0,1-4.62,1.52,10.34,10.34,0,0,1-2.38-.28,8.68,8.68,0,0,1-1.9-.66,11.62,11.62,0,0,1-1.34-.77,6.59,6.59,0,0,1-.86-.66l-.25-.28,2.27-2.45.23.22q.15.13.63.48a8.33,8.33,0,0,0,1,.59,7.6,7.6,0,0,0,1.29.46,5.37,5.37,0,0,0,1.52.22,2.54,2.54,0,0,0,1.62-.49,1.53,1.53,0,0,0,.63-1.25,2,2,0,0,0-.86-1.58A13.61,13.61,0,0,0,227,39.51q-4.22-1.65-4.21-5.07a4.49,4.49,0,0,1,1.69-3.61A6.68,6.68,0,0,1,229,29.42a9,9,0,0,1,2.09.24,8.2,8.2,0,0,1,1.68.57,11.79,11.79,0,0,1,1.19.65,4.25,4.25,0,0,1,.76.56l.25.25-2.27,2.45a5.77,5.77,0,0,0-.48-.45,6,6,0,0,0-1.24-.7,4.45,4.45,0,0,0-1.93-.44,2.58,2.58,0,0,0-1.66.48,1.39,1.39,0,0,0-.59,1.11,1.68,1.68,0,0,0,.67,1.34,9.34,9.34,0,0,0,2.51,1.28Q235,38.73,235,42.28Z"/><path class="cls-4" d="M238,29.67h4V47.32h-4Z"/><path class="cls-4" d="M249.62,35.42v11.9h-3.76V29.67h4L258,41.27V29.67h3.76V47.32H258Z"/><path class="cls-4" d="M265.53,47.32V29.67h13V33h-9.13v3.65h7.87v3.13h-7.87V44h9.38v3.32Z"/><path class="cls-4" d="M293.27,42.28a4.77,4.77,0,0,1-1.77,3.78,6.81,6.81,0,0,1-4.61,1.52,10.42,10.42,0,0,1-2.39-.28,8.87,8.87,0,0,1-1.9-.66,12.53,12.53,0,0,1-1.34-.77,6.37,6.37,0,0,1-.85-.66l-.26-.28,2.27-2.45.23.22q.15.13.63.48a7.72,7.72,0,0,0,1,.59,7.16,7.16,0,0,0,1.28.46,5.44,5.44,0,0,0,1.53.22A2.53,2.53,0,0,0,288.7,44a1.53,1.53,0,0,0,.63-1.25,2,2,0,0,0-.85-1.58,14,14,0,0,0-3.16-1.62c-2.8-1.1-4.21-2.79-4.21-5.07a4.52,4.52,0,0,1,1.69-3.61,6.71,6.71,0,0,1,4.44-1.41,9,9,0,0,1,2.09.24,8,8,0,0,1,1.68.57,11,11,0,0,1,1.2.65,4.49,4.49,0,0,1,.75.56l.26.25L291,34.14l-.48-.45a6.18,6.18,0,0,0-1.25-.7,4.42,4.42,0,0,0-1.93-.44,2.53,2.53,0,0,0-1.65.48,1.36,1.36,0,0,0-.59,1.11,1.7,1.7,0,0,0,.66,1.34,9.5,9.5,0,0,0,2.51,1.28Q293.27,38.73,293.27,42.28Z"/><path class="cls-4" d="M307.51,42.28a4.8,4.8,0,0,1-1.76,3.78,6.86,6.86,0,0,1-4.62,1.52,10.34,10.34,0,0,1-2.38-.28,8.68,8.68,0,0,1-1.9-.66,11.62,11.62,0,0,1-1.34-.77,6.59,6.59,0,0,1-.86-.66l-.25-.28,2.27-2.45.23.22q.15.13.63.48a8.33,8.33,0,0,0,1,.59,7.6,7.6,0,0,0,1.29.46,5.37,5.37,0,0,0,1.52.22A2.54,2.54,0,0,0,303,44a1.53,1.53,0,0,0,.63-1.25,2,2,0,0,0-.86-1.58,13.61,13.61,0,0,0-3.15-1.62q-4.21-1.65-4.21-5.07a4.49,4.49,0,0,1,1.69-3.61,6.68,6.68,0,0,1,4.44-1.41,9,9,0,0,1,2.09.24,8.2,8.2,0,0,1,1.68.57,11.79,11.79,0,0,1,1.19.65,4.25,4.25,0,0,1,.76.56l.25.25-2.27,2.45c-.12-.12-.27-.27-.48-.45a6,6,0,0,0-1.24-.7,4.49,4.49,0,0,0-1.93-.44,2.58,2.58,0,0,0-1.66.48,1.39,1.39,0,0,0-.59,1.11,1.68,1.68,0,0,0,.67,1.34,9.34,9.34,0,0,0,2.51,1.28Q307.51,38.73,307.51,42.28Z"/><path class="cls-4" d="M0,71.78H17.84c25.41,0,39.32-15.53,39.32-35.29S43.25,1.21,17.84,1.21H0ZM17.54,18.15c11.8,0,21.68,4.84,21.68,18.34S29.34,54.84,17.54,54.84Z"/><path class="cls-4" d="M92.11,71.78c12.5,0,21.77-7.46,21.77-20.16,0-7.67-3-14.22-10.28-17.65,3.43-2.21,6.76-8.16,6.76-12.7,0-10.48-6.15-20.06-23.09-20.06H62.17V71.78ZM86.26,16.33c4.34,0,5.75,3.13,5.75,6.35S88.88,28,83.34,28H79.71V16.35ZM83.34,55.45H79.71V42.74h3.63c7.15,0,11.59,1.42,11.59,6.46C94.93,54,91.7,55.45,83.34,55.45Z"/><path class="cls-5" d="M158.24,40.83c-.3,9-1.31,14-11.29,14h-.88a29.74,29.74,0,0,1-7,12.35,24.74,24.74,0,0,1-6.16,4.59h17.33c12.5,0,24.1-8.47,24.1-25.41V40.83Z"/><path class="cls-6" d="M152.49,15.93h7.56V0h-9c-14.52,0-23.59,6.05-23.59,25.91h-5.95V40.83h5.95c0,11.79-1,14-9.68,14V71.78c25.12,0,26.82-22.78,26.62-30.95h8.36V26.11h-8.36C144.43,18.75,146.64,15.93,152.49,15.93Z"/></g></g></svg>