<svg xmlns="http://www.w3.org/2000/svg" viewBox="0 0 533.08 271.18"><defs><style>.cls-1{fill:red;}</style></defs><title>leading-experts</title><g id="Layer_2" data-name="Layer 2"><g id="Layer_1-2" data-name="Layer 1"><polygon points="63.89 71.37 29.99 71.37 29.99 1.65 4.29 1.65 4.29 93.22 63.89 93.22 63.89 71.37"/><polygon points="138.57 71.37 103.02 71.37 103.02 57.39 132.23 57.39 132.23 35.55 103.02 35.55 103.02 23.5 137.19 23.5 137.19 1.65 77.32 1.65 77.32 93.22 138.57 93.22 138.57 71.37"/><path d="M173.13,74.2h23.4l4.46,19h27.22L200.31,1.65H170.17L142.28,93.21h26.4Zm5.92-25.29c1.91-7.39,3.84-16.54,5.54-24.61l.15-.69c.75,3.18,1.5,6.54,2.24,9.82,1.19,5.31,2.42,10.79,3.63,15.47l1.16,5H177.89Z"/><path d="M294.57,82.24c8.58-7.95,12.93-19.8,12.93-35.22,0-29.68-16.26-45.37-47-45.37H233V93.21h28.84C275.7,93.21,286.7,89.52,294.57,82.24ZM259.1,22.67c10.95,0,22.15,2.89,22.15,24.35,0,17.41-6.83,25.18-22.15,25.18h-.38V22.67Z"/><rect x="321.48" y="1.65" width="25.7" height="91.56"/><path d="M389.62,66.31c0-8.58-1.16-18.36-2.19-27l-.27-2.26,6.63,15.5L413.9,93.21h25.88V1.65h-24.6V28.56c0,9.09,1.32,20,2.38,28.72,0,.14,0,.27.05.41L411,42.17,390.9,1.65H365V93.21h24.6Z"/><path d="M467.27,83.2c8.19,7.63,19.49,11.67,32.69,11.67,14.14,0,25.29-5.84,31-11.3l.31-.3V39.13H495.1V60.42h13.22V71.25a13.39,13.39,0,0,1-5.88,1.23C487.56,72.48,480,64,480,47.3c0-14.9,8.13-24.91,20.22-24.91,6.7,0,10.83,2.44,15.33,6.37l.77.68L530,12.78l-.64-.64A41.3,41.3,0,0,0,499.4,0c-26.87,0-45.64,19.79-45.64,48.12C453.76,62.83,458.43,75,467.27,83.2Z"/><path class="cls-1" d="M15.45,145H19l8.75,17H45.07l-11.4-20.38c5.16-3.15,7.88-8.32,7.88-15,0-11.39-7.37-17.41-21.32-17.41H0v52.81H15.45Zm0-23.14h3.84c5.94,0,7.13,1.83,7.13,4.78,0,3.8-2.4,5.73-7.13,5.73H15.45Z"/><polygon class="cls-1" points="84.08 122.5 84.08 109.25 49.25 109.25 49.25 162.06 84.86 162.06 84.86 148.8 64.69 148.8 64.69 141.73 81.26 141.73 81.26 128.48 64.69 128.48 64.69 122.5 84.08 122.5"/><path class="cls-1" d="M92.71,109.25v52.81h15.44V146h4.48C122.46,146,134,141,134,127.13c0-11.53-7.68-17.88-21.64-17.88Zm15.44,12.63h3.54c6.28,0,7.13,2.65,7.13,5.25,0,4.17-2.23,6.19-6.82,6.19h-3.85Z"/><path class="cls-1" d="M138.05,135.42c0,16.75,9.66,27.58,24.6,27.58s24.61-10.83,24.61-27.58-9.43-27.11-24.61-27.11S138.05,118.7,138.05,135.42Zm24.6,14c-5.45,0-8.85-5.37-8.85-14,0-8.48,3.31-13.54,8.85-13.54s8.85,5.06,8.85,13.54C171.5,144.06,168.11,149.43,162.65,149.43Z"/><path class="cls-1" d="M221.73,130.89,214.29,128c-3.79-1.45-5.61-2.22-5.61-3.66,0-2.13,2.7-2.44,4.31-2.44,3.29,0,6.07,1,9.59,3.49l.77.54,7.87-9.88-.64-.63A25.57,25.57,0,0,0,213,108.31c-11.35,0-19.91,7.22-19.91,16.79,0,6.82,4,12.31,10.85,15.07l6.35,2.66,1.11.44c3.56,1.41,5.14,2.09,5.14,3.56,0,.71,0,2.6-4.79,2.6-3.33,0-7.64-1.81-11.25-4.71l-.77-.61-8.9,10.72.71.64a30.51,30.51,0,0,0,19.9,7.53c13.69,0,20.86-8.69,20.86-17.26C232.29,138.65,228.73,133.66,221.73,130.89Z"/><path class="cls-1" d="M274.81,145.74c0-7.09-3.55-12.08-10.56-14.85L256.81,128c-3.79-1.45-5.61-2.22-5.61-3.66,0-2.13,2.71-2.44,4.32-2.44,3.29,0,6.07,1,9.58,3.49l.78.54,7.87-9.88-.65-.63a25.55,25.55,0,0,0-17.58-7.09c-11.36,0-19.92,7.22-19.92,16.79,0,6.82,4,12.31,10.86,15.07l6.34,2.66,1.11.44c3.57,1.41,5.14,2.09,5.14,3.56,0,.71,0,2.6-4.78,2.6-3.34,0-7.65-1.81-11.26-4.71l-.76-.62-8.91,10.73.72.64A30.47,30.47,0,0,0,254,163C267.65,163,274.81,154.31,274.81,145.74Z"/><polygon class="cls-1" points="315.77 122.5 315.77 109.25 280.94 109.25 280.94 162.06 316.55 162.06 316.55 148.8 296.39 148.8 296.39 141.73 312.96 141.73 312.96 128.48 296.39 128.48 296.39 122.5 315.77 122.5"/><path class="cls-1" d="M341.51,163c13.69,0,20.85-8.69,20.85-17.26,0-7.09-3.55-12.08-10.56-14.85L344.36,128c-3.78-1.45-5.61-2.22-5.61-3.66,0-2.13,2.71-2.44,4.32-2.44,3.29,0,6.07,1,9.59,3.49l.77.54L361.3,116l-.64-.63a25.59,25.59,0,0,0-17.59-7.09c-11.36,0-19.92,7.22-19.92,16.79,0,6.82,4,12.31,10.86,15.07l6.34,2.66,1.11.44c3.57,1.41,5.14,2.09,5.14,3.56,0,.71,0,2.6-4.78,2.6-3.34,0-7.65-1.81-11.26-4.71l-.76-.61-8.91,10.72.72.64A30.47,30.47,0,0,0,341.51,163Z"/><path class="cls-1" d="M384,163c13.69,0,20.86-8.69,20.86-17.26,0-7.09-3.56-12.08-10.57-14.85L386.89,128c-3.79-1.45-5.61-2.22-5.61-3.66,0-2.13,2.7-2.44,4.31-2.44,3.29,0,6.07,1,9.59,3.49l.77.54,7.87-9.88-.64-.63a25.57,25.57,0,0,0-17.59-7.09c-11.35,0-19.91,7.22-19.91,16.79,0,6.82,4,12.31,10.85,15.07l6.35,2.66,1.11.44c3.56,1.41,5.14,2.09,5.14,3.56,0,.71,0,2.6-4.79,2.6-3.33,0-7.65-1.81-11.25-4.71l-.77-.62-8.9,10.73.71.64A30.51,30.51,0,0,0,384,163Z"/><rect class="cls-1" x="411.02" y="109.25" width="15.45" height="52.81"/><path class="cls-1" d="M482.74,135.42c0-16.72-9.43-27.11-24.6-27.11s-24.61,10.39-24.61,27.11S443.19,163,458.14,163,482.74,152.17,482.74,135.42Zm-24.6,14c-5.46,0-8.85-5.37-8.85-14,0-8.48,3.3-13.54,8.85-13.54s8.84,5.06,8.84,13.54C467,144.06,463.59,149.43,458.14,149.43Z"/><path class="cls-1" d="M518.26,109.25v15.69a123.65,123.65,0,0,0,1,13.56l-2.56-6-11.53-23.22H489.81v52.81h14.82v-15.7a120.76,120.76,0,0,0-1.05-13.66l2.59,6.05,11.53,23.31h15.38V109.25Z"/><polygon points="27 234.81 55.34 234.81 55.34 213.56 27 213.56 27 201.92 60.16 201.92 60.16 180.66 2 180.66 2 269.58 61.49 269.58 61.49 248.32 27 248.32 27 234.81"/><path d="M145.3,180.66H118.36l-5.31,14.81c-1.42,3.55-3.07,7.79-4.76,12.7-.63-1.49-1.22-2.92-1.79-4.29-1.33-3.19-2.47-5.95-3.63-8.43l-6.14-14.79h-28l22.72,43.26L67.4,269.58H94.33L101,253.44c1.64-4,3.33-8.07,5-12.7,2,4.84,3.6,8.78,5.46,12.74l7.22,16.1h28L122.6,225Z"/><path d="M187.79,180.66H155v88.92h25V242h8.36c16.5,0,35.76-8.24,35.76-31.48C224.09,185.85,204.35,180.66,187.79,180.66ZM180,200.85h6.75c8.93,0,12.91,3,12.91,9.7,0,7.49-4.16,11.3-12.37,11.3H180Z"/><polygon points="261.27 234.81 289.61 234.81 289.61 213.56 261.27 213.56 261.27 201.92 294.43 201.92 294.43 180.66 236.27 180.66 236.27 269.58 295.76 269.58 295.76 248.32 261.27 248.32 261.27 234.81"/><path d="M380.27,209.74c0-19-12.37-29.08-35.76-29.08h-33.9v88.92h25V240.43h7.23l15,29.15h28l-19.23-34.37C375.53,230,380.27,221.21,380.27,209.74Zm-44.66-8.89h7.29c9.29,0,12.91,2.49,12.91,8.89,0,7-4.34,10.5-12.91,10.5h-7.29Z"/><polygon points="385.76 201.92 408.76 201.92 408.76 269.58 433.76 269.58 433.76 201.92 456.76 201.92 456.76 180.66 385.76 180.66 385.76 201.92"/><path d="M510.82,217.64l-10.57-4.15-2.15-.83c-6.79-2.61-10.05-4-10.05-6.93,0-4.25,5.07-4.88,8.09-4.88,5.79,0,10.66,1.77,16.81,6.1l.77.54,12.65-15.88-.65-.63a43,43,0,0,0-29.58-11.92c-19,0-33.36,12-33.36,28,0,11.36,6.62,20.52,18.13,25.12l10.85,4.56,1.89.75c6.41,2.53,9.25,3.77,9.25,6.74,0,1.28,0,5.15-8.9,5.15-5.86,0-13.4-3.14-19.7-8.2l-.76-.62-14.35,17.28.71.64a51.39,51.39,0,0,0,33.57,12.69c22.95,0,35-14.49,35-28.81C528.43,230.41,522.67,222.32,510.82,217.64Z"/></g></g></svg>