<svg xmlns="http://www.w3.org/2000/svg" viewBox="0 0 538.93 283.24"><defs><style>.cls-1{fill:#fff;}</style></defs><title>ormond-street</title><g id="Layer_2" data-name="Layer 2"><g id="Layer_1-2" data-name="Layer 1"><path class="cls-1" d="M35.51,217.15c-6,.22-11.28-2.1-16.23-5.23-5.39-3.42-9.17-8.29-12.44-13.73a57.34,57.34,0,0,1-5.22-11.85c-2-6.15-2-11.47-.82-17.89C1.6,164,2.94,160,5.89,156.53c.6-.7.8-1.94,1.5-2.33,3.21-1.73,5.49-4.89,9-6,1.52-.47,3.3-.11,5-.12h3.39c-.28-3.5.86-6.85,1.41-10.28.66-4.08.33-8.55,2.76-12.29-.2-3.43,1.55-6.35,2.57-9.44a121.91,121.91,0,0,1,7.78-17.76,92,92,0,0,1,9.81-15c2.27-2.87,4.25-6,6.72-8.71,4.58-5.09,10.3-8.71,15.86-12.49A98.07,98.07,0,0,1,85,54.6,134.6,134.6,0,0,1,109.44,46c10.2-2.55,20.45-1.7,30.7-1.76,2.45,0,4.88,1.47,8.35.41-1.5-.26-2.26-.32-3-.53a17.31,17.31,0,0,0-2.6-.95c-3-.42-6.17-.29-9-1.13-4.69-1.37-9.4-.77-14.11-.88s-9.68-.27-14.49.05c-4.31.28-7.64-1-10.28-4.72V32.12c.71-.61,1.81-1.61,3-2.55,2.49-2.05,5.11-3.65,8.56-3.51,3.66.15,7.33.11,11,0a23.51,23.51,0,0,1,7.11,1c2.27.65,4.92-.82,7.06,1.06,3-.71,5.67,1,8.58,1.07a25.3,25.3,0,0,1,7.44,1.32c2.56.91,5.33.41,7.4,1.64,3.3-5.25,6.37-10.31,9.61-15.27A77.14,77.14,0,0,1,175.94,3.49c2.33-2.25,4.72-3.87,8.11-3.41a16.94,16.94,0,0,0,2.36,0l3.39,3.39c0,.36.06.83.11,1.3.74,6.07-1.35,11.08-4.89,16-3.78,5.28-6.68,11.21-10.1,17.08,5.19,2.05,10.58,3.92,15.73,6.3a63.88,63.88,0,0,1,9.59,5.8c6.59,4.59,12.34,10.14,17.94,15.87A118.82,118.82,0,0,1,235,88.35c4.55,7.6,8.11,15.65,12.15,23.48,2.27,4.4,3.68,9.15,5.48,13.73,2,5,3.95,10,5.52,15.21,1.82,6,4,11.78,4.79,18a23,23,0,0,0,1.31,4.12,47,47,0,0,1,18.91,5.8c5,2.77,7.75,7.23,9.54,12a26.16,26.16,0,0,1,1,12,19.86,19.86,0,0,1-4.55,10.55,37,37,0,0,1-5.54,5.66,14.59,14.59,0,0,1-8.2,3.12c-4.66.16-9.33,0-14.13,0-1.83,4.18-3.3,8.63-5.61,12.58-3.87,6.61-7.31,13.48-12.23,19.48-3.27,4-6.09,8.4-10,11.8a84.93,84.93,0,0,1-24.64,15.3c-7.73,3.07-15.66,5-23.66,6.88-3.69.88-7.42,1.49-11.14,2.17-2.39.43-5,.09-7.06.95-2.44,1-4.87.27-7.12.91-5.84,1.66-11.74.72-17.61.89s-11.68.32-17.49,0a53.4,53.4,0,0,1-14.64-3.21c-7.91-2.85-17.48-8.29-25.15-13-5.54-3.38-10.69-7.27-15.82-11.15A154.17,154.17,0,0,1,47.7,235.16,76.26,76.26,0,0,1,36.89,218.7,8.41,8.41,0,0,0,35.51,217.15Zm9.6-14.06c.86,0,1.52,0,2.17,0a5.71,5.71,0,0,1,5.44,2.44,5.44,5.44,0,0,1,.36,5.64c-2,4.52-1.62,4.72,1.38,9,4.63,6.52,9.29,12.88,15.72,18q9,7.17,18.28,14a93.5,93.5,0,0,0,23.36,12.39c1.74.64,3.57,1,5.33,1.62a50.16,50.16,0,0,0,5.69,1.93c1.9.38,4.11-.24,5.81.48,2.15.91,4.2.49,6.26.54,5.17.13,10.33,0,15.5,0,1,0,2.4.42,2.93-.08,1.94-1.81,4.14-.55,6.17-.91,2.18-.38,4.38-.74,6.58-1,3.36-.39,6.9-.14,10-1.16A97.19,97.19,0,0,1,187,263.3a96.09,96.09,0,0,0,17.7-5.65,47.52,47.52,0,0,0,11.94-7.48c3.46-2.88,7.36-5.35,10.27-8.75,1.89-2.21,3.74-4.47,5.77-6.56a9.62,9.62,0,0,0,1-1.07,208.87,208.87,0,0,0,13.05-23.09A8.12,8.12,0,0,0,247,208c-3.64.57-6.07-1.06-8-3.43v-6c3-2.21,3-2.21,6.66-1.43,2.87.61,4-.35,4.28-3.6,0-.5-.2-1.15,0-1.47,1.62-2.22.85-4.73.95-7.11.1-2.61,0-5.22,0-7.68a7.45,7.45,0,0,0-5.08.82,52.2,52.2,0,0,1-6,2.55,4.61,4.61,0,0,1-5.43-1.53,8,8,0,0,1-1.36-3.4,3.81,3.81,0,0,1,1.18-2.37,16,16,0,0,1,2.57-2.2c2.87-2.19,6.22-3.44,9.46-4.92,2.51-1.14,3.27-2.24,2.56-4.3-.93-2.68-1.14-5.61-2.12-8.12-1.67-4.32-2.8-8.81-4.62-13.08s-2.45-9-4.43-13.16c-4.38-9.19-7.65-18.86-12.72-27.75a163.26,163.26,0,0,0-16.24-23.23,76.11,76.11,0,0,0-15.39-13.46c-3.45-2.41-6.88-5.16-10.76-6.58-4.47-1.65-8.74-3.9-13.49-4.94-1.45-.32-2.07-.19-2.78.68a10.58,10.58,0,0,0-1.43,2.4c-1.78,4-4.41,7.4-6.11,11.47-2.41,5.78-5,11.58-10.1,15.87-2.36,2-5.19,2.21-7.8,2.91-1.44.38-3.43-1.37-4.63-3-.1-.13-.22-.24-.33-.36,0-7-1.19-7.31,6.08-24.26a11.13,11.13,0,0,0-1.92-.19c-6.69.42-13.43-.88-20.1.92-3.79,1-7.8,1.24-11.61,2.18-5.46,1.34-19.34,7.72-24,10.94A124.91,124.91,0,0,0,72.6,80c-4.28,3.81-8.51,7.79-11.68,12.63-2.05,3.14-4.28,6.14-6.09,9.46-3,5.59-5.07,11.58-7.63,17.35a61.79,61.79,0,0,0-4.08,13.76c-1,5.3-3,10.56-2.26,16.14.06.42-.55.92-.94,1.53,4.22,2.11,6.94,5.69,10,8.83,1.9,1.92,2.37,4.68,2.94,7.25.45,2-1.18,3-2.42,3.93-.86.62-2.08.28-3-.71a15.54,15.54,0,0,0-3.81-2.83,37.32,37.32,0,0,0-4.88-1.75C40.31,178.68,41.28,191.1,45.11,203.09Zm-20.3-38.93c-2.66-.21-5-.24-6.77,1.36a14,14,0,0,0-4.27,6.22c-1.07,3.24-.78,6.41-.83,9.61-.08,5.29,2.5,9.62,5.47,13.69,2.73,3.72,6.87,5.44,11.13,7.2a6.24,6.24,0,0,0-.13-4.26,53.8,53.8,0,0,1-1.51-6.87,35.69,35.69,0,0,1-.95-3.58c-.17-1.48.5-3.3-.14-4.43-1.61-2.83.06-6-1.12-8.54-1.39-3-.32-5.81-.77-8.67C24.84,165.42,24.86,164.93,24.81,164.16ZM263,200.58c3.39,2.11,6.68,1.1,9.88,0,2.66-.94,4.17-3.14,5.67-5.5,1.9-3,.74-6.55,2.27-9.51-1.77-1.39-.49-3.42-1-5-3.87-4.73-8.92-6-14.92-5.31,0,4.39.24,8.7-.07,13C264.55,192.29,263.68,196.33,263,200.58Z"/><path class="cls-1" d="M393.77,109.27l6.71,16c2.18-.74,2.52-2.94,3-4.41,1.25-4,3.78-7.45,4.59-11.67h8.63c.41,3,1,5.92,1.19,8.91s.93,5.69,1.24,8.56c.47,4.38,1.86,8.68,1.8,13.17a6.5,6.5,0,0,1-.2,1.08h-7.59c-1.7-4.61-1.63-9.74-2.59-15.32-2.39,5.19-4.56,9.86-6.68,14.44h-5.33c-2.95-3.94-3.38-9.3-6.7-13.24-.48.5-.85.71-.87,1-.37,3.68-.63,7.38-1.06,11.07a2.33,2.33,0,0,1-2.58,2.28c-2-.06-4,0-6.37,0,.3-1.91-.84-3.8.92-5.53.33-.33,0-1.28.06-1.94a13.12,13.12,0,0,1,.9-5.63c.76-1.65-.65-3.93,1.1-5.53.38-4.34.77-8.68,1.17-13.19Z"/><path class="cls-1" d="M489.74,141h-9.52c-3.6-5.68-7.15-11.31-11.12-17.58v17.52c-2.71.31-5.29.07-8,.18v-32a56.65,56.65,0,0,0,6.09-.06,4.36,4.36,0,0,1,4.69,2.79c1.63,3.6,4.16,6.6,6.2,9.91.85,1.39,1.62,2.83,2.66,4.68V109.22c3-.26,6-.06,9-.14Z"/><path class="cls-1" d="M323.91,83.51c2.43,2.94,5.18,5.42,9.15,4.45,1.48-.35,3.91-.82,3.85-3.82h-6.78c-.76-9.45,0-8,6.88-8,3.16,0,6.31,0,9.92,0-.43,3.72.39,7.24-.87,11A12.89,12.89,0,0,1,336.62,96c-5.89,1.59-5.95,1.4-11.65,0-.44-.11-.8-.51-1.23-.64-2.69-.82-4-3.28-5.93-5s-2.48-3.81-3.09-6.24A19.36,19.36,0,0,1,314,77.6c.21-2.24,2.81-7.82,4.2-9.22a18.32,18.32,0,0,1,9.33-5.11c3.85-.74,8.07-.7,11.71,1.64,1.31.84,2.61,1.7,4.18,2.74l-5.23,7c-2.51-2.48-5.3-2.79-8.26-2.58a6.15,6.15,0,0,0-6,6.06C323.85,80,323.91,81.8,323.91,83.51Z"/><path class="cls-1" d="M347.91,124.47c.23,11.15-8.5,16.19-16.51,17.62-4.27-1.33-9-1.38-12.3-5.23a19.72,19.72,0,0,1-5.19-12.32,15.18,15.18,0,0,1,4.75-11.39c3.29-3.24,7.48-5.49,12.76-5.18,4.75.27,8.83,1.6,11.84,5.1C346,116.28,348.36,119.92,347.91,124.47Zm-24,4.14c2.21,2.1,4,4.83,7.26,4.39,1.9-.25,4.26-.95,5.37-2.3a11.06,11.06,0,0,0,2.23-6.39c.06-3-1.95-5.25-4.48-7.22-1.4,0-3.05-.09-4.68,0a5.89,5.89,0,0,0-5.68,5.75C323.82,124.67,323.91,126.49,323.91,128.61Z"/><path class="cls-1" d="M456.91,124.94c0,10.42-8,15.55-16.39,17.15-3.94-1.3-8.28-1.32-11.64-4.43-3.86-3.58-5.16-8.13-6-13-.06-.36,1.8-7.3,2-7.64a18.74,18.74,0,0,1,6.76-6.93c2.83-1.62,5.87-1.94,9.13-2.09C448.92,107.61,458,116.36,456.91,124.94Zm-13.5-7.85c-1.4,0-2.89,0-4.38,0-2.71.1-5.56,2-6,4.45-.34,1.93-.68,4.19,0,5.91,1.77,4.52,5.91,7.23,10,4.61a11.23,11.23,0,0,0,4.14-4.53c.85-1.68.63-2.86.31-4.5C447,120.41,445.17,118.89,443.41,117.09Z"/><path class="cls-1" d="M382.91,215.8c.57,3.09-.52,6.17-2.92,9.15a16.3,16.3,0,0,1-9.57,6.17c-1.69.33-3.24,1.43-5.07,1a42.76,42.76,0,0,1-5.38-1.48,16.1,16.1,0,0,1-9.76-10.72c-2.23-7.29.71-14.28,7-18.89,5.31-3.9,10.79-3.57,16.29-1.7,4.09,1.39,10.39,8.39,9.46,13.87A19.36,19.36,0,0,0,382.91,215.8Zm-19.54-8.66c-1.11,1.1-2.47,2-3.16,3.25-1.38,2.55-2,5.13-.51,8.13,1.34,2.77,3.28,4.25,6.09,4.52,3.34.33,5.56-1.23,7.21-4.32s1-5.83-.55-8.51a18.61,18.61,0,0,0-2.71-3.07Z"/><path class="cls-1" d="M495,141.09v-32c5.51,0,11-.42,16.38.12,5.14.52,8.77,3.75,11.63,8.16,2.44,3.78,2.4,7.65,1.48,11.55-1.09,4.65-4,8.65-8,9.9-3.06,1-6,2.69-9.56,2.35C503.11,140.82,499.26,141.09,495,141.09Zm9-7.8a65,65,0,0,0,7.42-1.31c1-.29,1.65-1.56,2.48-2.36,1.61-1.54,2.61-3.57,1.91-5.57-.76-2.22-1.06-4.77-3.9-6.07s-5.25-.64-7.91-.86Z"/><path class="cls-1" d="M395.19,174c2,3.63,4.25,7.69,6.56,11.88H391.43c-2.44-3.25-3-8.06-6.84-11.21-1.22,2-.52,3.82-.65,5.52s0,3.64,0,5.69h-8.86V154.09c5.48,0,11.11-.4,16.65.15,3.64.35,6.3,2.81,8.35,6.27s.38,6.3-.43,9.13C399.13,171.35,396.77,172.51,395.19,174ZM384,168a13.18,13.18,0,0,0,5.69-.73c1.65-.66.95-2.25,2.09-2.76-1.39-.21-.17-3-2.41-2.42-1.62-1.85-3.57-.77-5.37-.86Z"/><path class="cls-1" d="M352,140.92V109.09c5.38,0,10.68-.12,16,0a9.4,9.4,0,0,1,9,9.24c.26,6.39-.48,5.83-5.21,10.52l6.67,12h-9.93c-1.12-1.82-3-3.66-3.39-5.79-.5-2.46-2.73-3.14-3.34-5.3-1.17,3.8-.57,7.4-1,11.12Zm9-18.18c2.11,1.14,3.84-.07,5.49-.82s1.76-2.55.7-4.08c-1.67-2.42-3.94-1.64-6.19-1.73Z"/><path class="cls-1" d="M318.08,199.19h7.7v10.68h12.06V199.29h9v31.62h-8.87c0-1.89,0-4,0-6.1v-6.72c-3.14,0-6.1,0-9.06,0-2.17,0-2.89.75-2.92,2.92-.06,3.29,0,6.58,0,10h-7.83Z"/><path class="cls-1" d="M378,96.09c-2.88,0-5.2-.06-7.52,0-1.81.07-3.08-.27-3.61-2.32a15.68,15.68,0,0,0-2-4.16c-1-1.62-2.17-3.12-3.39-4.84-3.05,3.5-.67,7.56-1.87,11.18h-7.5V64.09c5,0,9.95-.42,14.84.1,8.22.87,12.26,8.68,8.91,14.77a14.92,14.92,0,0,1-3.09,3.69c-1,1-1.32,2.28-.65,3a18.84,18.84,0,0,1,3.12,5.23C376,92.55,376.93,94.12,378,96.09ZM359.91,74.7c0,2.55.76,3.41,2.94,3.39,2.56,0,5-1.61,5.06-3.35.1-2-2.45-3.73-5.27-3.65C360.5,71.16,359.89,72,359.91,74.7Z"/><path class="cls-1" d="M428.47,64.27c4.14,10.66,8.2,21.08,12.31,31.66h-9.47c-.74-1.66-1.09-4.3-2.49-5.11-1.77-1-4.4-.6-6.66-.71-1.63-.08-3.28,0-4.83,0l-2.73,5.82h-8.93L418,64.27ZM426,82l-2.55-7.9c-2.44,2.08-1.71,5.43-3.7,7.9Z"/><path class="cls-1" d="M500.48,225.09c-3.06,0-6.06,0-9.06,0-2.62,0-2.59.06-3.53,2.85-.19.57-.68,1-.92,1.61a6.63,6.63,0,0,0-.25,1.44h-9a18.54,18.54,0,0,0,1.18-2.51,183.47,183.47,0,0,1,6.42-17.32,99.91,99.91,0,0,0,3.53-9.52c.48-1.67,1.05-2.6,2.86-2.57,3,0,5.94,0,8.79,0,3.25,10.85,8.68,20.68,11.78,31.86-3.23.27-6.13.08-8.91.15Zm-5.1-15-.92-.18c-.51,1.53-1,3.08-1.56,4.59-.29.77-.7,1.5-1.09,2.3h6.25C497.08,214.37,496.23,212.23,495.38,210.09Z"/><path class="cls-1" d="M317.86,181.37l6.35-6.35c1.44,2.09,3.94,3.24,6.45,3.91,1.13.3,2.74-1.17,4.5-2-2.59-3-6.1-3.49-9.08-4.73-4.5-1.86-7.27-5.14-7.17-9.6.07-3,3.31-7.53,6.23-8.47,6.59-2.11,13.75-1.63,18.57,4.73l-5.7,5.7c-2.28-1.42-4.86-3.9-9-3.35,0,.72-.35,1.63,0,2.24a3.61,3.61,0,0,0,2.66,1.77,30.82,30.82,0,0,1,7.25,2.94c3.1,1.7,5.39,4.23,5,8.08-.35,3.26-.89,6.58-4.58,8-1.48,2.83-4.6,1.88-6.87,2.7-2.64.94-5.73.13-8.36-1.21C321.83,184.57,319.33,183.77,317.86,181.37Z"/><path class="cls-1" d="M409.83,203.68,404,209.42a35.08,35.08,0,0,0-4.26-2.91,4.76,4.76,0,0,0-3.28-.31c-.73.21-1.19,1.35-1.87,2.21,2.59,1,4.59,2.31,7.14,2.87,3,.67,6.44,1.9,7.52,5.64a12.09,12.09,0,0,1,.65,2.72c.1,2,0,4,0,6-2.14,2-3.82,4.87-6.77,5.34s-5.8,1.9-9,.93c-5.52-1.68-5.55-1.59-9.73-5.77l5.73-5.74c4,2.75,4,2.75,10.3,2.65,1.29-1.95.28-2.71-1.51-3.45-2.85-1.18-5.86-1.75-8.63-3.36-3-1.74-4.05-3.89-4.51-7.16-.94-6.6,5.28-10.48,10.84-11S406.66,199.46,409.83,203.68Z"/><path class="cls-1" d="M405,185.92V154.24h21.68V162H414.1v3.91c3.33.43,6.94-.06,10.65.25V174H414V178h12.77v7.89Z"/><path class="cls-1" d="M402.66,72.09H391.07L390.88,76h9.81v8H391.1v3.74c-.08-.1,0,.13.14.13,3.78,0,7.57,0,11.51,0v7.94H382V64.3h20.62Z"/><path class="cls-1" d="M432,185.92V154.25h20.67V162H440.35c-.35,3.42.06,4,2.85,4.08,2.47,0,4.94,0,7.56,0V174H440v4h12.77v7.88Z"/><path class="cls-1" d="M422.91,231h-7.83V199.09c4.91,0,9.7-.08,14.49,0a10.75,10.75,0,0,1,7.86,3.92,11,11,0,0,1-.57,14.69,10.15,10.15,0,0,1-8.1,3.35c-6.71-.28-5.9.77-5.85,6C422.92,228.24,422.91,229.41,422.91,231Zm0-21.1c0,3.34.44,4.08,2.66,4.18,3.1.15,5.37-1.58,5.34-4.06,0-2.28-2.05-3.88-5-3.94C423.61,206.05,422.94,206.89,422.91,209.91Z"/><path class="cls-1" d="M472.93,231h-9V207.13H455.1v-7.7c-.08.08,0-.06.14-.15a.78.78,0,0,1,.42-.18h25.06v8h-7.79Z"/><path class="cls-1" d="M482.74,162.1h-8.67v23.8c-3,.44-5.93,0-9,.26V162.28h-8v-7.86c-.06.05.05-.08.19-.17a.83.83,0,0,1,.43-.15h25Z"/><path class="cls-1" d="M438.09,64.17h25.64v7.74h-7.65V96c-3,.25-5.93.06-9,.14V72.37c-3-.68-6,.06-9-.45Z"/><path class="cls-1" d="M354.08,162.1h-8v-7.68c-.06.05.05-.08.19-.17a.83.83,0,0,1,.43-.15h25v7.83h-8.67v24c-3,.44-5.93,0-9,.26Z"/><path class="cls-1" d="M425.81,263.61c1.66,4.4,5.19,7.59,6.32,12-2.78,1.38-4.56.25-5.79-1.62-2-3.09-3.85-6.36-5.85-9.73H415v11.87a21.73,21.73,0,0,1-2.72,0,2.34,2.34,0,0,1-2.37-2.48c0-8.63,0-17.26,0-25.9,0-1.71.93-2.54,2.74-2.58a59.56,59.56,0,0,1,9.45.08c3.05.44,6.28,1.24,8.28,3.94,2.71,3.66,2.25,10.56-2.38,13A22.49,22.49,0,0,0,425.81,263.61Zm-1.22-13.34h-9.68c0,1.81,0,3.45,0,5.1s.11,3.17.17,4.72c1.71,0,3,.05,4.37,0a9.69,9.69,0,0,0,2.33-.38c4.7-1.48,5.11-2.07,5.08-7.08Z"/><path class="cls-1" d="M516,230.93V199.28h7.59c-.08-.08.06,0,.15.15a.77.77,0,0,1,.17.42c0,7.63,0,15.26,0,23.06h14.85c.31,2.71.07,5.28.17,8Z"/><path class="cls-1" d="M371.74,276a10.56,10.56,0,0,1-1.59.1c-2.6-.2-3.19-.73-3.23-3.12-.05-3.15,0-6.3,0-9.66H351v12.6h-3.72c-.49-.43-.7-17.41-.17-30.63h3.7v12.67h16.14c0-2.81,0-5.75,0-8.69,0-4,.13-4.07,4.82-4Z"/><path class="cls-1" d="M389.08,245.19H394c4.11,10,8.35,20,12.53,30.65l-5,.29-3.51-7.86h-14c-.42,1.34-.83,3-1.44,4.53-1.16,3-1.62,3.2-5.75,3.11-.12-3.87,2.31-7,3.3-10.46s3.4-6.57,4.6-10S387.1,248.38,389.08,245.19Zm-3,18.74h9.81c-.1-4.9-3.6-8.36-4.47-13.19C389.56,255.42,387.87,259.61,386.12,263.93Z"/><path class="cls-1" d="M341.87,248.32l-2.61,3.85c-2.13-.4-3.84-2.77-6.45-2.08-2.94-2.07-5.4.24-7.54,1.39a8.22,8.22,0,0,0-4.4,6.54c-.1,1.22-1.28,2.88-.83,3.48,1.21,1.62.77,3.75,2,5.19s2.4,3.4,3.89,3.71c2.29.46,4.36,2.83,7.1,1.16.87-.53,2.28-.1,3.25-.53a12,12,0,0,0,2.63-2.24l2.92,3.94a16.64,16.64,0,0,1-9.95,3.51c-6.24.37-10.46-2.57-14.14-6.89a10.44,10.44,0,0,1-1.44-3.37c-3.41-9.54,2.69-18,9.78-20.46,1.77-.63,3.88-.2,5.81-.45C335.66,244.57,338.66,246.2,341.87,248.32Z"/><path class="cls-1" d="M451.83,199.26v31.66h-7.59c.05.06-.09,0-.17-.18a.89.89,0,0,1-.15-.44c0-10.29,0-20.57,0-31Z"/><path class="cls-1" d="M489.91,276.09c-1,0-1.46,0-2,0-2.29-.23-3-.82-3-2.83a57,57,0,0,1,0-6,9.07,9.07,0,0,0-1.66-5.32c-2.74-4.69-5.45-9.39-8.09-14.14a6.27,6.27,0,0,1-.33-2.28c2.84-1.45,4.75,0,5.92,2,2.33,4,4.27,8.22,6.64,12.88l8.87-15.17h4.89c-.71,1.48-1.21,2.73-1.87,3.89-2.44,4.33-4.88,8.65-7.42,12.92a13.15,13.15,0,0,0-2,8.17C490,272.06,489.91,273.89,489.91,276.09Z"/><path class="cls-1" d="M462.91,249.92c0,7.67,0,14.82,0,22,0,4.11,0,4.11-5,4.09V250.32c-3.18-.53-6.46,0-10-.37,0-.82,0-1.61,0-2.4a2.27,2.27,0,0,1,2.41-2.43c7.13-.05,14.25,0,21.48,0v4.83Z"/><path class="cls-1" d="M443.76,276h-4.7V245.34h4.7Z"/><path class="cls-1" d="M116,128.09c5.55-1.11,10.48,2.28,15.57,5.15,2.93,4.25,6.75,8,8.31,13,1,3.13,2.11,6.49,1.87,9.64a34.74,34.74,0,0,1-2.87,11.74,38.43,38.43,0,0,1-8.33,11.92c-3.52,3.31-7.31,7-12.58,8-3.93.75-7.82,2-11.85,1.46-2.6-.37-5.5-.7-7.6-2.07a35.58,35.58,0,0,1-11.35-11.1,29.53,29.53,0,0,1-4.28-16.75,24.88,24.88,0,0,1,2.2-9.09c2.43-5.59,5-11.3,9.82-15.44a27.84,27.84,0,0,1,11.22-5.49,32.86,32.86,0,0,1,4.59-1A52.1,52.1,0,0,1,116,128.09ZM94.91,160.47a38.8,38.8,0,0,0,0,4.66,14.3,14.3,0,0,0,5.35,9.72c4.81,3.66,13.76,2.66,18.65-1.14a29.7,29.7,0,0,0,6.15-6.44c3.52-5.07,6.43-10.46,3.84-17.06-2.82-7.16-7.52-11.05-15.35-11.18-3.37-.05-6,1.66-8.83,2.86A11,11,0,0,0,99,146.83C96.8,151.34,93.93,155.71,94.91,160.47Z"/><path class="cls-1" d="M205.91,170.3a29.05,29.05,0,0,1-4,17.57,23.18,23.18,0,0,1-14.28,10.26c-3.27.87-6.33,1.62-9.7.05-1.95-.9-4.58.8-6.53-1.09-8.64-1.68-13.43-7.46-16.26-15.31-1.56-4.36-1.25-10.63-.44-16.12.42-2.88,1.49-5.4,2.22-8.1,1.59-5.85,6.13-9.1,10.58-12.47,3.36,0,6.11-2.49,9.66-2.06,3.83.46,7.72-.27,11.57,1,4.79,1.56,9.21,3.68,12.13,7.76,1.93,2.71,4,5.58,4.42,9.12.11.92.59,1.8.64,2.71C206,165.6,205.91,167.6,205.91,170.3Zm-11,1a17,17,0,0,0-5.28-13.2c-2.87-2.92-6.74-2.34-9.86-4-3.37,2-7.58,2.15-10.07,6.2a25.46,25.46,0,0,0-3.45,8.08c-1.15,5.37-.37,10.63,4,14.49,2.08,1.83,4.53,3.41,7.62,3.25,1.55-.07,3,.9,4.7.06,1.49-.74,3.69-.37,4.9-1.33C191.9,181.35,195.24,177.09,194.93,171.34Z"/><path class="cls-1" d="M73.94,208.46c1.72-.91,2.4-3,5-3.51,4.41-.81,6.75-.72,9.74,2.41,4.65,4.87,9.11,9.92,13.82,14.73A27.56,27.56,0,0,0,114,229.15a25.75,25.75,0,0,1,5.48,2.33c2,1.22,4.46-.64,5.9,1.57,0,.09.31,0,.47,0,6.19.23,12.33,1.62,18.56,1,.89-.09,1.73-.89,2.59-.89a8.77,8.77,0,0,1,2.59.92c2.89,1,4.39,3.94,3.12,6.57-.33.7-1.49,1.15-2.35,1.4-3,.85-5.85,2.55-9.16,2-5.59,2.06-11.44,1.22-17,.8a56.1,56.1,0,0,1-15.51-3.39,77.46,77.46,0,0,1-14-7.16,68.49,68.49,0,0,1-15.33-13.51C76.36,217.43,73.28,213.75,73.94,208.46Z"/><path class="cls-1" d="M166.94,238.27c-.37-5.43,1.72-10,3.88-14.55,2.24-4.73,4.66-9.38,7-14.05a9.68,9.68,0,0,1,1.42-2.39c1.68-1.81,3.82-1.82,5.4.15,1.26,1.56,2.09,3.46,3.23,5.13,3.41,5,6.78,10.05,9,15.73,1.12,2.87,2.68,5.79,2.81,8.74a25,25,0,0,1-1,7.51c-.7,2.43-2.71,4.59-4.46,6.58A12.33,12.33,0,0,1,190,254a12.57,12.57,0,0,1-8,1,22.54,22.54,0,0,1-10.18-5.51C168.54,246.4,166.28,242.86,166.94,238.27Z"/></g></g></svg>