<svg xmlns="http://www.w3.org/2000/svg" viewBox="0 0 47.46 42.37"><defs><style>.cls-1{fill:#ffe;}</style></defs><title>phone</title><g id="Layer_2" data-name="Layer 2"><g id="Layer_1-2" data-name="Layer 1"><path class="cls-1" d="M46.21,15.64a4.34,4.34,0,0,0,1.24-3.3c0-.6-.07-1.2-.11-1.8l-.12-1.79a4.62,4.62,0,0,0-.7-2.23A6.64,6.64,0,0,0,44.2,4.31,26.37,26.37,0,0,0,38.73,2,53,53,0,0,0,23,0h0A52.53,52.53,0,0,0,10.75,1.43,27,27,0,0,0,3.14,4.37,5.37,5.37,0,0,0,.21,8.74l0,.73C.1,10.38,0,11.3,0,12.21A4.45,4.45,0,0,0,1.33,15.7a4.28,4.28,0,0,0,3,1.13l.54,0c1.64-.17,3.11-.37,4.49-.63q-.15.3-.27.6c-.07.16-.13.32-.2.47A76,76,0,0,0,3.24,31.33a25.77,25.77,0,0,0-1.16,7.84c0,.51,0,1,0,1.52l0,.86a2.21,2.21,0,0,0,0,.38l.05.44h43.1v-.51c0-.61,0-1.22,0-1.82a28.84,28.84,0,0,0-.2-4.15,44.33,44.33,0,0,0-1.56-6.65A80,80,0,0,0,38,16.14a36.21,36.21,0,0,0,5.26.67A3.9,3.9,0,0,0,46.21,15.64ZM42.79,39.92H4.63V38.08H42.79ZM41.14,29.75c.43,1.39.76,2.84,1.09,4.24.11.51.23,1,.36,1.57H4.78c0-.21.09-.43.14-.64.19-.91.38-1.8.61-2.68a75.12,75.12,0,0,1,5.64-14.11c.18-.38.31-.45.69-.45q12,0,24,0c.17,0,.2,0,.29.18A78.92,78.92,0,0,1,41.14,29.75ZM12.38,10.82a2.72,2.72,0,0,1-.19-.66L12.11,10l.14,0,.82-.2a50.15,50.15,0,0,1,7-1.35,38.9,38.9,0,0,1,7.24,0,47.75,47.75,0,0,1,7.21,1.4,6.94,6.94,0,0,1,.75.23,4.05,4.05,0,0,1-.27.89,3.94,3.94,0,0,0,.15,3.34,3.81,3.81,0,0,0,.85,1H32.92V9.53H31.57c-.67,0-1.33,0-2,0a1.2,1.2,0,0,0-1.17.69A5,5,0,0,1,24.29,13,5.12,5.12,0,0,1,19,10.15a1.07,1.07,0,0,0-.79-.6c-.8,0-1.6,0-2.42,0H14.49v5.73h-2.4l-.53,0h-.15A3.83,3.83,0,0,0,12.34,14,3.61,3.61,0,0,0,12.38,10.82ZM30.46,12v3.26H25.88a7.6,7.6,0,0,0,4.05-2.86C30.12,12.11,30.26,12,30.46,12Zm-8.93,3.26H17V12c.19,0,.33.15.51.4A7.63,7.63,0,0,0,21.53,15.23Zm16.11-4.62a5.32,5.32,0,0,0,0-.79A2.1,2.1,0,0,0,36,7.6,57.23,57.23,0,0,0,28.2,6a39.18,39.18,0,0,0-14,.92l-2.68.66a2.17,2.17,0,0,0-1.8,2.29,6.66,6.66,0,0,0,.06.76l-7.27.85a2.45,2.45,0,0,1,0-.27c0-.65.09-1.27.1-1.91a3.18,3.18,0,0,1,1.92-2.9,27.89,27.89,0,0,1,8.57-2.94,57.32,57.32,0,0,1,15.65-.77A40.83,40.83,0,0,1,39.19,4.75,30.17,30.17,0,0,1,43,6.5a4.19,4.19,0,0,1,1.3,1.19,2.77,2.77,0,0,1,.41,1.23c.09.71.13,1.42.17,2.18,0,.12,0,.24,0,.36Z"/><path class="cls-1" d="M23.75,18.17h0a8.49,8.49,0,0,0,0,17h0a8.49,8.49,0,0,0,0-17Zm0,2.44a6,6,0,0,1,0,12.08h0a6.12,6.12,0,0,1-6-6,6,6,0,0,1,1.8-4.27A5.89,5.89,0,0,1,23.74,20.61Z"/><path class="cls-1" d="M23.71,29.32h0a2.63,2.63,0,0,0,2.64-2.68A2.67,2.67,0,0,0,23.72,24h0a2.66,2.66,0,0,0-2.66,2.65,2.65,2.65,0,0,0,2.66,2.69Zm-.22-2.66a.24.24,0,0,1,.22-.23h0a.2.2,0,0,1,.16.07.19.19,0,0,1,.07.15.25.25,0,0,1-.22.23h0A.25.25,0,0,1,23.49,26.66Z"/></g></g></svg>