<svg xmlns="http://www.w3.org/2000/svg" viewBox="0 0 224.48 155.42"><defs><style>.cls-1{fill:red;}</style></defs><title>quote-marks</title><g id="Layer_2" data-name="Layer 2"><g id="Layer_1-2" data-name="Layer 1"><path class="cls-1" d="M14.08,145.41Q0,135.39,0,118.08,0,80.73,30.67,49A215.34,215.34,0,0,1,102.22,0l5.43,28.58a110.39,110.39,0,0,0-23.78,17q-10.23,9.7-15.23,19.09Q84.9,66.55,96.28,76.15t11.37,26.07q0,21.91-19.51,37.56T44.65,155.42A51.72,51.72,0,0,1,14.08,145.41Zm116.83,0q-14.09-10-14.08-27.33,0-37.35,30.67-69A215.34,215.34,0,0,1,219.05,0l5.43,28.58a110.46,110.46,0,0,0-23.79,17q-10.22,9.7-15.23,19.09,16.28,1.88,27.65,11.48t11.37,26.07q0,21.91-19.51,37.56t-43.5,15.64A51.69,51.69,0,0,1,130.91,145.41Z"/></g></g></svg>