<svg xmlns="http://www.w3.org/2000/svg" viewBox="0 0 255.34 154.96"><defs><style>.cls-1{fill:#fe2f19;}</style></defs><title>shr-logo</title><g id="Layer_2" data-name="Layer 2"><g id="Layer_1-2" data-name="Layer 1"><path d="M202.2,57.29v16.2H182V0h1.12q24.09,0,48.19,0c10.32,0,17.57,5,22.13,14a18.39,18.39,0,0,1,1.92,8.27c0,4.45.13,8.92-.24,13.35-.53,6.35-3.88,11.28-8.73,15.23a22.49,22.49,0,0,1-15.48,5c-.46,0-.93,0-1.39,0,0,0-.05.06-.16.24l24.32,17.33c-.64.05-1,.09-1.29.09-9.26,0-18.53,0-27.79,0a3.43,3.43,0,0,1-1.9-.66q-9.57-7.26-19.09-14.59Zm0-21.85c.38,0,.65.05.92.05h26.37c.31,0,.62,0,.93-.05a5,5,0,0,0,4.48-4.77c0-1.49-.08-3,0-4.46.28-3.56-2.31-5.84-5.75-5.79-8.56.12-17.11,0-25.67,0h-1.31Z"/><path d="M4.59,73.58V53.25H6q21.28,0,42.57,0a5.82,5.82,0,0,0,2.87-.74,3.65,3.65,0,0,0,1.7-4.14,4.18,4.18,0,0,0-3.62-3.06,13,13,0,0,0-1.4,0c-9,0-18,.07-27-.05C14.24,45.1,8.88,41.83,4.9,36.44c-6-8.15-6.53-16.88-1.35-25.56C7.62,4.06,13.71,0,21.94,0,37.46,0,53,0,68.5,0c.19,0,.39,0,.66,0v20.4H67.75q-21.28,0-42.57,0a4.44,4.44,0,0,0-4,1.83A3.89,3.89,0,0,0,24,28.36c.42,0,.85,0,1.28,0,8.49,0,17,.21,25.45-.05,11.94-.36,20.67,9,22.41,18a22.15,22.15,0,0,1-6.24,20.76,21.26,21.26,0,0,1-16,6.5c-15-.07-29.95,0-44.92,0Z"/><path class="cls-1" d="M178.25,54.67H164.56V73.52H144.17c0-.43,0-.84,0-1.25,0-6,0-12,0-18.06a2.06,2.06,0,0,0-.86-1.87c-4.82-3.79-9.61-7.63-14.41-11.45-.33-.27-.68-.52-1.11-.84L124,43c-4,3.17-7.94,6.34-11.93,9.48a1.77,1.77,0,0,0-.76,1.57c0,6,0,12,0,18.06v1.38c-.47,0-.85.07-1.23.07-5.94,0-11.88,0-17.82,0-1,0-1.32-.26-1.31-1.31,0-5.39,0-10.78,0-16.18V54.66H77.31l-.12-.35,50.58-40.25L178.4,54.35Z"/><path d="M91.06,37.08V.08h20.27v1.2c0,6.21,0,12.43,0,18.64a2,2,0,0,1-.82,1.78c-6.14,4.83-12.24,9.71-18.36,14.57C91.84,36.53,91.5,36.75,91.06,37.08Z"/><path d="M144.21.06h20.27v37c-.37-.26-.67-.45-.95-.68q-9.41-7.45-18.79-14.95a1.71,1.71,0,0,1-.6-1.15c0-6.6,0-13.2,0-19.81A2,2,0,0,1,144.21.06Z"/><path d="M17.89,147.16H12.63V122.92s.1-.13.15-.13c4.17.09,8.38-.14,12.5.37,5.43.68,7.8,6.74,4.66,11.22A6.37,6.37,0,0,1,28.25,136a17.27,17.27,0,0,1-2.19,1l3,5,3.1,5.2c-2.18,0-4.14,0-6.11,0-.29,0-.65-.48-.83-.82-1.39-2.62-2.75-5.26-4.12-7.89a2.29,2.29,0,0,0-2.83-1c-.22.12-.34.64-.34,1,0,2.5,0,5,0,7.5C17.94,146.35,17.91,146.73,17.89,147.16ZM18,133c1.94-.11,3.73-.12,5.5-.33a2.27,2.27,0,0,0,2.08-2.32c.1-1.36-.44-2.42-1.77-2.65-1.88-.33-3.82-.36-5.81-.52Z"/><path d="M121.9,89.68h5.28v9h10.4v-9H143v24.43h-5.29V103.69H127.23v10.43H121.9Z"/><path d="M94.85,112.44v9.49H89.73V97.38h4.68l.13,1.83a18.7,18.7,0,0,1,2.1-1.47,7.7,7.7,0,0,1,10,3.1,10,10,0,0,1-1.63,11.78,7.45,7.45,0,0,1-9.56.36C95.36,112.86,95.22,112.75,94.85,112.44Zm3.89-10.93a3.84,3.84,0,0,0-4.27,4c-.08,2.67,1.46,4.37,4,4.43a4.24,4.24,0,0,0,.26-8.47Z"/><path d="M59.77,145.57V155H54.63v-24.5h4.64v1.92a20.51,20.51,0,0,1,2-1.48A7.64,7.64,0,0,1,71.6,134a9.78,9.78,0,0,1-.71,10.54C68.46,148.16,63.17,148.64,59.77,145.57Zm3.69-11a4.25,4.25,0,1,0,4.13,4.24A3.93,3.93,0,0,0,63.46,134.55Z"/><path d="M33.13,111.64l3.77-4.15a6,6,0,0,0,5.83,2.13,4.77,4.77,0,0,0,1.32-.44,2.12,2.12,0,0,0,.25-3.79,24.12,24.12,0,0,0-3.53-1.53c-1.05-.43-2.15-.72-3.16-1.22a6.6,6.6,0,0,1-1.73-10.72c2.64-2.68,5.9-3.13,9.42-2.68a9.11,9.11,0,0,1,5.39,2.41l-3.62,4a5.52,5.52,0,0,0-5.49-1.32c-1,.29-1.89.76-2,2a2.18,2.18,0,0,0,1.61,2.42c1.19.48,2.48.74,3.63,1.29a14.84,14.84,0,0,1,4.4,2.51c2.79,2.88,1.88,8-1.58,10.48C43.61,115.79,36.93,115.21,33.13,111.64Z"/><path d="M198.25,147.59c-6.31,0-10.42-5.07-9-11.07.86-3.75,4.23-6.26,8.71-6.5a8.82,8.82,0,0,1,9.53,10.37C206.83,144.57,202.94,147.62,198.25,147.59Zm-4.12-8.8a4.13,4.13,0,1,0,4.12-4.24A3.91,3.91,0,0,0,194.13,138.79Z"/><path d="M76.87,114.51c-6.41,0-10.64-5.25-9-11.23a9.07,9.07,0,0,1,9.31-6.35c4.3.29,7.45,2.47,8.57,5.95C87.67,108.91,83.42,114.49,76.87,114.51Zm-4.14-8.75A3.87,3.87,0,0,0,76.84,110a4.24,4.24,0,0,0-.06-8.47C74.26,101.53,72.72,103.14,72.73,105.76Z"/><path d="M156,114.51c-6.6,0-10.88-5.68-8.84-11.72,1.16-3.45,4.23-5.56,8.51-5.85a9,9,0,0,1,9.38,6.54C166.51,109.46,162.36,114.52,156,114.51Zm4.12-8.81a3.85,3.85,0,0,0-4.13-4.19,4.24,4.24,0,0,0,.08,8.47C158.64,110,160.17,108.32,160.16,105.7Z"/><path d="M84.52,147.59c-6.54,0-10.81-5.57-8.91-11.6,1.12-3.55,4.38-5.8,8.65-6s8.3,2.54,9.26,6.4C95,142.43,90.85,147.59,84.52,147.59Zm4.09-8.8a4.13,4.13,0,1,0-8.25,0,3.94,3.94,0,0,0,4.18,4.3A3.9,3.9,0,0,0,88.61,138.79Z"/><path d="M51,140.44H39.16a3,3,0,0,0,2.12,2.92,4.34,4.34,0,0,0,5.22-1.76l3.78,2.78a29.49,29.49,0,0,1-3,2.15,9.48,9.48,0,0,1-12.49-3.42,8.71,8.71,0,0,1,6.71-13,11.44,11.44,0,0,1,3.6.17c3.45.79,5,3.32,5.61,6.6C51,138,50.94,139.14,51,140.44Zm-5.4-3.68a3,3,0,0,0-3.29-3c-2,.11-3.36,1.42-3.19,3Z"/><path d="M145.43,140.45H133.55a3.45,3.45,0,0,0,2.21,2.87,4.33,4.33,0,0,0,5.31-1.71l3.63,2.66a8.67,8.67,0,0,1-6.4,3.28c-3.82.16-7-1.08-9-4.57a8.64,8.64,0,0,1,4.85-12.41c4.2-1.35,8-.22,9.94,2.93A12,12,0,0,1,145.43,140.45Zm-11.78-3.71h6.55a2.94,2.94,0,0,0-3.09-3A3.21,3.21,0,0,0,133.65,136.74Z"/><path d="M215.83,147.18h-5.14V130.44h4.94v2.07a6.43,6.43,0,0,1,6.31-2.42,4.89,4.89,0,0,1,4.34,3.84,10.56,10.56,0,0,1,.43,2.53c0,3.55,0,7.09,0,10.7H221.6c0-1.83,0-3.61,0-5.39,0-1.6,0-3.21-.17-4.79a2.34,2.34,0,0,0-2.6-2.41,2.71,2.71,0,0,0-2.87,2.65c-.12,1.94-.1,3.9-.12,5.85C215.82,144.39,215.83,145.71,215.83,147.18Z"/><path d="M220.83,107.42H208.94a3.6,3.6,0,0,0,2.47,3c1.68.6,3.18.06,5.1-1.8l3.52,2.59c-2.33,3.17-7.16,4.26-11.06,2.56a8.59,8.59,0,0,1-5.17-9.63,8.7,8.7,0,0,1,7.86-7.06c5.36-.53,8.88,2.48,9.17,7.87C220.87,105.69,220.83,106.46,220.83,107.42Zm-5.23-3.62a2.93,2.93,0,0,0-3.09-3.11A3.18,3.18,0,0,0,209,103.8Z"/><path d="M168.53,97.39h5.1c0,.94,0,1.83,0,2.71,0,2.35,0,4.69.05,7,0,1.78.89,2.7,2.36,2.82a2.69,2.69,0,0,0,3.16-2.43,13.66,13.66,0,0,0,.16-2.56c0-2.5,0-5,0-7.55h5.11V114.1h-4.84c0-.66-.06-1.27-.09-2a13.3,13.3,0,0,1-1.77,1.53,6.86,6.86,0,0,1-6,.43A4.44,4.44,0,0,1,169,111a8.26,8.26,0,0,1-.43-2.18C168.51,105,168.53,101.25,168.53,97.39Z"/><path d="M55.87,101.53H52.54V97.39H55.7V92.47h5.24V97.3h4.51v4.17H61.1c0,2.47,0,4.8,0,7.12a1.51,1.51,0,0,0,1.54,1.49c.92.07,1.84,0,2.87,0,0,1,0,2.15,0,3.31a1.08,1.08,0,0,1-.63.77,10.6,10.6,0,0,1-6.11-.18,4,4,0,0,1-2.88-3.75C55.81,107.4,55.87,104.55,55.87,101.53Z"/><path d="M109.42,132.19l-3.06,3.09a9.73,9.73,0,0,0-.79-.65,3.13,3.13,0,0,0-3.2-.44,1.61,1.61,0,0,0-.82,1.1c0,.31.43.83.78,1a27,27,0,0,0,2.7.77,20.22,20.22,0,0,1,2,.61,4.35,4.35,0,0,1,3.06,3.53,5,5,0,0,1-2.07,5c-2.49,1.9-9.61,2-12.14-.92l3.1-3.45a4.41,4.41,0,0,0,4.38,1.73c.57-.1,1.38-.51,1.52-1,.25-.81-.53-1.2-1.24-1.4-1.16-.33-2.35-.59-3.51-.91-2-.56-3.49-1.62-3.79-3.82A5.11,5.11,0,0,1,99.09,131C102.08,129.29,107.22,129.87,109.42,132.19Z"/><path d="M161.25,132.16c-1.06,1.06-2.05,2-3.11,3.08a10.7,10.7,0,0,0-.86-.65,3.11,3.11,0,0,0-3.21-.38,1.46,1.46,0,0,0-.75,1,1.35,1.35,0,0,0,.75,1,29.24,29.24,0,0,0,2.81.81,16.64,16.64,0,0,1,2.32.78A4.72,4.72,0,0,1,160,146c-2.43,1.83-5.25,1.76-8.08,1.38a7.09,7.09,0,0,1-4.29-2.08l3.06-3.41.87.74a4.49,4.49,0,0,0,4.19.82c.38-.1.92-.57.92-.86a1.58,1.58,0,0,0-.74-1.15,11.71,11.71,0,0,0-2.22-.7c-.68-.19-1.38-.3-2-.52-2-.62-3.38-1.77-3.58-4a5.07,5.07,0,0,1,2.35-5,10.15,10.15,0,0,1,9.93.18C160.69,131.62,161,131.9,161.25,132.16Z"/><path d="M115,141.82a4.46,4.46,0,0,0,4.64,1.7c.48-.09.88-.61,1.32-.93-.37-.44-.65-1.11-1.12-1.29-1.15-.44-2.4-.64-3.6-1-2.53-.7-3.68-1.95-3.93-4.2a5.17,5.17,0,0,1,2.87-5.2c3-1.61,8-1,10.13,1.13l-3.15,3s-.27-.23-.54-.42a3.19,3.19,0,0,0-3.2-.5,1.62,1.62,0,0,0-.88,1.07,1.51,1.51,0,0,0,.85,1.05,27.6,27.6,0,0,0,2.69.78,15.14,15.14,0,0,1,2.33.77,4.74,4.74,0,0,1,.75,8.24c-2.47,1.76-5.28,1.74-8.1,1.28a6.25,6.25,0,0,1-4.15-2.1Z"/><path d="M187.15,112.32l2.89-3.21a27.84,27.84,0,0,0,3.85,1.43c.85.18,2.11.21,2.35-1s-1-1.36-1.86-1.62-2-.49-2.95-.77c-2-.57-3.46-1.65-3.72-3.86a4.88,4.88,0,0,1,2.51-5.26,9.61,9.61,0,0,1,9.72.26,5.2,5.2,0,0,1,.82.68l-3.12,3.13a3.51,3.51,0,0,0-3.43-1.14c-.51.13-.9.7-1.34,1.07.37.43.66,1.07,1.13,1.25,1.2.45,2.49.64,3.72,1,2.57.78,3.67,2.14,3.8,4.57a4.76,4.76,0,0,1-3.35,4.84,11.79,11.79,0,0,1-9.23-.27A14.57,14.57,0,0,1,187.15,112.32Z"/><path d="M177.17,132.2l-3.09,3.09a3.76,3.76,0,0,0-3.33-1.31c-.71.09-1.54.33-1.45,1.2a1.93,1.93,0,0,0,1.12,1.21c1.17.43,2.42.63,3.61,1,2.63.8,3.74,2.13,3.87,4.51a4.78,4.78,0,0,1-3.37,5,11.78,11.78,0,0,1-9.12-.26,14.48,14.48,0,0,1-1.85-1.21l3.17-3.54a4.6,4.6,0,0,0,4.14,1.76c.72-.08,1.63,0,1.79-1s-.69-1.29-1.46-1.5c-1.09-.3-2.19-.55-3.28-.85-2-.56-3.55-1.64-3.82-3.9a5,5,0,0,1,2.82-5.43,10,10,0,0,1,9.23.31,4,4,0,0,1,.74.56A2.24,2.24,0,0,1,177.17,132.2Z"/><path d="M243,132.21l-3.15,3c-.17-.14-.42-.36-.69-.55a3.15,3.15,0,0,0-3.31-.45,1.4,1.4,0,0,0-.73,1,1.37,1.37,0,0,0,.73,1,26.86,26.86,0,0,0,2.69.79,20,20,0,0,1,2.13.64,4.31,4.31,0,0,1,3,3.7,4.9,4.9,0,0,1-2.14,4.86c-2.51,1.85-9.44,2-12.07-1l3.1-3.47a4.49,4.49,0,0,0,4.12,1.78c.72-.08,1.63,0,1.79-.95s-.67-1.3-1.45-1.51c-1.09-.3-2.2-.54-3.28-.84-2.41-.68-3.59-2-3.81-4a5.09,5.09,0,0,1,2.8-5.33C235.68,129.31,240.79,129.9,243,132.21Z"/><path d="M180.73,130.42h5v16.74h-5Z"/><path d="M183.29,122.11a3.07,3.07,0,0,1,3,3,3,3,0,1,1-6-.07A3,3,0,0,1,183.29,122.11Z"/></g></g></svg>