<svg xmlns="http://www.w3.org/2000/svg" viewBox="0 0 255.34 73.61"><defs><style>.cls-1{fill:#fd2f19;}</style></defs><title>shr-logo-small</title><g id="Layer_2" data-name="Layer 2"><g id="Layer_1-2" data-name="Layer 1"><path d="M202.2,57.29v16.2H182V0h1.12q24.09,0,48.19,0c10.32,0,17.57,5,22.13,14a18.39,18.39,0,0,1,1.92,8.27c0,4.45.13,8.92-.24,13.35-.53,6.35-3.88,11.28-8.73,15.23a22.49,22.49,0,0,1-15.48,5c-.46,0-.93,0-1.39,0,0,0-.05.06-.16.24l24.32,17.33c-.64.05-1,.09-1.29.09-9.26,0-18.53,0-27.79,0a3.43,3.43,0,0,1-1.9-.66q-9.57-7.26-19.09-14.59Zm0-21.85c.38,0,.65.05.92.05h26.37c.31,0,.62,0,.93-.05a5,5,0,0,0,4.48-4.77c0-1.49-.08-3,0-4.46.28-3.56-2.31-5.84-5.75-5.79-8.56.12-17.11,0-25.67,0h-1.31Z"/><path d="M4.59,73.58V53.25H6q21.28,0,42.57,0a5.82,5.82,0,0,0,2.87-.74,3.65,3.65,0,0,0,1.7-4.14,4.18,4.18,0,0,0-3.62-3.06,13,13,0,0,0-1.4,0c-9,0-18,.07-27-.05C14.24,45.1,8.88,41.83,4.9,36.44c-6-8.15-6.53-16.88-1.35-25.56C7.62,4.06,13.71,0,21.94,0,37.46,0,53,0,68.5,0c.19,0,.39,0,.66,0v20.4H67.75q-21.28,0-42.57,0a4.44,4.44,0,0,0-4,1.83A3.89,3.89,0,0,0,24,28.36c.42,0,.85,0,1.28,0,8.49,0,17,.21,25.45-.05,11.94-.36,20.67,9,22.41,18a22.15,22.15,0,0,1-6.24,20.76,21.26,21.26,0,0,1-16,6.5c-15-.07-29.95,0-44.92,0Z"/><path class="cls-1" d="M178.25,54.67H164.56V73.52H144.17c0-.43,0-.84,0-1.25,0-6,0-12,0-18.06a2.06,2.06,0,0,0-.86-1.87c-4.82-3.79-9.61-7.63-14.41-11.45-.33-.27-.68-.52-1.11-.84L124,43c-4,3.17-7.94,6.34-11.93,9.48a1.77,1.77,0,0,0-.76,1.57c0,6,0,12,0,18.06v1.38c-.47,0-.85.07-1.23.07-5.94,0-11.88,0-17.82,0-1,0-1.32-.26-1.31-1.31,0-5.39,0-10.78,0-16.18V54.66H77.31l-.12-.35,50.58-40.25L178.4,54.35Z"/><path d="M91.06,37.08V.08h20.27v1.2c0,6.21,0,12.43,0,18.64a2,2,0,0,1-.82,1.78c-6.14,4.83-12.24,9.71-18.36,14.57C91.84,36.53,91.5,36.75,91.06,37.08Z"/><path d="M144.21.06h20.27v37c-.37-.26-.67-.45-.95-.68q-9.41-7.45-18.79-14.95a1.71,1.71,0,0,1-.6-1.15c0-6.6,0-13.2,0-19.81A2,2,0,0,1,144.21.06Z"/></g></g></svg>