<svg xmlns="http://www.w3.org/2000/svg" viewBox="0 0 41.74 46.53"><defs><style>.cls-1{fill:#d39735;}</style></defs><title>tick</title><g id="Layer_2" data-name="Layer 2"><g id="Layer_1-2" data-name="Layer 1"><circle class="cls-1" cx="18.31" cy="28.22" r="18.31"/><path d="M18.91,30.08c.38-.9.76-1.79,1.15-2.69A137.44,137.44,0,0,1,34,2.5c.21-.3.43-.58.61-.9A3.09,3.09,0,0,1,37.09.07,7.72,7.72,0,0,1,40.6.39a3.33,3.33,0,0,1,.61.27c.61.38.69.78.28,1.38-1,1.48-2.08,2.91-3,4.43-2.06,3.31-4.15,6.62-6.06,10a121.69,121.69,0,0,0-9.56,21.78,2,2,0,0,1-1.45,1.39,6.47,6.47,0,0,1-4-.17A2.51,2.51,0,0,1,16,38.22c-1.64-3.18-3.27-6.37-5-9.51a28.49,28.49,0,0,0-3.84-5.36c-.85-.94-.71-1.67.48-2.13a6.1,6.1,0,0,1,4.67-.1,2.51,2.51,0,0,1,.84.65,41.8,41.8,0,0,1,5.39,7.86c.08.13.16.26.25.39S18.84,30.05,18.91,30.08Z"/></g></g></svg>