<svg xmlns="http://www.w3.org/2000/svg" viewBox="0 0 557.71 322.53"><defs><style>.cls-1{fill:#6fa558;}.cls-2{fill:#fff;}</style></defs><title>trusted-nav_2</title><g id="Layer_2" data-name="Layer 2"><g id="Layer_1-2" data-name="Layer 1"><rect class="cls-1" x="1" y="165.68" width="99" height="99" rx="11.69"/><polygon class="cls-2" points="50.5 186.23 59.91 205.29 80.94 208.34 65.72 223.18 69.31 244.13 50.5 234.24 31.69 244.13 35.28 223.18 20.06 208.34 41.09 205.29 50.5 186.23"/><rect class="cls-1" x="115.43" y="165.23" width="99" height="99" rx="11.69"/><polygon class="cls-2" points="164.93 185.78 174.34 204.84 195.37 207.89 180.15 222.73 183.74 243.68 164.93 233.79 146.12 243.68 149.71 222.73 134.49 207.89 155.52 204.84 164.93 185.78"/><rect class="cls-1" x="229.86" y="164.78" width="99" height="99" rx="11.69"/><polygon class="cls-2" points="279.36 185.33 288.76 204.39 309.8 207.44 294.58 222.28 298.17 243.23 279.36 233.34 260.55 243.23 264.14 222.28 248.92 207.44 269.95 204.39 279.36 185.33"/><rect class="cls-1" x="344.29" y="164.33" width="99" height="99" rx="11.69"/><polygon class="cls-2" points="393.79 184.88 403.19 203.94 424.22 207 409 221.83 412.6 242.78 393.79 232.89 374.97 242.78 378.57 221.83 363.35 207 384.38 203.94 393.79 184.88"/><rect class="cls-1" x="458.71" y="163.88" width="99" height="99" rx="11.69"/><polygon class="cls-2" points="508.21 184.43 517.62 203.49 538.65 206.55 523.43 221.38 527.03 242.33 508.21 232.44 489.4 242.33 493 221.38 477.78 206.55 498.81 203.49 508.21 184.43"/><path class="cls-1" d="M17.47,81.93c3.38-10.4,6.75-20.79,10.14-31.24L1,31.34a.18.18,0,0,0,0-.06s0,0,0,0H33.92L44.06,0h.1L54.29,31.23h32.9a.41.41,0,0,1,0,.07s0,0,0,0Q73.92,41,60.61,50.69L70.75,82l-.07,0L44.11,62.68,17.53,82Z"/><path class="cls-2" d="M126.44,30.32H110.07V21.45h43.3v8.87H137.08V70.8H126.44Z"/><path class="cls-2" d="M161.92,36.77l1,5.56a14.06,14.06,0,0,1,5.88-4.8,20.88,20.88,0,0,1,8.95-1.81v8.47a18.23,18.23,0,0,0-8.18,1.89,10.14,10.14,0,0,0-5.12,4.8V70.8h-10v-34Z"/><path class="cls-2" d="M187.2,68.5q-3.44-3.34-3.43-9.72v-22h9.92V56.52a7.12,7.12,0,0,0,1.57,5q1.58,1.74,5.12,1.74a9.8,9.8,0,0,0,6.05-1.82,9.52,9.52,0,0,0,3.39-4.88V36.77h9.83v34h-7.33l-1-5.57A15,15,0,0,1,205.62,70a17.38,17.38,0,0,1-7.9,1.85Q190.63,71.84,187.2,68.5Z"/><path class="cls-2" d="M234.61,70.76a25.46,25.46,0,0,1-7.78-3l3.22-7.09a28.67,28.67,0,0,0,13.71,3.87,16.58,16.58,0,0,0,5.85-.81c1.37-.54,2-1.26,2-2.18s-.61-1.68-1.85-2.13a42.51,42.51,0,0,0-6-1.5A58.67,58.67,0,0,1,236,56a13.78,13.78,0,0,1-5.4-3.35,8.44,8.44,0,0,1-2.3-6.25,8.78,8.78,0,0,1,4.52-8q4.51-2.7,12.66-2.7a34.46,34.46,0,0,1,15.07,3.06l-3.22,7.1q-6.85-3-11.85-3a16.68,16.68,0,0,0-5.37.68c-1.26.46-1.89,1.09-1.89,1.9s.56,1.57,1.69,2a45.19,45.19,0,0,0,5.81,1.41,64.2,64.2,0,0,1,8,1.94,13.24,13.24,0,0,1,5.56,3.47,8.87,8.87,0,0,1,2.34,6.45,9.1,9.1,0,0,1-4.71,8.3q-4.73,2.82-13.11,2.82A41.71,41.71,0,0,1,234.61,70.76Z"/><path class="cls-2" d="M277.23,68.9A10.41,10.41,0,0,1,274,60.8V43.46l-8.55-1V36.77H274V28h10v8.79h11.77v6.69H284v16a5.62,5.62,0,0,0,1.09,3.62,4.1,4.1,0,0,0,3.43,1.38,24.08,24.08,0,0,0,8.14-1.38l1.93,7.34a45.32,45.32,0,0,1-12.09,1.45Q280.46,71.84,277.23,68.9Z"/><path class="cls-2" d="M306.5,67.09q-5.17-4.76-5.17-13.31,0-8.39,4.88-13.22t13.91-4.84q8.88,0,13.27,4.76t4.39,13.3v2H311.41a7,7,0,0,0,2.79,5.36,11,11,0,0,0,7,2.06,27.54,27.54,0,0,0,5.73-.61,22.22,22.22,0,0,0,5-1.65l4,7.66q-6,3.22-15,3.22Q311.66,71.84,306.5,67.09Zm19.31-21.33a8.4,8.4,0,0,0-5.93-2,9.13,9.13,0,0,0-6.17,2,6.52,6.52,0,0,0-2.46,4.63H328A6.45,6.45,0,0,0,325.81,45.76Z"/><path class="cls-2" d="M347.1,66.8c-2.94-3.35-4.4-7.7-4.4-13a21.09,21.09,0,0,1,2-9.27,15,15,0,0,1,5.76-6.45,17,17,0,0,1,9.11-2.34q7.83,0,12.1,5.72v-20h10V70.8h-7.42l-.81-5.49a13.88,13.88,0,0,1-5.56,4.84,18.14,18.14,0,0,1-8.06,1.69Q351.49,71.84,347.1,66.8Zm21.28-5.28a8.51,8.51,0,0,0,3.27-4.43V50.48A8.53,8.53,0,0,0,368.38,46a10.08,10.08,0,0,0-6-1.69,9.45,9.45,0,1,0,0,18.87A10.08,10.08,0,0,0,368.38,61.52Z"/><path class="cls-2" d="M1,131.93c.08-1.34.16-3.34.16-5.09V103H4.71v12.39h.08a7.37,7.37,0,0,1,6.73-3.63c4.89,0,8.36,4.08,8.32,10.07,0,7.05-4.45,10.56-8.85,10.56a7,7,0,0,1-6.61-3.71H4.26l-.16,3.26ZM4.71,124a6.9,6.9,0,0,0,.16,1.31,5.55,5.55,0,0,0,5.38,4.2c3.76,0,6-3.06,6-7.59,0-4-2-7.33-5.87-7.33A5.73,5.73,0,0,0,4.91,119a7.25,7.25,0,0,0-.2,1.47Z"/><path class="cls-2" d="M25.38,112.2l4.32,11.66c.45,1.3.94,2.85,1.27,4h.08c.37-1.19.77-2.69,1.26-4.12l3.92-11.58H40l-5.38,14.07c-2.57,6.76-4.32,10.23-6.77,12.35a9.68,9.68,0,0,1-4.4,2.32l-.9-3a9.52,9.52,0,0,0,3.14-1.76,10.89,10.89,0,0,0,3-4,2.6,2.6,0,0,0,.28-.86,3.23,3.23,0,0,0-.24-.94l-7.3-18.18Z"/><path class="cls-2" d="M69.78,121.9c0,7.3-5,10.48-9.82,10.48-5.34,0-9.46-3.91-9.46-10.15,0-6.61,4.32-10.48,9.78-10.48C66,111.75,69.78,115.87,69.78,121.9Zm-15.65.21c0,4.32,2.48,7.58,6,7.58s6-3.22,6-7.66c0-3.35-1.67-7.59-5.91-7.59S54.13,118.36,54.13,122.11Z"/><path class="cls-2" d="M90.82,126.55c0,2,0,3.83.17,5.38H87.81l-.21-3.22h-.08A7.43,7.43,0,0,1,81,132.38c-3.1,0-6.81-1.71-6.81-8.64V112.2h3.59v10.93c0,3.75,1.14,6.28,4.4,6.28a5.2,5.2,0,0,0,4.73-3.27,5.32,5.32,0,0,0,.32-1.83V112.2h3.59Z"/><path class="cls-2" d="M96.78,118.36c0-2.33,0-4.33-.17-6.16h3.14l.12,3.87H100a5.91,5.91,0,0,1,5.46-4.32,4,4,0,0,1,1,.12v3.39a5.47,5.47,0,0,0-1.22-.12c-2.53,0-4.32,1.91-4.81,4.6a9.23,9.23,0,0,0-.17,1.67v10.52H96.78Z"/><path class="cls-2" d="M132.82,131.2a13.23,13.23,0,0,1-5.67,1.14c-6,0-9.82-4-9.82-10.07s4.15-10.48,10.6-10.48a12,12,0,0,1,5,1l-.82,2.77a8.29,8.29,0,0,0-4.15-.93c-4.53,0-7,3.34-7,7.46,0,4.56,2.94,7.38,6.85,7.38a10.2,10.2,0,0,0,4.41-1Z"/><path class="cls-2" d="M137,103h3.59v28.94H137Z"/><path class="cls-2" d="M150.64,106.65a2.23,2.23,0,0,1-4.45,0,2.19,2.19,0,0,1,2.24-2.24A2.13,2.13,0,0,1,150.64,106.65Zm-4,25.28V112.2h3.59v19.73Z"/><path class="cls-2" d="M158.18,122.72c.08,4.85,3.18,6.85,6.77,6.85a12.94,12.94,0,0,0,5.46-1l.61,2.57a16,16,0,0,1-6.56,1.22c-6.08,0-9.71-4-9.71-10s3.51-10.64,9.26-10.64c6.44,0,8.15,5.67,8.15,9.3a13.87,13.87,0,0,1-.12,1.67Zm10.52-2.57c0-2.28-.94-5.83-5-5.83-3.62,0-5.21,3.34-5.5,5.83Z"/><path class="cls-2" d="M176.61,117.54c0-2,0-3.71-.16-5.34h3.18l.2,3.26h.08a7.26,7.26,0,0,1,6.52-3.71c2.74,0,7,1.63,7,8.4v11.78h-3.59V120.56c0-3.18-1.18-5.83-4.57-5.83a5.1,5.1,0,0,0-4.81,3.67,5.25,5.25,0,0,0-.24,1.67v11.86h-3.59Z"/><path class="cls-2" d="M203.4,106.53v5.67h5.13v2.73H203.4v10.64c0,2.45.69,3.84,2.69,3.84a8,8,0,0,0,2.08-.25l.16,2.69a8.65,8.65,0,0,1-3.18.49,5,5,0,0,1-3.87-1.51c-1-1.06-1.39-2.81-1.39-5.13V114.93h-3.06V112.2h3.06v-4.73Z"/><path class="cls-2" d="M212.08,128.26a9.35,9.35,0,0,0,4.73,1.43c2.61,0,3.83-1.3,3.83-2.94s-1-2.65-3.67-3.62c-3.54-1.27-5.22-3.22-5.22-5.59,0-3.18,2.57-5.79,6.81-5.79a9.93,9.93,0,0,1,4.86,1.22l-.9,2.61a7.69,7.69,0,0,0-4-1.14c-2.12,0-3.3,1.22-3.3,2.69,0,1.63,1.18,2.37,3.75,3.35,3.43,1.3,5.18,3,5.18,6,0,3.46-2.69,5.91-7.38,5.91a11.24,11.24,0,0,1-5.55-1.35Z"/><path class="cls-2" d="M238.79,112.2l2.61,10c.57,2.2,1.1,4.24,1.46,6.28H243c.45-2,1.1-4.12,1.75-6.24L248,112.2h3l3.06,9.87c.73,2.36,1.3,4.44,1.75,6.44h.12a60.5,60.5,0,0,1,1.51-6.4l2.81-9.91h3.55l-6.36,19.73h-3.26l-3-9.42a66.2,66.2,0,0,1-1.75-6.48h-.08a56.9,56.9,0,0,1-1.8,6.53l-3.18,9.37h-3.26l-5.95-19.73Z"/><path class="cls-2" d="M271.37,106.65a2.23,2.23,0,0,1-4.45,0,2.19,2.19,0,0,1,2.24-2.24A2.13,2.13,0,0,1,271.37,106.65Zm-4,25.28V112.2H271v19.73Z"/><path class="cls-2" d="M281.23,106.53v5.67h5.14v2.73h-5.14v10.64c0,2.45.7,3.84,2.69,3.84a8,8,0,0,0,2.08-.25l.17,2.69a8.73,8.73,0,0,1-3.18.49,5,5,0,0,1-3.88-1.51c-1-1.06-1.38-2.81-1.38-5.13V114.93h-3.06V112.2h3.06v-4.73Z"/><path class="cls-2" d="M290.41,103H294V115.3h.09a6.62,6.62,0,0,1,2.56-2.53,7.42,7.42,0,0,1,3.67-1c2.65,0,6.89,1.63,6.89,8.44v11.74h-3.58V120.6c0-3.18-1.19-5.87-4.57-5.87a5.15,5.15,0,0,0-4.81,3.59A4.17,4.17,0,0,0,294,120v11.9h-3.58Z"/><path class="cls-2" d="M336.36,108.45H326.25l-1,6.81a14.18,14.18,0,0,1,2.16-.17,11.18,11.18,0,0,1,5.7,1.43,7.56,7.56,0,0,1,3.8,6.81c0,5.18-4.12,9-9.87,9a13,13,0,0,1-6.61-1.63l.9-2.73a11.89,11.89,0,0,0,5.67,1.47c3.38,0,6.28-2.2,6.28-5.75s-2.33-5.87-7.63-5.87a27.94,27.94,0,0,0-3.67.28l1.72-12.72h12.68Z"/><path class="cls-2" d="M350.75,128.26a9.32,9.32,0,0,0,4.73,1.43c2.61,0,3.83-1.3,3.83-2.94s-1-2.65-3.67-3.62c-3.55-1.27-5.22-3.22-5.22-5.59,0-3.18,2.57-5.79,6.81-5.79a9.86,9.86,0,0,1,4.85,1.22l-.89,2.61a7.69,7.69,0,0,0-4-1.14c-2.12,0-3.3,1.22-3.3,2.69,0,1.63,1.18,2.37,3.75,3.35,3.42,1.3,5.18,3,5.18,6,0,3.46-2.69,5.91-7.38,5.91a11.24,11.24,0,0,1-5.55-1.35Z"/><path class="cls-2" d="M371.71,106.53v5.67h5.13v2.73h-5.13v10.64c0,2.45.69,3.84,2.69,3.84a8.1,8.1,0,0,0,2.08-.25l.16,2.69a8.65,8.65,0,0,1-3.18.49,5,5,0,0,1-3.87-1.51c-1-1.06-1.39-2.81-1.39-5.13V114.93h-3.06V112.2h3.06v-4.73Z"/><path class="cls-2" d="M391.81,131.93l-.29-2.48h-.12a7.37,7.37,0,0,1-6,2.93,5.62,5.62,0,0,1-6-5.67c0-4.77,4.24-7.38,11.87-7.33V119c0-1.63-.45-4.57-4.49-4.57a9.84,9.84,0,0,0-5.14,1.47l-.81-2.37a12.23,12.23,0,0,1,6.48-1.75c6,0,7.5,4.12,7.5,8.07v7.38a27.13,27.13,0,0,0,.33,4.73Zm-.53-10.07c-3.92-.08-8.36.61-8.36,4.45a3.17,3.17,0,0,0,3.38,3.42,4.91,4.91,0,0,0,4.77-3.3,3.58,3.58,0,0,0,.21-1.14Z"/><path class="cls-2" d="M400.53,118.36c0-2.33,0-4.33-.16-6.16h3.14l.12,3.87h.16a5.93,5.93,0,0,1,5.47-4.32,4,4,0,0,1,1,.12v3.39a5.57,5.57,0,0,0-1.23-.12c-2.52,0-4.32,1.91-4.81,4.6a10.29,10.29,0,0,0-.16,1.67v10.52h-3.55Z"/><path class="cls-2" d="M422.51,118.36c0-2.33,0-4.33-.16-6.16h3.14l.12,3.87h.16a5.92,5.92,0,0,1,5.46-4.32,3.91,3.91,0,0,1,1,.12v3.39a5.41,5.41,0,0,0-1.22-.12c-2.53,0-4.32,1.91-4.81,4.6a10.29,10.29,0,0,0-.16,1.67v10.52h-3.55Z"/><path class="cls-2" d="M437.43,122.72c.08,4.85,3.18,6.85,6.77,6.85a12.94,12.94,0,0,0,5.46-1l.62,2.57a16.06,16.06,0,0,1-6.57,1.22c-6.07,0-9.7-4-9.7-10s3.5-10.64,9.25-10.64c6.45,0,8.16,5.67,8.16,9.3a11.73,11.73,0,0,1-.13,1.67ZM448,120.15c0-2.28-.94-5.83-5-5.83-3.63,0-5.22,3.34-5.51,5.83Z"/><path class="cls-2" d="M457.25,112.2l3.87,11.09a51,51,0,0,1,1.59,5.06h.12c.45-1.64,1-3.27,1.68-5.06l3.83-11.09h3.75l-7.75,19.73h-3.42l-7.5-19.73Z"/><path class="cls-2" d="M479.47,106.65a2.23,2.23,0,0,1-4.45,0,2.19,2.19,0,0,1,2.25-2.24A2.13,2.13,0,0,1,479.47,106.65Zm-4,25.28V112.2h3.59v19.73Z"/><path class="cls-2" d="M487,122.72c.08,4.85,3.18,6.85,6.77,6.85a12.94,12.94,0,0,0,5.46-1l.62,2.57a16.06,16.06,0,0,1-6.57,1.22c-6.07,0-9.7-4-9.7-10s3.5-10.64,9.25-10.64c6.44,0,8.16,5.67,8.16,9.3a11.73,11.73,0,0,1-.13,1.67Zm10.52-2.57c0-2.28-.94-5.83-5-5.83-3.63,0-5.22,3.34-5.51,5.83Z"/><path class="cls-2" d="M506.87,112.2l2.61,10c.57,2.2,1.1,4.24,1.47,6.28h.12c.45-2,1.1-4.12,1.75-6.24L516,112.2h3l3.06,9.87c.73,2.36,1.3,4.44,1.75,6.44H524a60.5,60.5,0,0,1,1.51-6.4l2.81-9.91h3.55l-6.36,19.73h-3.26l-3-9.42a66.2,66.2,0,0,1-1.75-6.48h-.08a56.9,56.9,0,0,1-1.8,6.53l-3.18,9.37h-3.26L503.2,112.2Z"/><path class="cls-2" d="M534.72,128.26a9.32,9.32,0,0,0,4.73,1.43c2.61,0,3.83-1.3,3.83-2.94s-1-2.65-3.67-3.62c-3.55-1.27-5.22-3.22-5.22-5.59,0-3.18,2.57-5.79,6.81-5.79a9.86,9.86,0,0,1,4.85,1.22l-.9,2.61a7.65,7.65,0,0,0-4-1.14c-2.12,0-3.3,1.22-3.3,2.69,0,1.63,1.18,2.37,3.75,3.35,3.42,1.3,5.17,3,5.17,6,0,3.46-2.69,5.91-7.37,5.91a11.21,11.21,0,0,1-5.55-1.35Z"/><path class="cls-2" d="M154.32,290.76a33.31,33.31,0,0,1,6.07-.5c3.38,0,5.55.61,7.08,2a6.13,6.13,0,0,1,1.93,4.65,6.44,6.44,0,0,1-4.62,6.25v.11c1.89.65,3,2.39,3.62,4.94a38.3,38.3,0,0,0,1.89,6.72H167a31.81,31.81,0,0,1-1.63-5.85c-.73-3.38-2-4.65-4.91-4.76h-3v10.61h-3.16Zm3.16,11.16h3.23c3.38,0,5.52-1.85,5.52-4.65,0-3.16-2.28-4.54-5.63-4.57a12.56,12.56,0,0,0-3.12.29Z"/><path class="cls-2" d="M183.93,314.93l-.26-2.22h-.1a6.57,6.57,0,0,1-5.38,2.62,5,5,0,0,1-5.38-5.06c0-4.26,3.78-6.58,10.57-6.52v-.36c0-1.45-.39-4.07-4-4.07a8.7,8.7,0,0,0-4.57,1.31l-.72-2.11a10.89,10.89,0,0,1,5.78-1.56c5.38,0,6.69,3.67,6.69,7.19v6.58a24.88,24.88,0,0,0,.29,4.22Zm-.47-9c-3.49-.07-7.46.55-7.46,4a2.83,2.83,0,0,0,2.59,3.05H179a4.39,4.39,0,0,0,4.26-2.94,3.59,3.59,0,0,0,.18-1Z"/><path class="cls-2" d="M195.41,292.29v5.07H200v2.44h-4.57v9.48c0,2.17.62,3.41,2.4,3.41a6.84,6.84,0,0,0,1.85-.22l.14,2.41a8,8,0,0,1-2.83.43,4.43,4.43,0,0,1-3.46-1.35c-.9-.94-1.23-2.5-1.23-4.58v-9.6h-2.72v-2.44h2.72v-4.21Z"/><path class="cls-2" d="M207.14,292.4a2,2,0,0,1-4,0,2,2,0,0,1,1.9-2h.1a1.9,1.9,0,0,1,2,1.83Zm-3.56,22.53V297.34h3.2v17.59Z"/><path class="cls-2" d="M212.08,302.1c0-1.81,0-3.3-.14-4.76h2.84l.18,2.9H215a6.45,6.45,0,0,1,5.79-3.31c2.44,0,6.21,1.45,6.21,7.48v10.51h-3.2V304.79c0-2.84-1.05-5.2-4.06-5.2a4.53,4.53,0,0,0-4.29,3.27,4.41,4.41,0,0,0-.22,1.49v10.58h-3.18Z"/><path class="cls-2" d="M247.4,297.34c-.08,1.28-.15,2.69-.15,4.84v10.21c0,4-.79,6.52-2.5,8a9.72,9.72,0,0,1-6.4,2.09,11.31,11.31,0,0,1-5.85-1.44l.8-2.43a10,10,0,0,0,5.16,1.38c3.27,0,5.67-1.71,5.67-6.15v-2h-.07a6.28,6.28,0,0,1-5.6,2.95c-4.34,0-7.48-3.71-7.48-8.58,0-6,3.88-9.34,7.91-9.34a5.88,5.88,0,0,1,5.5,3.06h.07l.14-2.66Zm-3.3,6.94a4.45,4.45,0,0,0-.19-1.45,4.61,4.61,0,0,0-4.47-3.38c-3.05,0-5.23,2.58-5.23,6.65,0,3.46,1.75,6.32,5.2,6.32a4.67,4.67,0,0,0,4.43-3.27,5.81,5.81,0,0,0,.26-1.71Z"/><path class="cls-2" d="M252.12,311.67a8.39,8.39,0,0,0,4.21,1.27c2.33,0,3.42-1.16,3.42-2.62s-.91-2.35-3.27-3.23c-3.16-1.13-4.65-2.89-4.65-5,0-2.84,2.29-5.16,6.07-5.16a8.8,8.8,0,0,1,4.34,1.09l-.81,2.33a6.78,6.78,0,0,0-3.61-1c-1.89,0-2.95,1.09-2.95,2.4s1.06,2.11,3.34,3c3.06,1.16,4.62,2.69,4.62,5.31,0,3.08-2.39,5.26-6.58,5.26a9.92,9.92,0,0,1-4.94-1.2Z"/><path class="cls-2" d="M266.21,300.25a2.17,2.17,0,1,1,2.17,2.17A2.17,2.17,0,0,1,266.21,300.25Zm0,12.87a2.17,2.17,0,1,1,2.17,2.17A2.17,2.17,0,0,1,266.21,313.12Z"/><path class="cls-2" d="M295.25,294h-9l-.9,6.09a12.4,12.4,0,0,1,1.92-.14,9.88,9.88,0,0,1,5.07,1.27,6.74,6.74,0,0,1,3.38,6.07c0,4.61-3.67,8.06-8.79,8.06a11.43,11.43,0,0,1-5.89-1.44l.8-2.43a10.64,10.64,0,0,0,5.06,1.3c3,0,5.6-2,5.6-5.13s-2.07-5.23-6.8-5.23a24,24,0,0,0-3.27.26l1.53-11.34h11.3Z"/><path class="cls-2" d="M298.12,316.39,308.25,290h2.46l-10.17,26.35Z"/><path class="cls-2" d="M326.34,294h-9l-.92,6.09a14,14,0,0,1,1.94-.14,9.84,9.84,0,0,1,5.06,1.27,6.72,6.72,0,0,1,3.38,6.07c0,4.61-3.68,8.06-8.8,8.06a11.5,11.5,0,0,1-5.88-1.44l.79-2.43a10.83,10.83,0,0,0,5.07,1.3c3,0,5.6-2,5.6-5.13s-2.07-5.23-6.79-5.23a24,24,0,0,0-3.28.26L315,291.34h11.3Z"/><path class="cls-2" d="M407.79,306c0,6.51-4.5,9.34-8.76,9.34-4.76,0-8.43-3.49-8.43-9,0-5.89,3.85-9.35,8.72-9.35C404.37,296.94,407.79,300.61,407.79,306Zm-14,.19c0,3.85,2.21,6.76,5.34,6.76s5.34-2.9,5.34-6.84c0-3-1.49-6.76-5.27-6.76S393.84,302.83,393.84,306.18Z"/><path class="cls-2" d="M426.54,310.14c0,1.81,0,3.41.14,4.79h-2.83l-.18-2.89h-.08a6.61,6.61,0,0,1-5.79,3.27c-2.76,0-6.07-1.53-6.07-7.71V297.34h3.2v9.74c0,3.35,1,5.6,3.92,5.6a4.62,4.62,0,0,0,4.22-2.9,4.79,4.79,0,0,0,.29-1.63V297.34h3.2Z"/><path class="cls-2" d="M431.84,302.83c0-2.07,0-3.85-.14-5.49h2.79l.11,3.45h.14a5.3,5.3,0,0,1,4.87-3.85,4.06,4.06,0,0,1,.92.11v3a5.07,5.07,0,0,0-1.1-.11c-2.25,0-3.85,1.71-4.28,4.11a7.46,7.46,0,0,0-.15,1.49V315h-3.16Z"/><path class="cls-2" d="M464,314.28a11.8,11.8,0,0,1-5.07,1c-5.3,0-8.75-3.62-8.75-9s3.7-9.34,9.45-9.34a10.52,10.52,0,0,1,4.42.91l-.72,2.47a7.44,7.44,0,0,0-3.7-.83c-4,0-6.22,3-6.22,6.65,0,4.06,2.61,6.57,6.11,6.57a9.19,9.19,0,0,0,3.92-.87Z"/><path class="cls-2" d="M467.7,289.13h3.2v25.8h-3.2Z"/><path class="cls-2" d="M479.83,292.4a2,2,0,1,1-2.06-2h.1a1.89,1.89,0,0,1,2,1.83A.49.49,0,0,1,479.83,292.4Zm-3.56,22.53V297.34h3.2v17.59Z"/><path class="cls-2" d="M486.56,306.72c.07,4.34,2.83,6.11,6,6.11a11.63,11.63,0,0,0,4.87-.91l.55,2.28a14.13,14.13,0,0,1-5.85,1.1c-5.41,0-8.68-3.56-8.68-8.87s3.12-9.49,8.25-9.49c5.73,0,7.23,5.07,7.23,8.29a10.56,10.56,0,0,1-.11,1.49Zm9.37-2.29c0-2-.84-5.19-4.43-5.19-3.24,0-4.65,3-4.91,5.19Z"/><path class="cls-2" d="M503,302.1c0-1.81,0-3.3-.14-4.76h2.84l.18,2.9h.07a6.48,6.48,0,0,1,5.79-3.31c2.44,0,6.21,1.45,6.21,7.48v10.51h-3.19V304.79c0-2.84-1.05-5.2-4.07-5.2a4.7,4.7,0,0,0-4.51,4.76v10.58H503Z"/><path class="cls-2" d="M526.85,292.29v5.07h4.58v2.44h-4.58v9.48c0,2.17.61,3.41,2.39,3.41a6.74,6.74,0,0,0,1.85-.22l.16,2.41a8.07,8.07,0,0,1-2.84.43A4.39,4.39,0,0,1,525,314c-.91-.94-1.24-2.5-1.24-4.58v-9.6H521v-2.44h2.73v-4.21Z"/><path class="cls-2" d="M534.58,311.67a8.43,8.43,0,0,0,4.22,1.27c2.32,0,3.42-1.16,3.42-2.62s-.91-2.35-3.27-3.23c-3.17-1.13-4.66-2.89-4.66-5,0-2.84,2.29-5.16,6.07-5.16a8.81,8.81,0,0,1,4.35,1.09l-.8,2.33a6.81,6.81,0,0,0-3.62-1c-1.89,0-2.94,1.09-2.94,2.4s1,2.11,3.34,3c3,1.16,4.62,2.69,4.62,5.31,0,3.08-2.41,5.26-6.58,5.26a9.9,9.9,0,0,1-4.94-1.2Z"/><path class="cls-2" d="M548.79,313.12a2.17,2.17,0,0,1,2.08-2.26H551a2.26,2.26,0,0,1,0,4.51,2.17,2.17,0,0,1-2.17-2.17Zm.91-5.2-.51-17.44h3.49l-.51,17.44Z"/><path class="cls-2" d="M356.61,307c0,6.91-4.78,9.93-9.3,9.93-5.06,0-8.95-3.71-8.95-9.61,0-6.26,4.08-9.93,9.26-9.93C353,297.36,356.61,301.26,356.61,307Zm-14.82.2c0,4.09,2.36,7.18,5.68,7.18s5.67-3.06,5.67-7.24c0-3.17-1.58-7.18-5.59-7.18s-5.76,3.69-5.76,7.24Z"/><path class="cls-2" d="M372.45,316.47v-16.1h-7.83v16.1h-3.35v-16.1h-2.63v-2.59h2.63v-.58c0-2.63.61-4.91,2.08-6.37a6.38,6.38,0,0,1,4.71-1.74,6.1,6.1,0,0,1,2.66.65l-.72,2.52a5,5,0,0,0-2-.47c-2.66,0-3.39,2.28-3.39,5.21v.81h7.83v-.88c0-2.63.62-5,2.17-6.51a6.49,6.49,0,0,1,4.52-1.74,7.72,7.72,0,0,1,2.89.54l-.42,2.62a5.41,5.41,0,0,0-2.17-.42c-2.86,0-3.62,2.55-3.62,5.41v1h4.51v2.59h-4.47v16.09Z"/><polygon class="cls-2" points="31.02 305.92 37.88 298.97 38.69 298.14 37.76 297.46 35.17 295.55 34.48 295.03 33.87 295.65 27.38 302.27 20.86 295.65 20.23 295.01 19.53 295.57 17.08 297.52 16.22 298.22 17 299.01 23.8 305.91 17.08 313.07 16.56 311.54 16.33 310.87 15.62 310.87 5.52 310.87 5.52 304.25 14.9 304.25 15.9 304.25 15.9 303.25 15.9 300.29 15.9 299.29 14.9 299.29 5.52 299.29 5.52 292.78 15.13 292.78 15.78 292.78 16.04 292.18 17.36 289.22 17.98 287.82 16.44 287.82 1 287.82 0 287.82 0 288.82 0 314.83 0 315.83 1 315.83 16.63 315.83 18.03 315.83 17.82 315.23 19.53 316.62 20.25 317.21 20.89 316.53 27.4 309.6 33.85 316.49 34.47 317.15 35.18 316.61 37.77 314.65 38.66 313.98 37.89 313.17 31.02 305.92"/><path class="cls-2" d="M54.06,310.55l-.4-.78-.82.29A15.79,15.79,0,0,1,48,311.17a4.52,4.52,0,0,1-5-5,5.4,5.4,0,0,1,1.3-3.76A4.35,4.35,0,0,1,47.85,301a13.67,13.67,0,0,1,4.61,1.17l.86.34.41-.83L55.08,299l.45-.93-.94-.43a16.87,16.87,0,0,0-6.78-1.7,10.68,10.68,0,0,0-4,.75,9.43,9.43,0,0,0-4.62,3.81,10.82,10.82,0,0,0-1.6,5.81,9.52,9.52,0,0,0,2.92,7.21,10.4,10.4,0,0,0,7.45,2.75A16.78,16.78,0,0,0,55,314.65l.94-.44-.47-.92Z"/><path class="cls-2" d="M71.64,309.63l-.58-1-.89.69a7.59,7.59,0,0,1-4.56,1.85,4.82,4.82,0,0,1-3.55-1.42,3.93,3.93,0,0,1-1.23-2.5H73.62v-1a10.88,10.88,0,0,0-2.83-7.89,8.29,8.29,0,0,0-6.08-2.48,9.73,9.73,0,0,0-3.79.72,8.9,8.9,0,0,0-4.23,3.79,10.89,10.89,0,0,0-1.37,5.45,10.38,10.38,0,0,0,2.78,7.42,9.6,9.6,0,0,0,7.25,2.95,12.18,12.18,0,0,0,7.59-2.76l.69-.55-.45-.75Zm-10.1-7a3,3,0,0,1,3.06-1.79,2.76,2.76,0,0,1,2.8,1.79Z"/><path class="cls-2" d="M82.1,311.2a1.34,1.34,0,0,1-.48-.08c-.54-.18-.88-.47-.88-1.35V286.82l-1.3.41-3.37,1-.7.21v21.73a5.38,5.38,0,0,0,2.22,4.42,6.38,6.38,0,0,0,4.1,1.45,4.63,4.63,0,0,0,2.63-.59l.38-.26,0-.47.3-3.26.19-2.11-1.75,1.19A2.78,2.78,0,0,1,82.1,311.2Z"/><path class="cls-2" d="M110.92,309.63l-.58-1-.89.69a7.59,7.59,0,0,1-4.56,1.85,4.84,4.84,0,0,1-3.56-1.42,3.92,3.92,0,0,1-1.22-2.5H112.9v-1a10.88,10.88,0,0,0-2.84-7.89,8.25,8.25,0,0,0-6.07-2.48,9.78,9.78,0,0,0-3.8.72A8.92,8.92,0,0,0,96,300.42a10.8,10.8,0,0,0-1.38,5.45,11.79,11.79,0,0,0,.59,3.75l-1.42,1a2.82,2.82,0,0,1-1.39.61,1.34,1.34,0,0,1-.48-.08c-.55-.18-.88-.47-.88-1.35V286.82l-1.3.41-3.37,1-.7.21v21.73a5.35,5.35,0,0,0,2.22,4.42,6.38,6.38,0,0,0,4.1,1.45,4.63,4.63,0,0,0,2.63-.59l.38-.26,0-.47.29-3.26.12-1.23a9.57,9.57,0,0,0,9.2,6,12.13,12.13,0,0,0,7.58-2.76l.7-.55-.46-.75Zm-10.11-7a3.07,3.07,0,0,1,3.07-1.79,2.75,2.75,0,0,1,2.79,1.79Z"/><path class="cls-2" d="M123.44,295.91a15,15,0,0,0-5.63,1l-2.09-1.07-1.45-.73v20.77h5.37V301.46a8.76,8.76,0,0,1,3.5-.59,2.51,2.51,0,0,1,2.25,1.11,4.9,4.9,0,0,1,.76,2.89v11h5.34V304.26a8.67,8.67,0,0,0-2.07-6.08A7.78,7.78,0,0,0,123.44,295.91Z"/><path class="cls-2" d="M145.81,313.51l-1.32-2.58L144,310l-.88.45a5.44,5.44,0,0,1-2.26.68c-.39,0-.49-.09-.49-.09a8.57,8.57,0,0,1-.12-2.06V301.1h4.57v-4.77h-4.57v-6.71l-1.49.84-3.33,1.87-.51.29v3.71h-3.11v4.77H135V311a4.87,4.87,0,0,0,1.6,3.79,5.7,5.7,0,0,0,3.93,1.4,10.07,10.07,0,0,0,4.91-1.36l.84-.47Z"/></g></g></svg>