<svg xmlns="http://www.w3.org/2000/svg" viewBox="0 0 556.71 367.81"><defs><style>.cls-1{fill:#6fa558;}.cls-2{fill:#fff;}</style></defs><title>trusted_1</title><g id="Layer_2" data-name="Layer 2"><g id="Layer_1-2" data-name="Layer 1"><path class="cls-1" d="M22.45,81.93c3.37-10.4,6.75-20.79,10.14-31.24L6,31.34v-.06H38.89L49,0h.1L59.27,31.23h32.9v.07h0L65.58,50.69,75.72,82h-.06L49.08,62.68,22.5,82Z"/><rect class="cls-1" y="165.68" width="99" height="99" rx="11.69"/><polygon class="cls-2" points="49.5 186.23 58.91 205.29 79.94 208.34 64.72 223.18 68.31 244.13 49.5 234.24 30.69 244.13 34.28 223.18 19.06 208.34 40.09 205.29 49.5 186.23"/><rect class="cls-1" x="114.43" y="165.23" width="99" height="99" rx="11.69"/><polygon class="cls-2" points="163.93 185.78 173.34 204.84 194.37 207.89 179.15 222.73 182.74 243.68 163.93 233.79 145.12 243.68 148.71 222.73 133.49 207.89 154.52 204.84 163.93 185.78"/><rect class="cls-1" x="228.86" y="164.78" width="99" height="99" rx="11.69"/><polygon class="cls-2" points="278.36 185.33 287.76 204.39 308.8 207.44 293.58 222.28 297.17 243.23 278.36 233.34 259.55 243.23 263.14 222.28 247.92 207.44 268.95 204.39 278.36 185.33"/><rect class="cls-1" x="343.29" y="164.33" width="99" height="99" rx="11.69"/><polygon class="cls-2" points="392.79 184.88 402.19 203.94 423.22 207 408 221.83 411.6 242.78 392.79 232.89 373.97 242.78 377.57 221.83 362.35 207 383.38 203.94 392.79 184.88"/><rect class="cls-1" x="457.71" y="163.88" width="99" height="99" rx="11.69"/><polygon class="cls-2" points="507.21 184.43 516.62 203.49 537.65 206.55 522.43 221.38 526.03 242.33 507.21 232.44 488.4 242.33 492 221.38 476.78 206.55 497.81 203.49 507.21 184.43"/><path d="M131.41,30.32H115.05V21.45h43.3v8.87H142.06V70.8H131.41Z"/><path d="M166.89,36.77l1,5.56a14.14,14.14,0,0,1,5.89-4.8,20.73,20.73,0,0,1,8.95-1.81v8.47a18.32,18.32,0,0,0-8.19,1.89,10.15,10.15,0,0,0-5.12,4.8V70.8h-10v-34Z"/><path d="M192.17,68.5q-3.42-3.34-3.42-9.72v-22h9.91V56.52a7.12,7.12,0,0,0,1.58,5q1.56,1.74,5.12,1.74a9.76,9.76,0,0,0,6-1.82,9.39,9.39,0,0,0,3.39-4.88V36.77h9.84v34h-7.34l-1-5.57A14.91,14.91,0,0,1,210.6,70a17.47,17.47,0,0,1-7.9,1.85C198,71.84,194.46,70.73,192.17,68.5Z"/><path d="M239.59,70.76a25.65,25.65,0,0,1-7.79-3l3.2-7a28.53,28.53,0,0,0,13.71,3.87,16.52,16.52,0,0,0,5.84-.81c1.38-.54,2.06-1.26,2.06-2.18s-.62-1.68-1.85-2.13a41.45,41.45,0,0,0-6-1.5A59.19,59.19,0,0,1,241,56a13.85,13.85,0,0,1-5.41-3.35,8.41,8.41,0,0,1-2.29-6.25,8.78,8.78,0,0,1,4.51-8q4.51-2.7,12.66-2.7a34.51,34.51,0,0,1,15.08,3.06l-3.22,7.1q-6.85-3-11.86-3a16.49,16.49,0,0,0-5.36.68c-1.26.46-1.9,1.09-1.9,1.9a2.26,2.26,0,0,0,1.7,2,44.56,44.56,0,0,0,5.8,1.41,64.3,64.3,0,0,1,8,1.94,13.43,13.43,0,0,1,5.56,3.47,8.87,8.87,0,0,1,2.34,6.45,9.09,9.09,0,0,1-4.72,8.3q-4.71,2.82-13.1,2.82A41.3,41.3,0,0,1,239.59,70.76Z"/><path d="M282.2,68.9a10.39,10.39,0,0,1-3.2-8.1V43.46l-8.55-1V36.77H279V28h10v8.79h11.77v6.69H289v16a5.73,5.73,0,0,0,1.08,3.62,4.1,4.1,0,0,0,3.43,1.38,24.06,24.06,0,0,0,8.15-1.38l1.93,7.34a45.64,45.64,0,0,1-12.09,1.45Q285.42,71.85,282.2,68.9Z"/><path d="M311.47,67.09q-5.16-4.76-5.16-13.31,0-8.39,4.88-13.22t13.91-4.84q8.86,0,13.26,4.76t4.4,13.3v2H316.39a7,7,0,0,0,2.78,5.36,11,11,0,0,0,7,2.06,27.51,27.51,0,0,0,5.72-.61,21.89,21.89,0,0,0,5-1.65l4,7.66q-6,3.23-15,3.22Q316.64,71.84,311.47,67.09Zm19.31-21.33a8.36,8.36,0,0,0-5.92-2,9.13,9.13,0,0,0-6.17,2,6.54,6.54,0,0,0-2.46,4.63H333A6.35,6.35,0,0,0,330.78,45.76Z"/><path d="M352.07,66.8c-2.93-3.35-4.39-7.7-4.39-13a21.07,21.07,0,0,1,2-9.27,15.07,15.07,0,0,1,5.77-6.45,17,17,0,0,1,9.11-2.34q7.81,0,12.09,5.72v-20h10V70.8H379.2l-.8-5.49a13.87,13.87,0,0,1-5.57,4.84,18.22,18.22,0,0,1-8.06,1.69Q356.46,71.84,352.07,66.8Zm21.29-5.28a8.57,8.57,0,0,0,3.26-4.43V50.48A8.59,8.59,0,0,0,373.36,46a10.13,10.13,0,0,0-6-1.69,9.45,9.45,0,1,0,0,18.87,10.14,10.14,0,0,0,6-1.66Z"/><path d="M9.05,131.93c.08-1.34.17-3.34.17-5.09V103h3.54v12.39h.08a7.37,7.37,0,0,1,6.73-3.63c4.89,0,8.36,4.08,8.32,10.07,0,7-4.45,10.56-8.85,10.56a7,7,0,0,1-6.6-3.71h-.13l-.16,3.26ZM12.76,124a6.44,6.44,0,0,0,.17,1.31,5.52,5.52,0,0,0,5.38,4.2c3.75,0,6-3.06,6-7.59,0-4-2-7.33-5.87-7.33A5.7,5.7,0,0,0,13,119a6.07,6.07,0,0,0-.21,1.47Z"/><path d="M33.43,112.2l4.33,11.66c.45,1.3.93,2.85,1.26,4h.08c.37-1.19.78-2.69,1.27-4.12l3.91-11.58h3.79l-5.38,14.07c-2.57,6.76-4.32,10.23-6.77,12.35a9.57,9.57,0,0,1-4.4,2.32l-.9-3a9.55,9.55,0,0,0,3.14-1.76,10.86,10.86,0,0,0,3-4,2.63,2.63,0,0,0,.28-.86,3.1,3.1,0,0,0-.24-.94l-7.3-18.18Z"/><path d="M77.84,121.9c0,7.3-5.06,10.48-9.83,10.48-5.34,0-9.46-3.91-9.46-10.15,0-6.61,4.32-10.48,9.79-10.48C74,111.75,77.84,115.87,77.84,121.9Zm-15.66.21c0,4.32,2.49,7.58,6,7.58s6-3.22,6-7.66c0-3.35-1.68-7.59-5.92-7.59S62.18,118.36,62.18,122.11Z"/><path d="M98.87,126.55a52.29,52.29,0,0,0,.17,5.38H95.86l-.21-3.22h-.08a7.42,7.42,0,0,1-6.52,3.67c-3.1,0-6.81-1.71-6.81-8.64V112.2h3.59v10.93c0,3.75,1.14,6.28,4.4,6.28A5.18,5.18,0,0,0,95,126.14a5.24,5.24,0,0,0,.33-1.83V112.2h3.58Z"/><path d="M104.83,118.36c0-2.33,0-4.33-.17-6.16h3.14l.13,3.87h.16a5.92,5.92,0,0,1,5.46-4.32,4.21,4.21,0,0,1,1,.12v3.39a5,5,0,0,0-1.22-.12c-2.53,0-4.32,1.91-4.81,4.6a10.38,10.38,0,0,0-.16,1.67v10.52h-3.55Z"/><path d="M140.87,131.2a13.32,13.32,0,0,1-5.67,1.14c-5.95,0-9.82-4-9.82-10.07s4.16-10.48,10.6-10.48a12,12,0,0,1,5,1l-.81,2.77a8.24,8.24,0,0,0-4.16-.93c-4.53,0-7,3.34-7,7.46,0,4.56,2.93,7.38,6.85,7.38a10.15,10.15,0,0,0,4.4-1Z"/><path d="M145.07,103h3.59v28.94h-3.59Z"/><path d="M158.69,106.65a2.22,2.22,0,0,1-4.44,0h0a2.18,2.18,0,0,1,2.12-2.24h.12a2.13,2.13,0,0,1,2.2,2.06Zm-4,25.28V112.2h3.59v19.73Z"/><path d="M166.23,122.72c.08,4.85,3.18,6.85,6.77,6.85a13,13,0,0,0,5.46-1l.62,2.57a16.08,16.08,0,0,1-6.57,1.22c-6.07,0-9.7-4-9.7-10s3.5-10.64,9.25-10.64c6.44,0,8.16,5.67,8.16,9.3a13.27,13.27,0,0,1-.13,1.67Zm10.52-2.57c0-2.28-.94-5.83-5-5.83-3.63,0-5.22,3.34-5.51,5.83Z"/><path d="M184.66,117.54c0-2,0-3.71-.16-5.34h3.18l.2,3.26H188a7.27,7.27,0,0,1,6.53-3.71c2.73,0,7,1.63,7,8.4v11.78h-3.59V120.56c0-3.18-1.18-5.83-4.57-5.83a5.12,5.12,0,0,0-4.81,3.67,5.24,5.24,0,0,0-.24,1.67v11.86h-3.59Z"/><path d="M211.45,106.53v5.67h5.14v2.73h-5.14v10.64c0,2.45.69,3.84,2.69,3.84a8.11,8.11,0,0,0,2.08-.25l.16,2.69a8.61,8.61,0,0,1-3.18.49,5,5,0,0,1-3.87-1.51c-1-1.06-1.39-2.81-1.39-5.13V114.93h-3.05V112.2h3.05v-4.73Z"/><path d="M220.13,128.26a9.32,9.32,0,0,0,4.73,1.43c2.61,0,3.84-1.3,3.84-2.94s-1-2.65-3.67-3.62c-3.55-1.27-5.22-3.22-5.22-5.59,0-3.18,2.57-5.79,6.81-5.79a9.82,9.82,0,0,1,4.85,1.22l-.9,2.61a7.64,7.64,0,0,0-4-1.14c-2.13,0-3.31,1.22-3.31,2.69,0,1.63,1.18,2.37,3.75,3.35,3.43,1.3,5.18,3,5.18,6,0,3.46-2.69,5.91-7.38,5.91a11.16,11.16,0,0,1-5.54-1.35Z"/><path d="M246.84,112.2l2.61,10c.57,2.2,1.1,4.24,1.47,6.28H251c.45-2,1.1-4.12,1.75-6.24l3.25-10h3l3.06,9.87c.73,2.36,1.3,4.44,1.75,6.44H264a60.7,60.7,0,0,1,1.51-6.4l2.82-9.91h3.54l-6.36,19.73h-3.26l-3-9.42A65.9,65.9,0,0,1,257.5,116h-.08a58.91,58.91,0,0,1-1.79,6.53l-3.18,9.37h-3.27l-6-19.73Z"/><path d="M279.42,106.65a2.23,2.23,0,0,1-4.45,0,2.19,2.19,0,0,1,2.14-2.24h.11a2.13,2.13,0,0,1,2.2,2.06Zm-4,25.28V112.2H279v19.73Z"/><path d="M289.29,106.53v5.67h5.13v2.73h-5.13v10.64c0,2.45.69,3.84,2.69,3.84a8.11,8.11,0,0,0,2.08-.25l.16,2.69a8.61,8.61,0,0,1-3.18.49,5,5,0,0,1-3.88-1.51c-1-1.06-1.38-2.81-1.38-5.13V114.93h-3.06V112.2h3.06v-4.73Z"/><path d="M298.46,103h3.59v12.3h.08a6.72,6.72,0,0,1,2.57-2.53,7.41,7.41,0,0,1,3.67-1c2.65,0,6.89,1.63,6.89,8.44V132h-3.59V120.6c0-3.18-1.18-5.87-4.57-5.87a5.15,5.15,0,0,0-4.81,3.59,4.52,4.52,0,0,0-.24,1.71v11.9h-3.59Z"/><path d="M344.41,108.45H334.3l-1,6.81a14.19,14.19,0,0,1,2.16-.17,11.17,11.17,0,0,1,5.71,1.43,7.53,7.53,0,0,1,3.79,6.81c0,5.18-4.12,9-9.87,9a12.88,12.88,0,0,1-6.6-1.63l.89-2.73a12,12,0,0,0,5.67,1.47c3.39,0,6.28-2.2,6.28-5.75s-2.32-5.87-7.62-5.87a28.2,28.2,0,0,0-3.67.28l1.71-12.72h12.68Z"/><path d="M358.8,128.26a9.32,9.32,0,0,0,4.73,1.43c2.61,0,3.83-1.3,3.83-2.94s-1-2.65-3.67-3.62c-3.54-1.27-5.21-3.22-5.21-5.59,0-3.18,2.56-5.79,6.8-5.79a9.83,9.83,0,0,1,4.86,1.22l-.9,2.61a7.73,7.73,0,0,0-4-1.14c-2.12,0-3.3,1.22-3.3,2.69,0,1.63,1.18,2.37,3.75,3.35,3.43,1.3,5.18,3,5.18,6,0,3.46-2.69,5.91-7.38,5.91A11.16,11.16,0,0,1,358,131Z"/><path d="M379.76,106.53v5.67h5.14v2.73h-5.14v10.64c0,2.45.69,3.84,2.69,3.84a8.11,8.11,0,0,0,2.08-.25l.16,2.69a8.61,8.61,0,0,1-3.18.49,5,5,0,0,1-3.87-1.51c-1-1.06-1.39-2.81-1.39-5.13V114.93h-3.06V112.2h3.06v-4.73Z"/><path d="M399.86,131.93l-.29-2.48h-.12a7.37,7.37,0,0,1-6,2.93,5.62,5.62,0,0,1-6-5.23c0-.14,0-.29,0-.44,0-4.77,4.24-7.38,11.87-7.33V119c0-1.63-.45-4.57-4.49-4.57a9.71,9.71,0,0,0-5.13,1.47l-.82-2.37a12.21,12.21,0,0,1,6.48-1.75c6,0,7.51,4.12,7.51,8.07v7.38a27.72,27.72,0,0,0,.32,4.73Zm-.53-10.07c-3.91-.08-8.36.61-8.36,4.45a3.18,3.18,0,0,0,2.92,3.42,3.69,3.69,0,0,0,.47,0,4.92,4.92,0,0,0,4.77-3.3,4,4,0,0,0,.2-1.14Z"/><path d="M408.59,118.36c0-2.33,0-4.33-.17-6.16h3.14l.12,3.87h.17a5.91,5.91,0,0,1,5.46-4.32,4.21,4.21,0,0,1,1,.12v3.39a5,5,0,0,0-1.22-.12c-2.53,0-4.32,1.91-4.81,4.6a9.36,9.36,0,0,0-.17,1.67v10.52h-3.54Z"/><path d="M430.56,118.36c0-2.33,0-4.33-.16-6.16h3.14l.12,3.87h.16a5.93,5.93,0,0,1,5.47-4.32,4.21,4.21,0,0,1,1,.12v3.39a5.08,5.08,0,0,0-1.23-.12c-2.52,0-4.32,1.91-4.81,4.6a10.38,10.38,0,0,0-.16,1.67v10.52h-3.55Z"/><path d="M445.49,122.72c.08,4.85,3.18,6.85,6.76,6.85a13,13,0,0,0,5.47-1l.61,2.57a16.08,16.08,0,0,1-6.57,1.22c-6.07,0-9.7-4-9.7-10s3.51-10.64,9.26-10.64c6.44,0,8.15,5.67,8.15,9.3a15.44,15.44,0,0,1-.12,1.67ZM456,120.15c0-2.28-.93-5.83-5-5.83-3.63,0-5.22,3.34-5.5,5.83Z"/><path d="M465.3,112.2l3.87,11.09a44.32,44.32,0,0,1,1.59,5.06h.13c.44-1.64,1-3.27,1.67-5.06l3.83-11.09h3.75l-7.74,19.73H469l-7.5-19.73Z"/><path d="M487.52,106.65a2.22,2.22,0,1,1-4.44,0h0a2.19,2.19,0,0,1,2.14-2.24h.1a2.13,2.13,0,0,1,2.2,2.06Zm-4,25.28V112.2h3.58v19.73Z"/><path d="M495.06,122.72c.09,4.85,3.19,6.85,6.77,6.85a13,13,0,0,0,5.47-1l.61,2.57a16.08,16.08,0,0,1-6.57,1.22c-6.07,0-9.7-4-9.7-10s3.51-10.64,9.26-10.64c6.44,0,8.15,5.67,8.15,9.3a15.44,15.44,0,0,1-.12,1.67Zm10.52-2.57c0-2.28-.93-5.83-5-5.83-3.63,0-5.22,3.34-5.5,5.83Z"/><path d="M514.92,112.2l2.61,10c.57,2.2,1.1,4.24,1.47,6.28h.12c.45-2,1.1-4.12,1.75-6.24l3.22-10.07h3l3.06,9.87c.73,2.36,1.3,4.44,1.75,6.44H532a58.27,58.27,0,0,1,1.5-6.4l2.82-9.91h3.54l-6.36,19.73h-3.26l-3-9.42a63.28,63.28,0,0,1-1.76-6.48h-.08a58.91,58.91,0,0,1-1.79,6.53l-3.18,9.37H517.2l-6-19.73Z"/><path d="M542.77,128.26a9.32,9.32,0,0,0,4.73,1.43c2.61,0,3.83-1.3,3.83-2.94s-1-2.65-3.67-3.62c-3.54-1.27-5.22-3.22-5.22-5.59,0-3.18,2.57-5.79,6.81-5.79A9.79,9.79,0,0,1,554.1,113l-.89,2.61a7.73,7.73,0,0,0-4-1.14c-2.12,0-3.3,1.22-3.3,2.69,0,1.63,1.18,2.37,3.75,3.35,3.42,1.3,5.18,3,5.18,6,0,3.46-2.69,5.91-7.38,5.91a11.18,11.18,0,0,1-5.55-1.35Z"/><path d="M156.67,292.68a33.38,33.38,0,0,1,6.07-.5c3.38,0,5.56.61,7.09,2a6.1,6.1,0,0,1,1.92,4.66,6.43,6.43,0,0,1-4.62,6.25v.11c1.89.65,3,2.39,3.62,4.94a38.29,38.29,0,0,0,1.9,6.72h-3.29a31.51,31.51,0,0,1-1.64-5.85c-.72-3.38-2-4.66-4.91-4.76h-3v10.61h-3.16Zm3.16,11.16h3.24c3.38,0,5.52-1.85,5.52-4.65,0-3.16-2.29-4.54-5.63-4.58a13.18,13.18,0,0,0-3.13.29Z"/><path d="M186.28,316.85l-.25-2.22h-.11a6.57,6.57,0,0,1-5.38,2.62,5,5,0,0,1-5.37-5.07c0-4.25,3.77-6.57,10.57-6.51v-.36c0-1.45-.4-4.07-4-4.07a8.73,8.73,0,0,0-4.58,1.31l-.72-2.11a10.93,10.93,0,0,1,5.79-1.56c5.38,0,6.69,3.67,6.69,7.19v6.58a23.89,23.89,0,0,0,.29,4.22Zm-.47-9c-3.49-.07-7.45.55-7.45,4a2.83,2.83,0,0,0,2.59,3.05h.43a4.38,4.38,0,0,0,4.25-2.94,3.59,3.59,0,0,0,.18-1Z"/><path d="M197.77,294.21v5.06h4.57v2.44h-4.57v9.48c0,2.17.61,3.42,2.39,3.42a7.15,7.15,0,0,0,1.85-.22l.15,2.4a7.8,7.8,0,0,1-2.83.44,4.44,4.44,0,0,1-3.46-1.35c-.9-.94-1.23-2.5-1.23-4.58v-9.6h-2.73v-2.44h2.73v-4.21Z"/><path d="M209.5,294.32a2,2,0,0,1-4,0,1.94,1.94,0,0,1,1.89-2h.1a1.9,1.9,0,0,1,2,1.83Zm-3.56,22.53V299.26h3.19v17.59Z"/><path d="M214.44,304a46.76,46.76,0,0,0-.15-4.76h2.84l.18,2.89h.07a6.45,6.45,0,0,1,5.79-3.3c2.44,0,6.22,1.44,6.22,7.48v10.51h-3.2V306.71c0-2.84-1.06-5.2-4.07-5.2a4.55,4.55,0,0,0-4.29,3.27,5,5,0,0,0-.22,1.48v10.58h-3.17Z"/><path d="M249.75,299.26c-.07,1.27-.14,2.69-.14,4.83v10.22c0,4-.8,6.51-2.51,8a9.71,9.71,0,0,1-6.39,2.1,11.27,11.27,0,0,1-5.85-1.44l.79-2.44a10,10,0,0,0,5.16,1.39c3.28,0,5.68-1.71,5.68-6.15v-2h-.07a6.32,6.32,0,0,1-5.61,3c-4.34,0-7.48-3.71-7.48-8.58,0-6,3.89-9.34,7.92-9.34a5.86,5.86,0,0,1,5.49,3.05h.07l.15-2.65Zm-3.3,6.94a4.2,4.2,0,0,0-.19-1.45,4.58,4.58,0,0,0-4.46-3.38c-3.06,0-5.23,2.58-5.23,6.65,0,3.46,1.74,6.32,5.19,6.32a4.66,4.66,0,0,0,4.43-3.27,5.22,5.22,0,0,0,.26-1.71Z"/><path d="M254.48,313.59a8.36,8.36,0,0,0,4.21,1.27c2.33,0,3.41-1.16,3.41-2.62s-.9-2.36-3.27-3.23c-3.15-1.13-4.64-2.9-4.64-5,0-2.84,2.28-5.16,6.06-5.16a8.77,8.77,0,0,1,4.34,1.09l-.8,2.32a6.9,6.9,0,0,0-3.62-1c-1.89,0-2.94,1.1-2.94,2.41s1,2.1,3.34,3c3.05,1.16,4.62,2.68,4.62,5.3,0,3.09-2.4,5.27-6.58,5.27a10,10,0,0,1-4.94-1.2Z"/><path d="M268.57,302.17a2.17,2.17,0,1,1,2.17,2.17A2.17,2.17,0,0,1,268.57,302.17Zm0,12.87a2.17,2.17,0,1,1,2.17,2.17A2.18,2.18,0,0,1,268.57,315Z"/><path d="M297.6,295.92h-9l-.91,6.09a11.32,11.32,0,0,1,1.93-.14,9.84,9.84,0,0,1,5.06,1.27,6.7,6.7,0,0,1,3.38,6.06c0,4.62-3.67,8.07-8.79,8.07a11.54,11.54,0,0,1-5.89-1.45l.8-2.43a10.72,10.72,0,0,0,5.07,1.31c3,0,5.59-2,5.59-5.13s-2.07-5.23-6.79-5.23a25.43,25.43,0,0,0-3.27.25l1.52-11.33H297.6Z"/><path d="M300.47,318.31,310.6,292h2.47l-10.18,26.35Z"/><path d="M328.7,295.92h-9l-.91,6.09a11.32,11.32,0,0,1,1.93-.14,9.9,9.9,0,0,1,5.07,1.27,6.74,6.74,0,0,1,3.38,6.06c0,4.62-3.68,8.07-8.8,8.07a11.54,11.54,0,0,1-5.89-1.45l.8-2.43a10.65,10.65,0,0,0,5.06,1.31c3,0,5.6-2,5.6-5.13s-2.06-5.23-6.79-5.23a25.57,25.57,0,0,0-3.27.25l1.53-11.33h11.3Z"/><path d="M410.14,307.91c0,6.51-4.5,9.34-8.75,9.34-4.76,0-8.43-3.49-8.43-9.05,0-5.89,3.85-9.34,8.72-9.34C406.73,298.86,410.14,302.53,410.14,307.91Zm-13.95.19c0,3.85,2.22,6.75,5.34,6.75s5.34-2.89,5.34-6.83c0-3-1.49-6.76-5.27-6.76S396.19,304.75,396.19,308.1Z"/><path d="M428.89,312.05c0,1.82,0,3.42.15,4.8H426.2L426,314H426a6.61,6.61,0,0,1-5.79,3.27c-2.77,0-6.07-1.53-6.07-7.71V299.26h3.2V309c0,3.34,1,5.59,3.92,5.59a4.61,4.61,0,0,0,4.22-2.89,4.8,4.8,0,0,0,.29-1.64v-10.8h3.19Z"/><path d="M434.2,304.75c0-2.07,0-3.85-.15-5.49h2.8l.1,3.45h.15a5.28,5.28,0,0,1,4.87-3.85,3.49,3.49,0,0,1,.91.11v3a5,5,0,0,0-1.09-.11c-2.25,0-3.85,1.71-4.29,4.1a9.41,9.41,0,0,0-.15,1.5v9.4H434.2Z"/><path d="M466.31,316.19a11.47,11.47,0,0,1-5.06,1c-5.31,0-8.76-3.61-8.76-9s3.71-9.34,9.45-9.34a10.53,10.53,0,0,1,4.43.91l-.72,2.47a7.37,7.37,0,0,0-3.71-.83c-4,0-6.22,3-6.22,6.65,0,4.06,2.62,6.57,6.11,6.57a9.12,9.12,0,0,0,3.92-.87Z"/><path d="M470.05,291.05h3.2v25.8h-3.2Z"/><path d="M482.19,294.32a2,2,0,0,1-4,0,1.94,1.94,0,0,1,1.89-2h.11a1.9,1.9,0,0,1,2,1.83Zm-3.56,22.53V299.26h3.2v17.59Z"/><path d="M488.91,308.64c.07,4.34,2.84,6.11,6,6.11a11.48,11.48,0,0,0,4.87-.92l.55,2.29a14,14,0,0,1-5.86,1.09c-5.41,0-8.68-3.56-8.68-8.86s3.13-9.49,8.25-9.49c5.74,0,7.24,5.07,7.24,8.29a14.93,14.93,0,0,1-.11,1.49Zm9.37-2.29c0-2-.83-5.19-4.43-5.19-3.23,0-4.65,3-4.9,5.19Z"/><path d="M505.33,304c0-1.81,0-3.31-.15-4.76H508l.18,2.89h.07a6.47,6.47,0,0,1,5.79-3.3c2.44,0,6.22,1.44,6.22,7.48v10.51h-3.2V306.71c0-2.84-1.05-5.2-4.07-5.2a4.68,4.68,0,0,0-4.5,4.75v10.58h-3.2Z"/><path d="M529.2,294.21v5.06h4.58v2.44H529.2v9.48c0,2.17.62,3.42,2.4,3.42a7.26,7.26,0,0,0,1.85-.22l.15,2.4a7.8,7.8,0,0,1-2.83.44,4.4,4.4,0,0,1-3.46-1.35c-.91-.94-1.23-2.5-1.23-4.58v-9.6h-2.73v-2.44h2.73v-4.21Z"/><path d="M536.94,313.59a8.4,8.4,0,0,0,4.22,1.27c2.32,0,3.41-1.16,3.41-2.62s-.91-2.36-3.27-3.23c-3.16-1.13-4.65-2.9-4.65-5,0-2.84,2.28-5.16,6.07-5.16a8.67,8.67,0,0,1,4.34,1.09l-.79,2.32a6.93,6.93,0,0,0-3.62-1c-1.9,0-2.95,1.1-2.95,2.41s1,2.1,3.35,3c3.05,1.16,4.61,2.68,4.61,5.3,0,3.09-2.4,5.27-6.58,5.27a10,10,0,0,1-4.94-1.2Z"/><path d="M551.14,315a2.18,2.18,0,0,1,2.08-2.26h.09a2.26,2.26,0,0,1,0,4.51,2.17,2.17,0,0,1-2.17-2.17Zm.91-5.2-.5-17.45H555l-.52,17.45Z"/><path d="M359,308.89c0,6.91-4.78,9.92-9.3,9.92-5.07,0-9-3.7-9-9.61,0-6.26,4.09-9.92,9.26-9.92C355.34,299.28,359,303.18,359,308.89Zm-14.82.2c0,4.09,2.35,7.18,5.67,7.18s5.68-3.06,5.68-7.24c0-3.17-1.59-7.18-5.6-7.18s-5.75,3.68-5.75,7.24Z"/><path d="M374.8,318.39v-16.1H367v16.1h-3.36v-16.1H361V299.7h2.63v-.58c0-2.63.62-4.91,2.09-6.37a6.35,6.35,0,0,1,4.71-1.74,6,6,0,0,1,2.66.65l-.72,2.51a5.05,5.05,0,0,0-2-.46c-2.66,0-3.39,2.28-3.39,5.21v.81h7.84v-.88c0-2.63.61-5,2.17-6.51a6.4,6.4,0,0,1,4.51-1.74,7.58,7.58,0,0,1,2.9.54l-.43,2.62a5.35,5.35,0,0,0-2.17-.42c-2.86,0-3.62,2.55-3.62,5.41v1h4.52v2.59H378.2v16.09Z"/><path d="M123.51,337.16h-7.83v30.12h3V354.76h5c7,0,10.88-3.19,10.88-9S131,337.16,123.51,337.16Zm-4.8,2.72H123c6.18,0,8.47,1.6,8.47,5.9s-2.48,6.27-8.29,6.27h-4.47Z"/><path d="M143.79,365a2.74,2.74,0,0,1-.7.08c-.38,0-.42-.62-.42-.89v-29.7h-2.95v29.45c0,3.2,1.68,3.87,3.09,3.87a5.05,5.05,0,0,0,1.54-.24l.45-.12-.52-2.54Z"/><path d="M158.16,344.53c-4.73,0-9.75,4.1-9.75,11.68,0,6.83,4.24,11.6,10.31,11.6a12,12,0,0,0,6.95-2.16l.4-.25-1.3-2.39-.46.33a8.94,8.94,0,0,1-5.41,1.79c-4.27,0-7.22-3.27-7.47-8.19h15.16l.07-.41a9.5,9.5,0,0,0,.12-1.68C166.78,348.39,163.56,344.53,158.16,344.53Zm5.78,9.8H151.46c.56-4.21,3.27-7.11,6.72-7.11S163.8,349.74,163.94,354.33Z"/><path d="M178.77,344.53a14.81,14.81,0,0,0-8.18,2.85l-.39.28,1.44,2.31.44-.33a11.19,11.19,0,0,1,6.46-2.39,4.07,4.07,0,0,1,3.06,1.11,6.72,6.72,0,0,1,1.44,4.69c-9.71,1.14-13.69,3.6-13.69,8.45,0,3.9,2.55,6.31,6.65,6.31,2.26,0,4.62-.94,7.2-2.89l.18,2.36H186v-14C186,347.62,183.43,344.53,178.77,344.53Zm4.27,11V362c-2.65,2.23-4.6,3.15-6.69,3.15-1.5,0-4-.48-4-3.72,0-2.38,1.31-4.71,10.65-5.88Z"/><path d="M199.23,354.63l-.71-.27c-2.38-.89-4.62-1.74-4.62-3.79,0-1.55,1.12-3.37,4.3-3.37A7.55,7.55,0,0,1,203,349l.4.3,1.64-2.19-.37-.3a10.44,10.44,0,0,0-6.38-2.32c-4.32,0-7.34,2.53-7.34,6.15,0,4,3.93,5.41,7.09,6.53,2.46.89,4.86,2,4.86,4.24,0,1.84-1.41,3.69-4.57,3.69a9.21,9.21,0,0,1-6.42-2.57l-.39-.33-1.76,2.21.37.31a12.64,12.64,0,0,0,8.1,3c5.26,0,7.65-3.36,7.65-6.48C205.85,357.11,202.33,355.79,199.23,354.63Z"/><path d="M218.43,344.53c-4.72,0-9.75,4.1-9.75,11.68,0,6.83,4.24,11.6,10.31,11.6a12,12,0,0,0,7-2.16l.39-.25-1.33-2.4-.46.33a8.94,8.94,0,0,1-5.41,1.79c-4.27,0-7.23-3.27-7.48-8.19h15.17l.07-.41a9.5,9.5,0,0,0,.12-1.68C227.06,348.39,223.83,344.53,218.43,344.53Zm5.78,9.8H211.74c.56-4.21,3.26-7.11,6.71-7.11s5.63,2.52,5.76,7.11Z"/><path d="M247.31,354.63l-.71-.27c-2.38-.89-4.63-1.74-4.63-3.79,0-1.55,1.13-3.37,4.31-3.37a7.54,7.54,0,0,1,4.77,1.84l.4.3,1.64-2.19-.38-.3a10.44,10.44,0,0,0-6.38-2.32c-4.32,0-7.33,2.53-7.33,6.15,0,4,3.93,5.41,7.09,6.53,2.46.89,4.86,2,4.86,4.24,0,1.84-1.41,3.69-4.57,3.69a9.21,9.21,0,0,1-6.42-2.57l-.4-.33-1.75,2.21.37.31a12.62,12.62,0,0,0,8.1,3.05c5.26,0,7.65-3.36,7.65-6.48C253.93,357.11,250.41,355.79,247.31,354.63Z"/><path d="M266.51,344.53c-4.72,0-9.75,4.1-9.75,11.68,0,6.83,4.24,11.6,10.31,11.6a12,12,0,0,0,6.95-2.16l.4-.25-1.29-2.4-.46.33a9.06,9.06,0,0,1-5.42,1.79c-4.26,0-7.22-3.27-7.47-8.19h15.16l.08-.41a10.54,10.54,0,0,0,.11-1.68C275.13,348.39,271.91,344.53,266.51,344.53Zm5.78,9.8H259.81c.57-4.21,3.27-7.11,6.72-7.11S272.15,349.74,272.29,354.33Z"/><path d="M287.86,344.53c-4.73,0-9.76,4.1-9.76,11.68,0,6.83,4.24,11.6,10.31,11.6a12,12,0,0,0,7-2.16l.4-.25-1.3-2.39-.46.33a8.94,8.94,0,0,1-5.41,1.79c-4.27,0-7.22-3.27-7.47-8.19h15.16l.07-.41a9.5,9.5,0,0,0,.12-1.68C296.48,348.39,293.25,344.53,287.86,344.53Zm5.77,9.8H281.16c.56-4.21,3.26-7.11,6.71-7.11s5.63,2.52,5.76,7.11Z"/><path d="M318.57,344.53c-2.13,0-4.13,1.24-5.71,3.52l-.16-3h-2.63v22.22H313V352.45c1.32-3.22,3.24-5.06,5.29-5.06a4.38,4.38,0,0,1,1.75.32l.52.19.67-2.7-.36-.17A4.92,4.92,0,0,0,318.57,344.53Z"/><path d="M331.6,344.53c-4.72,0-9.75,4.1-9.75,11.68,0,6.83,4.24,11.6,10.31,11.6a12.07,12.07,0,0,0,7-2.16l.39-.25-1.33-2.4-.46.33a8.94,8.94,0,0,1-5.41,1.79c-4.27,0-7.23-3.27-7.48-8.19H340l.07-.41a9.5,9.5,0,0,0,.12-1.68C340.23,348.39,337,344.53,331.6,344.53Zm5.78,9.8H324.91c.56-4.21,3.26-7.11,6.71-7.11S337.24,349.74,337.38,354.33Z"/><path d="M353.35,358.7c-.56,1.66-1.17,3.38-1.77,5-.59-1.65-1.2-3.37-1.76-5l-4.89-13.63h-3.19l8.34,22.22h3l8.23-22.22h-3.07Z"/><ellipse cx="366.2" cy="338.71" rx="2.28" ry="2.23"/><rect x="364.69" y="345.06" width="2.95" height="22.22"/><path d="M382.77,344.53c-4.72,0-9.75,4.1-9.75,11.68,0,6.83,4.24,11.6,10.31,11.6a12,12,0,0,0,7-2.16l.39-.25-1.33-2.4-.46.33a8.94,8.94,0,0,1-5.41,1.79c-4.27,0-7.23-3.27-7.48-8.19h15.17l.07-.41a9.5,9.5,0,0,0,.12-1.68C391.4,348.39,388.17,344.53,382.77,344.53Zm5.78,9.8H376.08c.56-4.21,3.26-7.11,6.71-7.11S388.41,349.74,388.55,354.33Z"/><path d="M416.09,359.17c-.38,1.47-.75,2.85-1.12,4.24l-.19-.67c-.32-1.17-.65-2.34-1-3.58l-4-14.1H406.7l-4,14.11-.76,2.76c-.13.46-.25.92-.38,1.38-.23-.94-.48-1.88-.73-2.85l-4.27-15.4H393.5l6.55,22.22h3.13l3.74-13.44c.52-1.55.94-3.11,1.33-4.65l.36,1.41c.27,1,.53,2.08.84,3.14l3.84,13.54h3.31l6.4-22.22h-3Z"/><path d="M433.61,354.63l-.71-.27c-2.38-.89-4.62-1.74-4.62-3.79,0-1.55,1.13-3.37,4.3-3.37a7.54,7.54,0,0,1,4.77,1.84l.4.3,1.64-2.19-.37-.3a10.44,10.44,0,0,0-6.38-2.32c-4.32,0-7.34,2.53-7.34,6.15,0,4,3.93,5.41,7.09,6.53,2.46.89,4.86,2,4.86,4.24,0,1.84-1.41,3.69-4.57,3.69a9.21,9.21,0,0,1-6.42-2.57l-.39-.33-1.75,2.21.36.31a12.64,12.64,0,0,0,8.1,3.05c5.26,0,7.65-3.36,7.65-6.48C440.23,357.11,436.71,355.79,433.61,354.63Z"/><polygon points="41.04 300.06 36.83 296.95 29.74 304.19 22.59 296.93 18.57 300.13 26.15 307.83 19.44 314.98 18.69 312.79 7.88 312.79 7.88 306.17 18.26 306.17 18.26 301.2 7.88 301.2 7.88 294.7 18.13 294.7 20.33 289.74 2.35 289.74 2.35 317.75 20.38 317.75 20.18 317.15 22.61 319.13 29.76 311.51 36.82 319.07 41.02 315.89 33.38 307.83 41.04 300.06"/><path d="M55.19,312a16,16,0,0,1-4.8,1.1,4.51,4.51,0,0,1-5-4.95,5.44,5.44,0,0,1,1.3-3.76,4.35,4.35,0,0,1,3.47-1.43,13.48,13.48,0,0,1,4.62,1.17l.85.34L57.89,300l-.94-.43c-4.29-1.94-7.87-2.14-10.83-.95a9.42,9.42,0,0,0-4.62,3.81,10.81,10.81,0,0,0-1.59,5.81,9.54,9.54,0,0,0,2.91,7.21,10.45,10.45,0,0,0,7.46,2.75,16.7,16.7,0,0,0,7-1.59l.94-.44L56,311.69Z"/><path d="M72.53,311.27A7.59,7.59,0,0,1,68,313.12a4.84,4.84,0,0,1-3.56-1.42,3.92,3.92,0,0,1-1.22-2.5H76v-1a10.88,10.88,0,0,0-2.84-7.9,8.26,8.26,0,0,0-6.06-2.47,9.87,9.87,0,0,0-3.81.72,8.94,8.94,0,0,0-4.22,3.8,10.8,10.8,0,0,0-1.37,5.44,10.4,10.4,0,0,0,2.79,7.42,9.61,9.61,0,0,0,7.24,3,12.14,12.14,0,0,0,7.59-2.76l.7-.55-2.58-4.27Zm-8.64-6.69A3.06,3.06,0,0,1,67,302.79a2.75,2.75,0,0,1,2.8,1.79Z"/><path d="M84.46,313.12a1.63,1.63,0,0,1-.53-.1c-.5-.16-.83-.45-.83-1.33V288.74l-5.38,1.67v21.73a5.37,5.37,0,0,0,2.21,4.41A6.4,6.4,0,0,0,84,318a4.59,4.59,0,0,0,2.63-.59l.39-.26.53-5.84-1.75,1.19A2.77,2.77,0,0,1,84.46,313.12Z"/><path d="M111.8,311.27a7.57,7.57,0,0,1-4.56,1.85,4.82,4.82,0,0,1-3.55-1.42,3.87,3.87,0,0,1-1.22-2.5h12.78v-1a10.88,10.88,0,0,0-2.84-7.9,8.28,8.28,0,0,0-6.07-2.47,9.9,9.9,0,0,0-3.81.72,8.92,8.92,0,0,0-4.21,3.8A10.8,10.8,0,0,0,97,307.79a11.61,11.61,0,0,0,.59,3.75l-1.43,1a2.8,2.8,0,0,1-1.38.61,1.58,1.58,0,0,1-.53-.1c-.5-.16-.84-.45-.84-1.33V288.74L88,290.41v21.73a5.37,5.37,0,0,0,2.21,4.41A6.4,6.4,0,0,0,94.31,318a4.63,4.63,0,0,0,2.63-.59l.39-.26.45-5a10,10,0,0,0,2,3,9.64,9.64,0,0,0,7.25,3,12.18,12.18,0,0,0,7.59-2.76l.7-.55-2.58-4.27Zm-8.63-6.69a3,3,0,0,1,3.06-1.79,2.76,2.76,0,0,1,2.8,1.79Z"/><path d="M125.79,297.83a15.22,15.22,0,0,0-5.62,1L116.62,297v20.76H122v-14.4a8.74,8.74,0,0,1,3.49-.59,2.49,2.49,0,0,1,2.26,1.12,4.9,4.9,0,0,1,.75,2.88v11h5.34v-11.6a8.66,8.66,0,0,0-2.06-6.08A7.82,7.82,0,0,0,125.79,297.83Z"/><path d="M146.4,312l-.89.44a5.22,5.22,0,0,1-2.25.68,1.05,1.05,0,0,1-.5-.08h0a9.38,9.38,0,0,1-.11-2.06V303h4.57v-4.78h-4.57v-6.7l-5.34,3v3.7H134.2V303h3.11v9.9a4.85,4.85,0,0,0,1.61,3.8,5.66,5.66,0,0,0,3.93,1.4,10.07,10.07,0,0,0,4.91-1.36l.83-.47Z"/></g></g></svg>