<svg xmlns="http://www.w3.org/2000/svg" viewBox="0 0 436.39 202.41"><defs><style>.cls-1{fill:red;}</style></defs><title>uk</title><g id="Layer_2" data-name="Layer 2"><g id="Layer_1-2" data-name="Layer 1"><path class="cls-1" d="M0,117V8.41H75.35V117q0,17.51,6.11,17.51,6.38,0,6.38-17.51V8.41h75.07V117q0,85.39-81.45,85.39T0,117Z"/><path class="cls-1" d="M257.94,49.14,271.52,8.41H353l-40.72,95,40.72,95H271.52l-13.58-40.73v40.73H176.49V8.41h81.45Z"/><path class="cls-1" d="M359.78,34.3a31.59,31.59,0,0,0,6.35-4.45,18.86,18.86,0,0,0,4.2-5.31,13.71,13.71,0,0,1-7.42-3.1,8.91,8.91,0,0,1-3.13-7A12.74,12.74,0,0,1,365,4.06,18.45,18.45,0,0,1,376.71,0a13.15,13.15,0,0,1,8.8,2.91A9,9,0,0,1,389,10q0,10-7.93,18.34A61.28,61.28,0,0,1,361.25,42Z"/><path class="cls-1" d="M435.28,58.29a18,18,0,0,1-2,16.31q-5,7.91-20.77,7.9-23.7,0-23.7-20.1v-.67h19.75a6.85,6.85,0,0,0,0,.79q0,4.18,4,4.18t3.95-2.49q0-2.49-11.85-4.46T389.87,49.17A18.11,18.11,0,0,1,392,32.7q5.08-7.91,20.5-7.9,23.68,0,23.69,21.13H416.49l-.32.12v-.12c0-.27,0-.52,0-.75,0-3.06-1.23-4.58-3.67-4.58s-3.63.88-3.76,2.64v.12q0,2.61,11.65,4.54Q432.28,49.88,435.28,58.29Z"/></g></g></svg>