<svg xmlns="http://www.w3.org/2000/svg" viewBox="0 0 720.16 738.02"><defs><style>.cls-1{fill:#fff;}.cls-2{fill:#ff0c00;}.cls-3{fill:red;}</style></defs><title>we-guarantee</title><g id="Layer_2" data-name="Layer 2"><g id="Layer_1-2" data-name="Layer 1"><path class="cls-1" d="M348.83,26.48q-.39,3.57-.79,7.26c-.2,1.74-.39,3.5-.58,5.27-.74-4.26-1.5-8.57-2.25-12.64L339.45,0H324.83l-5.76,26.41c-.73,4-1.45,8.13-2.17,12.23l-.07.44c-.13-1.12-.25-2.24-.37-3.37-.34-3.07-.68-6.15-1-9.25L312.14,0H294.21l10.62,60.56h21l4.47-24.05c.52-2.61.95-5.31,1.34-8q.64,4.3,1.38,8l4.66,24.06H359L369,0H352.18Z"/><polygon class="cls-1" points="391.72 45.58 391.72 37.13 410.82 37.13 410.82 22.16 391.72 22.16 391.72 14.97 414.06 14.97 414.06 0 374.22 0 374.22 60.56 414.96 60.56 414.96 45.58 391.72 45.58"/><path class="cls-1" d="M327.08,354.92c-17.4,0-28.21,11.91-28.21,31.09s11.07,31.63,28.21,31.63,28.21-12.42,28.21-31.63S344.48,354.92,327.08,354.92Zm0,47.39c-6.39,0-10.35-6.25-10.35-16.3,0-9.87,3.87-15.76,10.35-15.76s10.35,5.89,10.35,15.75C337.43,396.06,333.46,402.31,327.08,402.31Z"/><path class="cls-1" d="M402.22,393.24c5.86-3.53,9.1-9.49,9.1-17.32,0-13-8.44-19.92-24.42-19.92H363.74v60.56h17.49V396.92h4.35l10.08,19.64h19.61Zm-21-23h4.61c7,0,8.37,2.17,8.37,5.67,0,4.48-2.82,6.75-8.37,6.75h-4.6Z"/><polygon class="cls-1" points="26.07 257.46 45.26 257.46 45.26 199.44 64.97 199.44 64.97 182.86 6.36 182.86 6.36 199.44 26.07 199.44 26.07 257.46"/><path class="cls-1" d="M100.7,181.54c-21,0-34,14.68-34,38.31s13.35,38.93,34,38.93,34-15.28,34-38.93C134.72,196.58,121.37,181.54,100.7,181.54Zm0,60.26c-8.9,0-14.43-8.41-14.43-22,0-13.36,5.39-21.33,14.43-21.33s14.43,8,14.43,21.33c0,13.59-5.53,22-14.43,22Z"/><path class="cls-1" d="M190.94,241.8c-5.28,0-11.49-2.66-16.61-7.11l-1.15-1L162,247.05l1,1a40.67,40.67,0,0,0,27.54,10.76c18.7,0,28.48-11.92,28.48-23.69,0-9.93-4.95-16.75-15.14-20.87l-9.13-3.7-1-.41c-5.89-2.33-9-3.68-9-6.67,0-4.44,5.34-4.92,7.63-4.92,4.94,0,9.11,1.58,13.95,5.3l1.17.89,9.93-12.4-1-1a34.84,34.84,0,0,0-24.09-9.82c-15.39,0-27,9.82-27,22.84,0,12.75,9.64,18.57,15.36,20.9l9.32,4,.86.36c5.92,2.42,8.54,3.62,8.54,6.78C199.5,240.86,194.83,241.8,190.94,241.8Z"/><polygon class="cls-1" points="240.07 257.46 259.26 257.46 259.26 199.44 278.97 199.44 278.97 182.86 220.36 182.86 220.36 199.44 240.07 199.44 240.07 257.46"/><path class="cls-1" d="M348.72,219.85c0-23.27-13.35-38.31-34-38.31-21,0-34,14.68-34,38.31s13.35,38.93,34,38.93S348.72,243.5,348.72,219.85Zm-34,22c-8.9,0-14.43-8.41-14.43-22,0-13.36,5.39-21.33,14.43-21.33s14.43,8,14.43,21.33c0,13.54-5.55,22-14.45,22Z"/><path class="cls-1" d="M378.4,233.17h7.35c18.21,0,29.52-9.88,29.52-25.78s-10.36-24.53-30-24.53h-26.1v74.6h19.19Zm0-34.46h6c8.56,0,12,2.52,12,8.68,0,6.77-3.69,9.92-11.61,9.92H378.4Z"/><path class="cls-1" d="M458.94,257.46h19.19v-26.7l22.43-47.9h-20.3l-6.77,17.43q-1.5,4.08-3,8c-.59,1.53-1.2,3.1-1.81,4.7l-.63-1.69c-1.38-3.72-2.68-7.24-4-11l-6.77-17.4h-20.7L459,230.8Z"/><path class="cls-1" d="M533,258.78c20.67,0,34-15.28,34-38.93,0-23.27-13.36-38.31-34-38.31-21,0-34,14.68-34,38.31S512.32,258.78,533,258.78Zm0-17c-8.9,0-14.43-8.41-14.43-22,0-13.36,5.4-21.33,14.43-21.33s14.44,8,14.44,21.33c0,13.61-5.53,22-14.44,22Z"/><path class="cls-1" d="M607.21,258.78c20,0,29.79-11.78,29.79-36V182.86H618.4v41.58c0,15.3-5.66,17.36-11.19,17.36s-10.93-2.06-10.93-17.36V182.86H577.09v39.92C577.09,246.67,587.22,258.78,607.21,258.78Z"/><path class="cls-1" d="M669.73,231.69h6.5l13.67,25.77h21.59L694.83,228c7.79-4.1,12.13-11.48,12.13-21.37,0-15.57-10.08-23.8-29.14-23.8H650.54v74.6h19.19Zm0-33h6.78c9.62,0,11.59,3.18,11.59,7.95,0,6.09-3.9,9.18-11.59,9.18h-6.78Z"/><path class="cls-1" d="M63.44,297.55c0-14.81-9.58-23.64-27.7-23.64H9.83V340.8H28.14V321.37h6l13,19.43H67.83L52,317.85C59.33,314,63.44,306.94,63.44,297.55Zm-35.3-8.45h6.35c9,0,10.91,4,10.91,8.45,0,5.81-3.57,8.63-10.91,8.63H28.14Z"/><polygon class="cls-1" points="91.98 317.29 115.13 317.29 115.13 301.42 91.98 301.42 91.98 289.79 119.17 289.79 119.17 273.91 73.64 273.91 73.64 340.8 120.21 340.8 120.21 329.93 91.98 329.93 91.98 317.29"/><path class="cls-1" d="M155.53,273.91H130.71V340.8h18.35v-18H156c17.31,0,28.07-9.4,28.07-24.52S174.17,273.91,155.53,273.91Zm-6.47,15.19h5.57c8.06,0,11.34,3.36,11.34,9.15,0,6.37-3.47,9.33-10.93,9.33h-6Z"/><path class="cls-1" d="M221.91,272.66c-20,0-32.34,14.95-32.34,37.4s12.7,32,32.34,32,32.33-9.52,32.33-32C254.24,288,241.55,272.66,221.91,272.66Zm0,58.14c-8.4,0-13.61-7.95-13.61-20.74,0-12.61,5.09-21.14,13.61-21.14s13.6,8.53,13.6,21.14C235.51,322.85,230.3,330.8,221.91,330.8Z"/><path class="cls-1" d="M299,304.65l-8.66-3.51-1-.38c-5.55-2.2-8.44-3.47-8.44-6.26,0-4.14,5-5.58,7.16-5.58,4.66,0,8.6,2.49,13.17,6l1.17.9L311.89,283l-1-.95A33.07,33.07,0,0,0,288,272.71c-14.64,0-25.68,10.35-25.68,22.74,0,12.13,9.17,17.67,14.61,19.88l8.84,3.77.81.33c5.58,2.29,8,3.42,8,6.37,0,4.17-4.37,5.05-8,5.05-5,0-10.85-2.52-15.69-6.73l-1.16-1L259,335.91l1,1c7.14,6.57,16.48,5.21,26.18,5.22,17.77,0,27.07-6.34,27.07-17.54C313.36,315.06,308.65,308.57,299,304.65Z"/><path class="cls-1" d="M355,304.65l-8.66-3.51-1-.38c-5.55-2.2-8.45-3.47-8.45-6.26,0-4.14,5-5.58,7.16-5.58,4.66,0,8.6,2.49,13.18,6l1.16.9L367.92,283l-.95-.95a33.1,33.1,0,0,0-22.9-9.34c-14.64,0-25.68,10.35-25.68,22.74,0,12.13,9.17,17.67,14.61,19.88l8.84,3.77.82.33c5.58,2.29,8,3.42,8,6.37,0,4.17-4.37,5.05-8,5.05-5,0-10.85-2.52-15.69-6.73l-1.15-1-10.71,12.79,1,1c7.14,6.56,16.47,5.21,26.17,5.22,17.78,0,27.08-6.34,27.08-17.54C369.4,315.06,364.68,308.57,355,304.65Z"/><polygon class="cls-1" points="396.32 317.29 419.46 317.29 419.46 301.42 396.32 301.42 396.32 289.79 423.51 289.79 423.51 273.91 377.97 273.91 377.97 340.8 424.55 340.8 424.55 329.93 396.32 329.93 396.32 317.29"/><path class="cls-1" d="M470,304.65l-8.66-3.51-1-.38c-5.55-2.2-8.44-3.47-8.44-6.26,0-4.14,5-5.58,7.16-5.58,4.66,0,8.6,2.49,13.18,6l1.16.9L482.91,283l-1-.95A33.07,33.07,0,0,0,459,272.71c-14.64,0-25.68,10.35-25.68,22.74,0,12.13,9.17,17.67,14.61,19.88l8.84,3.77.81.33c5.58,2.29,8,3.42,8,6.37,0,4.17-4.37,5.05-8,5.05-5,0-10.85-2.52-15.69-6.73l-1.16-1-10.7,12.79,1,1c7.14,6.57,16.48,5.21,26.18,5.22,17.77,0,27.07-6.34,27.07-17.54C484.38,315.06,479.67,308.57,470,304.65Z"/><path class="cls-1" d="M526,304.65l-8.66-3.51-1-.38c-5.55-2.2-8.45-3.47-8.45-6.26,0-4.14,5-5.58,7.16-5.58,4.66,0,8.6,2.49,13.18,6l1.17.9,9.5-12.87-1-.95a33.1,33.1,0,0,0-22.9-9.34c-14.64,0-25.68,10.35-25.68,22.74,0,12.13,9.17,17.67,14.62,19.88l8.84,3.77.81.33c5.58,2.29,8,3.42,8,6.37,0,4.17-4.37,5.05-8,5.05-5,0-10.85-2.52-15.69-6.73l-1.15-1-10.63,12.79,1,1c7.14,6.56,16.47,5.21,26.17,5.22,17.78,0,27.08-6.34,27.08-17.54C540.42,315.06,535.7,308.57,526,304.65Z"/><rect class="cls-1" x="548.99" y="273.91" width="18.35" height="66.89"/><path class="cls-1" d="M609.46,272.66c-19.94,0-32.33,14.95-32.33,37.4s12.69,32,32.33,32,32.33-9.52,32.33-32C641.83,288,629.1,272.66,609.46,272.66Zm0,58.14c-8.39,0-13.6-7.95-13.6-20.74,0-12.61,5.08-21.14,13.6-21.14s13.61,8.53,13.61,21.14C623.07,322.85,617.83,330.8,609.46,330.8Z"/><path class="cls-1" d="M690.19,300.4a167.22,167.22,0,0,0,1.11,16.74l-3.47-7.66L669.7,273.91H651.58V340.8h17.63V320.21a166.85,166.85,0,0,0-1.13-16.72l3.47,7.66,18.13,29.65h18.15V273.91H690.19Z"/><path class="cls-2" d="M5.39,734.83a2,2,0,0,1-2-2v-12A2,2,0,0,1,4,719.36l.86-.79c13.55-12.48,25.2-23.2,25.2-30.22,0-4.35-2.19-4.94-4.33-4.94-2.56,0-4.85,1.83-7.95,5l-1.12,1.06a2,2,0,0,1-1.37.54,2,2,0,0,1-1.41-.58L2.59,678.1a2,2,0,0,1,0-2.78l1-1.06c7.69-8.16,14.6-11.34,24.63-11.34,15.19,0,25.39,9.8,25.39,24.38,0,9.32-6.71,18.82-13,26.07.66,0,1.31,0,1.91,0H54.58a2,2,0,0,1,2,2v17.5a2,2,0,0,1-2,2Z"/><path class="cls-1" d="M28.18,664.92c14,0,23.39,9,23.39,22.38,0,9.68-8,20-15.85,28.4,2.38-.21,4.89-.37,6.72-.37H54.58v17.5H5.39v-12l.86-.79c14.44-13.29,25.85-23.78,25.85-31.69,0-4.54-2.19-6.94-6.33-6.94-3.51,0-6.38,2.53-9.38,5.59l-1.06,1L4,676.69l1-1.06c7.27-7.71,13.77-10.71,23.18-10.71m0-4c-10.52,0-18.08,3.47-26.09,12l-1,1.06a4,4,0,0,0,.08,5.57L12.5,690.83A4,4,0,0,0,15.33,692a4,4,0,0,0,2.74-1.09l1.06-1,.12-.11c2.65-2.71,4.67-4.39,6.52-4.39,1.35,0,2.33,0,2.33,2.94,0,6.14-11.9,17.1-24.5,28.69l-.06.06-.86.78a4,4,0,0,0-1.29,3v12a4,4,0,0,0,4,4H54.58a4,4,0,0,0,4-4v-17.5a4,4,0,0,0-4-4H44.85c5.59-7,10.72-15.5,10.72-24,0-15.53-11.26-26.38-27.39-26.38Z"/><path class="cls-2" d="M105.49,736a41.4,41.4,0,0,1-27-10.21l-1.12-1a2,2,0,0,1-.17-2.74l11.68-14.1a2,2,0,0,1,1.54-.72,2.06,2.06,0,0,1,1.26.44l1.15.93c4.19,3.38,9.32,5.56,13.07,5.56,1.18,0,3.93-.11,3.93-1.12-.34-.59-3.51-1.84-5.2-2.51l-1.43-.56L95,706.49c-9.71-3.85-15.3-11.66-15.3-21.39,0-13.56,12-23.79,27.8-23.79A34.93,34.93,0,0,1,131.62,671l1,1a2,2,0,0,1,.18,2.7l-10.36,13a2,2,0,0,1-1.56.75,2,2,0,0,1-1.15-.36l-1.15-.81c-4.18-2.94-7.27-4.09-11-4.09-1.8,0-3.22.37-3.32.86.51.67,3.55,1.84,5.79,2.7l9.56,3.74c9.79,3.88,14.95,11.2,14.94,21.17,0,12.11-10,24.38-29,24.38Z"/><path class="cls-1" d="M107.49,663.31a33.08,33.08,0,0,1,22.75,9.17l1,.95-10.36,13-1.16-.81c-4.48-3.16-8-4.45-12.19-4.45-2,0-5.33.38-5.33,2.92,0,1.72,2.3,2.67,7.08,4.51l9.55,3.73c9.07,3.6,13.68,10.08,13.67,19.31,0,11.12-9.26,22.38-27,22.38a39.37,39.37,0,0,1-25.7-9.72l-1.07-1,11.68-14.1,1.15.93c4.6,3.7,10.09,6,14.33,6,5.93,0,5.93-2.27,5.93-3.12,0-1.67-1.68-2.48-6.47-4.37l-1.43-.56-8.15-3.43C86.83,701.1,81.69,694,81.69,685.1c0-12.42,11.09-21.79,25.8-21.79m0-4c-17,0-29.8,11.09-29.8,25.79a24,24,0,0,0,11.13,20.43,4,4,0,0,0-1.49,1.12l-11.68,14.1a4,4,0,0,0,.35,5.47l1.07,1,.1.09A43.3,43.3,0,0,0,105.48,738c20.37,0,31-13.27,31-26.38,0-9.89-4.64-17.38-13.49-21.82a3.86,3.86,0,0,0,1-.9l10.36-13a4,4,0,0,0-.37-5.39l-1-.95a36.93,36.93,0,0,0-25.5-10.27Z"/><rect class="cls-2" x="137.96" y="662.52" width="24.27" height="72.27" rx="2"/><path class="cls-1" d="M160.23,664.52v68.27H140V664.52h20.27m0-4H140a4,4,0,0,0-4,4v68.27a4,4,0,0,0,4,4h20.27a4,4,0,0,0,4-4V664.52a4,4,0,0,0-4-4Z"/><path class="cls-2" d="M171.71,734.79a2,2,0,0,1-2-2V664.52a2,2,0,0,1,2-2h21a2,2,0,0,1,1.88,1.31l10.2,27.69.33,1c.1-.31.2-.62.31-.92l9.86-27.76a2,2,0,0,1,1.88-1.33h21a2,2,0,0,1,2,2v68.26a2,2,0,0,1-2,2H219.51a2,2,0,0,1-2-2V714.09l-5.24,14.07a2,2,0,0,1-1.87,1.3H199.08a2,2,0,0,1-1.87-1.3l-5-13.53v18.16a2,2,0,0,1-2,2Z"/><path class="cls-1" d="M192.71,664.52l10.2,27.69c.69,2.06,1.31,4.23,1.91,6.33l.3,1.05.3-1.05c.6-2.1,1.22-4.29,1.9-6.29l9.85-27.73h21v68.26H219.51V712c0-3.23.33-7.3.76-11.36l-1.46,4.22-8.41,22.6H199.08l-8.4-22.57-1.2-3.6c.4,3.84.69,7.65.69,10.71v20.79H171.71V664.52h21m0-4h-21a4,4,0,0,0-4,4v68.27a4,4,0,0,0,4,4h18.46a4,4,0,0,0,4-4v-7l1.16,3.12a4,4,0,0,0,3.75,2.6H210.4a4,4,0,0,0,3.75-2.61l1.36-3.65v7.58a4,4,0,0,0,4,4h18.66a4,4,0,0,0,4-4V664.52a4,4,0,0,0-4-4h-21a4,4,0,0,0-3.77,2.66l-8.31,23.39-8.63-23.43a4,4,0,0,0-3.75-2.62Z"/><path class="cls-2" d="M249.62,734.79a2,2,0,0,1-2-2V664.52a2,2,0,0,1,2-2H275c19.07,0,30,9.18,30,25.19,0,19.48-15.95,26.39-29.61,26.39h-3.53v18.69a2,2,0,0,1-2,2Zm25-41.35c4.65,0,6.55-1.66,6.55-5.73,0-1.92,0-4.54-7-4.54h-2.32v10.27Z"/><path class="cls-1" d="M275,664.52c18.06,0,28,8.23,28,23.19,0,18-14.88,24.39-27.61,24.39h-5.53v20.69H249.62V664.52H275m-5.13,30.92h4.72c5.75,0,8.55-2.53,8.55-7.73,0-3.23-1.07-6.54-9-6.54h-4.32v14.27M275,660.52h-25.4a4,4,0,0,0-4,4v68.27a4,4,0,0,0,4,4h20.27a4,4,0,0,0,4-4V716.1h1.53c15.73,0,31.61-8.78,31.61-28.39,0-17.28-11.67-27.19-32-27.19Zm-1.13,24.65h.32c3.52,0,4.47.76,4.63.91a2.63,2.63,0,0,1,.32,1.63c0,2.32-.31,3.73-4.55,3.73h-.72v-6.27Z"/><path class="cls-2" d="M310.67,734.79a2,2,0,0,1-2-2V664.52a2,2,0,0,1,2-2h20.27a2,2,0,0,1,2,2v48.81h22.71a2,2,0,0,1,2,2v17.46a2,2,0,0,1-2,2Z"/><path class="cls-1" d="M330.94,664.52v50.81h24.71v17.46h-45V664.52h20.27m0-4H310.67a4,4,0,0,0-4,4v68.27a4,4,0,0,0,4,4h45a4,4,0,0,0,4-4V715.33a4,4,0,0,0-4-4H334.94V664.52a4,4,0,0,0-4-4Z"/><path class="cls-2" d="M363.9,734.79a2,2,0,0,1-2-2V664.52a2,2,0,0,1,2-2h45.17a2,2,0,0,1,2,2V682a2,2,0,0,1-2,2h-22.9v3.24h19.29a2,2,0,0,1,2,2v17.46a2,2,0,0,1-2,2H386.17v4.65h23.91a2,2,0,0,1,2,2v17.46a2,2,0,0,1-2,2Z"/><path class="cls-1" d="M409.07,664.52V682h-24.9v7.24h21.29v17.46H384.17v8.65h25.91v17.46H363.9V664.52h45.17m0-4H363.9a4,4,0,0,0-4,4v68.27a4,4,0,0,0,4,4h46.18a4,4,0,0,0,4-4V715.33a4,4,0,0,0-4-4H388.17v-.65h17.29a4,4,0,0,0,4-4V689.22a4,4,0,0,0-1.65-3.24h1.26a4,4,0,0,0,4-4V664.52a4,4,0,0,0-4-4Z"/><path class="cls-2" d="M462,736a41.4,41.4,0,0,1-27-10.21l-1.12-1a2,2,0,0,1-.17-2.74l11.67-14.1a2,2,0,0,1,1.54-.72,2.06,2.06,0,0,1,1.26.44l1.15.93c4.19,3.38,9.32,5.56,13.07,5.56,1.18,0,3.93-.11,3.93-1.12-.34-.59-3.51-1.84-5.2-2.51l-1.43-.56-8.2-3.45c-9.71-3.85-15.3-11.66-15.3-21.39,0-13.56,11.95-23.79,27.8-23.79A34.89,34.89,0,0,1,488.1,671l1,1a2,2,0,0,1,.18,2.7l-10.36,13a2,2,0,0,1-1.56.75,2,2,0,0,1-1.15-.36l-1.15-.81c-4.18-2.94-7.27-4.09-11.05-4.09-1.8,0-3.22.37-3.32.86.51.67,3.55,1.84,5.78,2.7l9.56,3.74c10,3.93,15,11.06,15,21.17,0,12.11-10,24.38-29,24.38Z"/><path class="cls-1" d="M464,663.31a33,33,0,0,1,22.74,9.17l1,.95-10.36,13-1.16-.81c-4.48-3.16-8-4.45-12.19-4.45-2,0-5.33.38-5.33,2.92,0,1.72,2.3,2.67,7.07,4.51l9.55,3.73c9.1,3.6,13.71,10.08,13.7,19.31,0,11.12-9.27,22.38-27,22.38a39.37,39.37,0,0,1-25.7-9.72l-1.07-1,11.67-14.1,1.15.93c4.6,3.7,10.09,6,14.33,6,5.93,0,5.93-2.27,5.93-3.12,0-1.67-1.68-2.48-6.47-4.37l-1.43-.56-8.15-3.43c-8.94-3.55-14.08-10.7-14.08-19.55,0-12.42,11.09-21.79,25.8-21.79m0-4c-17,0-29.8,11.09-29.8,25.79a24,24,0,0,0,11.13,20.43,3.94,3.94,0,0,0-1.49,1.12l-11.67,14.1a4,4,0,0,0,.35,5.47l1.07,1,.1.09A43.3,43.3,0,0,0,462,738c20.37,0,31-13.27,31-26.38,0-9.89-4.65-17.39-13.51-21.82a3.86,3.86,0,0,0,1-.9l10.36-13a4,4,0,0,0-.38-5.39l-1-.95A36.85,36.85,0,0,0,464,659.31Z"/><path class="cls-2" d="M506.9,734.79a2,2,0,0,1-2-2V684H489.63a2,2,0,0,1-2-2V664.52a2,2,0,0,1,2-2h54.81a2,2,0,0,1,2,2V682a2,2,0,0,1-2,2H529.17v48.81a2,2,0,0,1-2,2Z"/><path class="cls-1" d="M544.44,664.52V682H527.17v50.81H506.9V682H489.63V664.52h54.81m0-4H489.63a4,4,0,0,0-4,4V682a4,4,0,0,0,4,4H502.9v46.81a4,4,0,0,0,4,4h20.27a4,4,0,0,0,4-4V686h13.27a4,4,0,0,0,4-4V664.52a4,4,0,0,0-4-4Z"/><path class="cls-2" d="M551.09,734.79a2,2,0,0,1-2-2V664.52a2,2,0,0,1,2-2h45.17a2,2,0,0,1,2,2V682a2,2,0,0,1-2,2h-22.9v3.24h19.29a2,2,0,0,1,2,2v17.46a2,2,0,0,1-2,2H573.36v4.65h23.91a2,2,0,0,1,2,2v17.46a2,2,0,0,1-2,2Z"/><path class="cls-1" d="M596.26,664.52V682h-24.9v7.24h21.29v17.46H571.36v8.65h25.91v17.46H551.09V664.52h45.17m0-4H551.09a4,4,0,0,0-4,4v68.27a4,4,0,0,0,4,4h46.18a4,4,0,0,0,4-4V715.33a4,4,0,0,0-4-4H575.36v-.65h17.29a4,4,0,0,0,4-4V689.22A4,4,0,0,0,595,686h1.26a4,4,0,0,0,4-4V664.52a4,4,0,0,0-4-4Z"/><path class="cls-2" d="M606.92,734.79a2,2,0,0,1-2-2V664.52a2,2,0,0,1,2-2h25.4c19.07,0,30,9.18,30,25.19,0,19.48-16,26.39-29.61,26.39h-3.53v18.69a2,2,0,0,1-2,2Zm25-41.35c4.65,0,6.54-1.66,6.54-5.73,0-1.92,0-4.54-6.94-4.54h-2.33v10.27Z"/><path class="cls-1" d="M632.32,664.52c18.06,0,28,8.23,28,23.19,0,18-14.87,24.39-27.61,24.39h-5.53v20.69H606.92V664.52h25.4m-5.13,30.92h4.73c5.75,0,8.54-2.53,8.54-7.73,0-3.23-1.06-6.54-8.94-6.54h-4.33v14.27m5.13-34.92h-25.4a4,4,0,0,0-4,4v68.27a4,4,0,0,0,4,4h20.27a4,4,0,0,0,4-4V716.1h1.53c15.73,0,31.61-8.78,31.61-28.39,0-17.28-11.67-27.19-32-27.19Zm-1.13,24.65h.33c3.52,0,4.46.76,4.62.91a2.63,2.63,0,0,1,.32,1.63c0,2.32-.31,3.73-4.54,3.73h-.73v-6.27Z"/><path class="cls-2" d="M689.15,736a41.35,41.35,0,0,1-27-10.19l-1.13-1a2,2,0,0,1-.17-2.74l11.67-14.1a2,2,0,0,1,1.54-.72,2.06,2.06,0,0,1,1.26.44l1.15.93c4.18,3.38,9.31,5.56,13.06,5.56,1.18,0,3.93-.11,3.93-1.12-.34-.59-3.5-1.84-5.2-2.51l-1.42-.56-8.2-3.45c-9.71-3.85-15.3-11.65-15.3-21.39,0-13.56,11.95-23.79,27.8-23.79A35,35,0,0,1,715.25,671l1,1a2,2,0,0,1,.18,2.7l-10.36,13a2,2,0,0,1-1.56.75,2,2,0,0,1-1.15-.36l-1.15-.81c-4.18-2.94-7.27-4.09-11-4.09-1.8,0-3.22.37-3.32.86.51.68,3.55,1.84,5.78,2.7l9.56,3.74c9.81,3.88,15,11.19,15,21.15,0,12.12-10,24.38-29,24.38Z"/><path class="cls-1" d="M691.13,663.31a33.08,33.08,0,0,1,22.74,9.17l1,.95-10.36,13-1.15-.81c-4.49-3.16-8-4.45-12.19-4.45-2,0-5.33.38-5.33,2.92,0,1.72,2.29,2.67,7.07,4.51l9.55,3.73c9.1,3.6,13.71,10.08,13.7,19.29,0,11.12-9.27,22.38-27,22.38a39.35,39.35,0,0,1-25.71-9.7l-1.07-1,11.67-14.1,1.15.93c4.59,3.7,10.08,6,14.32,6,5.93,0,5.93-2.27,5.93-3.12,0-1.67-1.67-2.48-6.47-4.37l-1.42-.56-8.16-3.43c-8.94-3.55-14.07-10.7-14.07-19.55,0-12.42,11.09-21.79,25.8-21.79m0-4c-17,0-29.8,11.09-29.8,25.79a24,24,0,0,0,11.12,20.43,4,4,0,0,0-1.48,1.12l-11.67,14.1a4,4,0,0,0,.35,5.47l1.07,1,.1.09A43.4,43.4,0,0,0,689.14,738c20.37,0,31-13.27,31-26.38,0-9.88-4.65-17.37-13.52-21.8a4.25,4.25,0,0,0,1-.9l10.36-13a4,4,0,0,0-.37-5.39l-1-.95a36.93,36.93,0,0,0-25.49-10.27Z"/><polygon class="cls-1" points="39.24 501.58 75.01 501.58 75.01 474.28 39.24 474.28 39.24 460.07 81.08 460.07 81.08 432.77 7.22 432.77 7.22 545.45 82.77 545.45 82.77 518.15 39.24 518.15 39.24 501.58"/><path class="cls-1" d="M146.3,481.83c-1.3,5.27-2.48,10.55-3.62,15.66-1.07,4.77-2.16,9.67-3.36,14.61-1-4.25-2-8.45-2.85-12.56-1.27-5.78-2.58-11.76-4.13-17.7l-11.75-49.07H86.69L120,545.45h37.34l33.28-112.68H157.7Z"/><rect class="cls-1" x="195.86" y="432.77" width="32.02" height="112.68"/><path class="cls-1" d="M318.08,510.53c-3.82,4.09-10.18,9-18.81,9-13.85,0-22.12-11.42-22.12-30.56,0-19.84,11.3-30.22,22.46-30.22,7.38,0,12.65,3.71,17.23,7.73l1.17,1,17-20.81-1-1c-5.58-5.59-17.57-14.95-35.15-14.95-27.07,0-54.48,20.33-54.48,59.2,0,18,5.57,32.88,16.11,43.13,9.53,9.28,22.92,14.39,37.7,14.39,15,0,27.85-5.78,37.25-16.72l.82-1-17.08-20.51Z"/><polygon class="cls-1" points="338.27 460.07 367.29 460.07 367.29 545.45 399.31 545.45 399.31 460.07 428.33 460.07 428.33 432.77 338.27 432.77 338.27 460.07"/><rect class="cls-1" x="441.53" y="432.77" width="32.02" height="112.68"/><path class="cls-1" d="M542.58,430.75c-32.35,0-52.46,22.17-52.46,57.85,0,17.88,5,32.83,14.48,43.24,9.31,10.23,22.44,15.63,38,15.63s28.67-5.4,38-15.63c9.47-10.41,14.48-25.36,14.48-43.24C595,452.92,574.94,430.75,542.58,430.75Zm0,88.75c-12.19,0-19.76-11.84-19.76-30.9,0-18.71,7.39-29.88,19.76-29.88s19.76,11.17,19.76,29.88C562.34,507.66,554.77,519.5,542.58,519.5Z"/><path class="cls-1" d="M673,432.77V466c0,10.66,1.47,23.32,2.74,33.78l-7.32-17.23-24.71-49.77H611.61V545.45h30.67V512.23c0-10.53-1.43-22.51-2.69-33.08a6.44,6.44,0,0,0-.1-.87l7.34,17.23,24.71,49.94h32.13V432.77Z"/><path class="cls-2" d="M49.83,166.74C21.41,166.74,3,148.15,3,119.39s19-48.66,46.31-48.66H50a42.5,42.5,0,0,1,29.89,12.4l1.27,1.28a2,2,0,0,1,.14,2.68L67.07,104.46a2,2,0,0,1-1.38.72h-.17a2,2,0,0,1-1.31-.49l-1.56-1.36c-3.82-3.35-7.09-5.29-12.52-5.29C40.19,98.05,34,105.92,34,118.6c0,14.2,5.78,20.81,18.2,20.81h.12a10.86,10.86,0,0,0,2.41-.27v-5H44.22a2,2,0,0,1-2-2V109.81a2,2,0,0,1,2-2H80.56a2,2,0,0,1,2,2v43.34a2,2,0,0,1-.61,1.44l-.61.59C73.85,162.31,61.78,166.74,49.83,166.74Z"/><path class="cls-1" d="M50,72.72A40.25,40.25,0,0,1,78.45,84.54l1.28,1.28L65.52,103.19,64,101.83c-4.07-3.57-7.83-5.78-13.83-5.78-11,0-18.11,8.85-18.11,22.55,0,15.35,6.61,22.81,20.2,22.81h.12a13,13,0,0,0,4.41-.77v-8.55H44.22V109.81H80.56v43.34l-.61.59c-7.12,6.78-18.64,11-30.12,11C22.64,164.74,5,146.87,5,119.39S23.26,72.73,49.35,72.73H50m0-4h-.66C35.6,68.74,23.24,73.8,14.51,83S1,105.07,1,119.39C1,134,5.66,146.33,14.39,155.18s21,13.56,35.44,13.56c12.44,0,25-4.64,32.88-12.1l.63-.61a4,4,0,0,0,1.22-2.88V109.81a4,4,0,0,0-4-4h-12l.08-.09L82.83,88.35A4,4,0,0,0,82.56,83l-1.28-1.28a44.56,44.56,0,0,0-31.3-13Zm-9.44,64.95c-3.1-3-4.52-7.94-4.52-15.07,0-11.44,5.41-18.55,14.11-18.55,4.82,0,7.65,1.68,11.19,4.79l1.12,1H44.22a4,4,0,0,0-4,4v22.28a4.17,4.17,0,0,0,.32,1.58Zm3.76,2.42h8.45v1.31h-.49a21,21,0,0,1-8-1.32Z"/><path class="cls-2" d="M129.79,166.74c-26,0-39.25-15.67-39.25-46.57V74.29a2,2,0,0,1,2-2H119a2,2,0,0,1,2,2v48.49c0,15.38,4,16.63,8.79,16.63s9.06-1.27,9.06-16.63V74.29a2,2,0,0,1,2-2h25.7a2,2,0,0,1,2,2v45.88C168.53,151.07,155.5,166.74,129.79,166.74Z"/><path class="cls-1" d="M166.53,74.29v45.88c0,30-12,44.57-36.74,44.57-25.07,0-37.25-14.57-37.25-44.57V74.29H119v48.49c0,15.52,4.15,18.63,10.79,18.63s11.06-3.17,11.06-18.63V74.29h25.7m0-4h-25.7a4,4,0,0,0-4,4v48.49c0,14.63-3.91,14.63-7.06,14.63s-6.79,0-6.79-14.63V74.29a4,4,0,0,0-4-4H92.54a4,4,0,0,0-4,4v45.88c0,32.23,13.88,48.57,41.25,48.57,27,0,40.74-16.34,40.74-48.57V74.29a4,4,0,0,0-4-4Z"/><path class="cls-2" d="M224.32,165.17a2,2,0,0,1-1.95-1.54l-3.86-16.46H201.18l-3.86,16.46a2,2,0,0,1-1.95,1.54H168.1a2,2,0,0,1-1.91-2.58l27.08-88.88a2,2,0,0,1,1.91-1.42H225.3a2,2,0,0,1,1.91,1.42l27.08,88.88a2,2,0,0,1-1.91,2.58Zm-11.74-43.39-.23-1c-.82-3.21-1.67-6.88-2.51-10.57-.83,3.73-1.67,7.37-2.52,10.66l-.21.87Z"/><path class="cls-1" d="M225.3,74.29l27.08,88.88H224.32l-4.22-18H199.59l-4.22,18H168.1l27.08-88.88H225.3m-20.71,49.49H215.1l-.8-3.42c-1.14-4.42-2.31-9.67-3.44-14.67-.35-1.54-.7-3.11-1.05-4.67-1.43,6.58-2.92,13.55-4.43,19.39l-.79,3.37M225.3,70.29H195.18a4,4,0,0,0-3.83,2.83L164.27,162a4,4,0,0,0,3.83,5.17h27.27a4,4,0,0,0,3.89-3.09l3.5-14.91h14.17l3.5,14.91a4,4,0,0,0,3.89,3.09h28.06a4,4,0,0,0,3.83-5.17L229.13,73.12a4,4,0,0,0-3.83-2.83Zm-15.63,49.49.18-.73.18.73Z"/><path class="cls-2" d="M254.47,165.22a2,2,0,0,1-2-2V74.34a2,2,0,0,1,2-2h34c24.5,0,38,11.16,38,31.43,0,11.21-4.26,20.11-12.35,25.87l11.66,20.79,23.37-76.72a2,2,0,0,1,1.91-1.42h30.13a2,2,0,0,1,1.91,1.42l27.07,88.88a2,2,0,0,1-1.91,2.58H380.25a2,2,0,0,1-1.95-1.54l-3.86-16.46H357.11l-3.86,16.46a2,2,0,0,1-1.95,1.54H301a2,2,0,0,1-1.78-1.09l-14.05-27.37h-2.19v26.51a2,2,0,0,1-2,2Zm114-43.44-.23-1c-.82-3.2-1.67-6.87-2.51-10.55-.82,3.72-1.66,7.35-2.51,10.64l-.21.87ZM287,111c8.44,0,9.58-3.66,9.58-7.23,0-2.79,0-5.67-9.58-5.67h-4.1V111Z"/><path class="cls-1" d="M381.23,74.29l27.07,88.88H380.25l-4.22-18H355.52l-4.22,18H301l-14.61-28.46h-5.41v28.51H254.47V74.34h34c23.56,0,36,10.18,36,29.43,0,11.23-4.46,19.9-13,25.23l14.86,26.5L351.1,74.29h30.13M280.93,113H287c7.79,0,11.58-3,11.58-9.23,0-4.74-1.94-7.67-11.58-7.67h-6.1V113m79.59,10.83H371l-.81-3.42c-1.14-4.42-2.31-9.67-3.44-14.67-.34-1.54-.7-3.11-1-4.67-1.42,6.58-2.91,13.55-4.42,19.39l-.79,3.37m20.71-53.49H351.1a4,4,0,0,0-3.83,2.83l-22,72.25-8.51-15.19c7.7-6.14,11.75-15.19,11.75-26.41,0-21.56-14.21-33.43-40-33.43h-34a4,4,0,0,0-4,4v88.88a4,4,0,0,0,4,4h26.46a4,4,0,0,0,4-4v-22.5L297.39,165a4,4,0,0,0,3.56,2.17H351.3a4,4,0,0,0,3.89-3.09l3.5-14.91h14.17l3.5,14.91a4,4,0,0,0,3.89,3.09H408.3a4,4,0,0,0,3.83-5.17L385.06,73.12a4,4,0,0,0-3.83-2.83Zm-96.3,29.76H287c4.87,0,6.47.84,6.94,1.21.21.16.64.5.64,2.46,0,2.21,0,5.23-7.58,5.23h-2.1v-8.9Zm80.67,19.73c.06-.23.11-.47.17-.71l.18.71Z"/><path class="cls-2" d="M410.4,165.17a2,2,0,0,1-2-2V74.29a2,2,0,0,1,2-2h26.22a2,2,0,0,1,1.79,1.11l17.85,36q-.25-4.24-.33-8.49V74.29a2,2,0,0,1,2-2h25.41a2,2,0,0,1,2,2v88.86a2,2,0,0,1-2,2H457.12a2,2,0,0,1-1.79-1.11L437.48,128c.18,2.87.3,5.75.35,8.62v26.58a2,2,0,0,1-2,2Z"/><path class="cls-1" d="M483.34,74.29v88.86H457.12l-19.4-39.21L434.33,116a187,187,0,0,1,1.5,20.62v26.55H410.4V74.29h26.22L456,113.38l3.35,7.87a188.29,188.29,0,0,1-1.44-20.41V74.29h25.41m0-4H457.93a4,4,0,0,0-4,4v25.88L440.2,72.51a4,4,0,0,0-3.58-2.22H410.4a4,4,0,0,0-4,4v88.88a4,4,0,0,0,4,4h25.43a4,4,0,0,0,4-4V137.22l13.7,27.7a4,4,0,0,0,3.59,2.23h26.22a4,4,0,0,0,4-4V74.29a4,4,0,0,0-4-4Z"/><path class="cls-2" d="M514.34,165.17a2,2,0,0,1-2-2V99.1H491.88a2,2,0,0,1-2-2V74.29a2,2,0,0,1,2-2h71.39a2,2,0,0,1,2,2V97.1a2,2,0,0,1-2,2H542.81v64.07a2,2,0,0,1-2,2Z"/><path class="cls-1" d="M563.27,74.29V97.1H540.81v66.07H514.34V97.1H491.88V74.29h71.39m0-4H491.88a4,4,0,0,0-4,4V97.1a4,4,0,0,0,4,4h18.46v62.07a4,4,0,0,0,4,4h26.47a4,4,0,0,0,4-4V101.1h18.46a4,4,0,0,0,4-4V74.29a4,4,0,0,0-4-4Z"/><path class="cls-2" d="M571.81,165.17a2,2,0,0,1-2-2V74.29a2,2,0,0,1,2-2h58.84a2,2,0,0,1,2,2V97.1a2,2,0,0,1-2,2H600.27v5.32H626a2,2,0,0,1,2,2v22.8a2,2,0,0,1-2,2H600.27v7.15H632a2,2,0,0,1,2,2v22.8a2,2,0,0,1-2,2Z"/><path class="cls-1" d="M630.65,74.29V97.1H598.27v9.32H626v22.8H598.27v11.15H632v22.8H571.81V74.29h58.84m0-4H571.81a4,4,0,0,0-4,4v88.88a4,4,0,0,0,4,4H632a4,4,0,0,0,4-4v-22.8a4,4,0,0,0-4-4H602.27v-3.15H626a4,4,0,0,0,4-4v-22.8a4,4,0,0,0-4-4H602.27V101.1h28.38a4,4,0,0,0,4-4V74.29a4,4,0,0,0-4-4Z"/><path class="cls-2" d="M644.41,165.17a2,2,0,0,1-2-2V74.29a2,2,0,0,1,2-2h58.85a2,2,0,0,1,2,2V97.1a2,2,0,0,1-2,2H672.87v5.32h25.69a2,2,0,0,1,2,2v22.8a2,2,0,0,1-2,2H672.87v7.15h31.69a2,2,0,0,1,2,2v22.8a2,2,0,0,1-2,2Z"/><path class="cls-1" d="M703.26,74.29V97.1H670.87v9.32h27.69v22.8H670.87v11.15h33.69v22.8H644.41V74.29h58.85m0-4H644.41a4,4,0,0,0-4,4v88.88a4,4,0,0,0,4,4h60.15a4,4,0,0,0,4-4v-22.8a4,4,0,0,0-4-4H674.87v-3.15h23.69a4,4,0,0,0,4-4v-22.8a4,4,0,0,0-4-4H674.87V101.1h28.39a4,4,0,0,0,4-4V74.29a4,4,0,0,0-4-4Z"/><rect class="cls-3" x="2.83" y="21.28" width="276" height="14"/><rect class="cls-3" x="434.33" y="21.78" width="271" height="14"/><rect class="cls-3" x="2.83" y="374.28" width="277" height="14"/><rect class="cls-3" x="434.33" y="374.78" width="271" height="14"/><rect class="cls-1" x="316.44" y="567" width="17.5" height="60.56"/><path class="cls-1" d="M377.7,567v17.94A149.76,149.76,0,0,0,379,601.6l-3.37-7.92L362.38,567H344.91v60.56h16.77V609.62a147.24,147.24,0,0,0-1.33-16.78l3.4,7.94L377,627.56h17.47V567Z"/><rect class="cls-3" x="2.83" y="591.28" width="282" height="14"/><rect class="cls-3" x="426.33" y="591.78" width="279" height="14"/></g></g></svg>